<mxfile host="app.diagrams.net" modified="2022-10-04T02:16:04.911Z" agent="5.0 (Windows NT 10.0; Win64; x64) AppleWebKit/537.36 (KHTML, like Gecko) Chrome/106.0.0.0 Safari/537.36" etag="PI7vJKVH3kj20ysjFv94" version="20.4.0" type="github">
  <diagram id="hIoT4OHfCP8BXWIc4_R8" name="Page-1">
    <mxGraphModel dx="813" dy="435" grid="0" gridSize="10" guides="1" tooltips="1" connect="1" arrows="1" fold="1" page="1" pageScale="1" pageWidth="1700" pageHeight="1100" math="0" shadow="0">
      <root>
        <mxCell id="0" />
        <mxCell id="1" parent="0" />
        <mxCell id="FVQ36FpUcOlVYUAiSAkq-2" value="MCU" style="shape=umlLifeline;perimeter=lifelinePerimeter;whiteSpace=wrap;html=1;container=1;collapsible=0;recursiveResize=0;outlineConnect=0;strokeColor=default;" parent="1" vertex="1">
          <mxGeometry x="289" y="128" width="101" height="239" as="geometry" />
        </mxCell>
        <mxCell id="FVQ36FpUcOlVYUAiSAkq-4" value="" style="shape=umlLifeline;participant=umlActor;perimeter=lifelinePerimeter;whiteSpace=wrap;html=1;container=1;collapsible=0;recursiveResize=0;verticalAlign=top;spacingTop=36;outlineConnect=0;strokeColor=default;" parent="1" vertex="1">
          <mxGeometry x="72" y="128" width="20" height="246" as="geometry" />
        </mxCell>
        <mxCell id="FVQ36FpUcOlVYUAiSAkq-5" value="" style="endArrow=classic;html=1;rounded=0;" parent="1" edge="1">
          <mxGeometry width="50" height="50" relative="1" as="geometry">
            <mxPoint x="83" y="219" as="sourcePoint" />
            <mxPoint x="337" y="268" as="targetPoint" />
          </mxGeometry>
        </mxCell>
        <mxCell id="FVQ36FpUcOlVYUAiSAkq-33" value="" style="endArrow=classic;html=1;rounded=0;" parent="1" edge="1">
          <mxGeometry width="50" height="50" relative="1" as="geometry">
            <mxPoint x="337" y="286" as="sourcePoint" />
            <mxPoint x="86" y="356" as="targetPoint" />
          </mxGeometry>
        </mxCell>
        <mxCell id="FVQ36FpUcOlVYUAiSAkq-37" value="" style="shape=image;verticalLabelPosition=bottom;labelBackgroundColor=default;verticalAlign=top;aspect=fixed;imageAspect=0;image=data:image/png,iVBORw0KGgoAAAANSUhEUgAAAfgAAACNCAYAAABbsGi5AAAgAElEQVR4nO2d/2tU17r/3/1wfv789OlMuNX0nkZ6A8YcmxusBnOKCM2FHUOV4ilFw0lDOidpe7CGSnoxvbYJp0GaKm1NHEOwWCk90iYSs6EpBLEJptUx6pgDnmL6xS+HzHj/h/n8sL+t/X3vmdmTuH2/ILQza6+115dnPc+znrXW+EShUCiAEEIIIbHi/6x2BQghhBBSfmjgCSGEkBhCA08IIYTEkNAGPjPchqo64W84G0W91gBZHK87hIncatcDyE8eCtbPORmddW2oqksj41XWIzRua7W+er3q2tA56SIki2nTXDm+GLT0HCa6LfOsrg1V3TLyDuWay8/iuENalU2Wfd4BCPLk0s6o0yPEb06J42vrF7dn15iMurE69bXIm0d/2vCUd285to2jm93yfIeC2fbZdWyp6dbnyjEfQhh4RXG0YhArS1P63zQWXCtKKkkOE0fSkCvwJm3SVFIhB0abqFEqr8U06vtv+9ej3TwaQ+2r6TDeRs/OEP2Sk9G50yxPcn+XofCiTl9NcjLetY7vXBr1EcpUvOdUDhPdXeiZE76KuD99OX3Ywel1JzPchtbT4jcyWgUnpdR0ncW05bnSCGjgc5joPoxbA2NY6a03pTT2ptBYvvqQIslPDpsnUITc/dnHuK0i+d+WK/eODsXZHd+dtDyRw8SYYrqkgTHFEe4AgNvoORtOqfWdMZzplVEJCTGxOYWs4GwfaBATazEyq6WNYaRZ/fr0WZtSc3pH5qxqfNU2ZgdqAQBDY4pSijp9tdmkjtvK0hRWzkjKl6ejW8zEek4tnld1k4TppSmszKYgAY6y6ImnvPvMlY5B+3g6zUend+RkjJ4GjDk1iD4AmEvjy8UypOtkcby9vEu0YAY+l4E8J6HbpsisWMODYhhCDXkvGmE5xVsV84jPK6GX44tC+nAW5pCMxQOzhFkMb9ihLJ+QZefkPVuam3ethPtkNb9WriV0ZPJWLf1k9eRM7Uhj3qfX9RVHh6QITkCcwsz6d2KdtPp0f4XPuw1PVO7vEsbMGiqzj2WgcLUYtu2WcdejztZxzAy3GStrwUP3yuOMPcyt1df+Dqe25HB3DgBqITUpc6Zxh6pU7txDXhhfsdzQocvAJLFnVFUquA35sp9WzeHuHeX/+nYoDn2i6QVFKc/dx93I053r5Cpfi2lUdcvIiOPsGYL1mVNJCQecdF3zOlR75UO555Rddg1ZK9+ccgpPu8u7Onc88tj6RHeItymLwWQjpGYAuI27D4R2aP0j1DeSiE5DSncoAzltD+4rzmjzC9ieBIB6bO9Qkm79lis9XSUzfBhDqEVfR23JTdQIZuAf3IfsK9xZHK9TV/mq95MdWLaEIW6jZwz4UPXi0N+FqroFbNdXGTJGLUZ0qF1LH0Tf6cOoqhsGjqjbAx1mDyxzEYqHqHppcv950+AZZal5j2h1U0JI8otG3bt/TmMoUOeonL6k1uso9iSt5Y1h5M5hQ1gXFwDd2xxEn+jJLaZR1S60Y3YdZM9wcBbHd6YhQ8J077YQ9T1sCjNr4dHE7n2qd3kJ85rhvKh4lX1dO/B/3epQZwnBCSGozLA1zQVr2HYujVZL2+0rndvo2em+nxU6T05GZ91h29gPtYdQNrl7uAUAqEG1k08sKJihMRl53cOXMG1ZeQy1e+xRz6VRH2BPT8FQKvLP1jlmfYfhoFQ/5djAiNOdsmRwV5xPVl0xl8YoetU5k4J0WpxvYeeUiLGqkl5sNK8KrZR1TlmMq4q2zVPOOeW0QvfbTgqTR5t/0jNOk0FwPlU9qEV3pIEx8yrdR94954oF3aHEMu6Kjzq8Q2/rhvWO419qOqA4cq2nAWmgF68+41n1UJTvFP3iAoaaU/hQ8HwTu/ehTxBqoBYjR1QFpnpx0sBLaog/ie0v1tqUT98ZbQtAVVAd+7BHfUXjDklZEanPmrYLGrahzzJ4RllA474UJG214BChaOwdFFbDSewZdQrFCgj1speXxJ4uCUMXVWekISUIrtIuzZPLXJSFPgGQlPDhgJtHp2ydDKEWI7Mht0qEUNS0qviV+mmGQFvpZTGvGp/tDUo/aM8r4ecUGhcXFIOol6mGhE1jb36nNbwGAPnLl1RP1143jcZeIQynhbrUcW7sNUK9SkjuKPYkvfMEqYNojKtt73Buix+J3b1qH6VRrypgUT6JBdOq2kFXiLonKaG76DklIDp7HYPe81+tQ9nmlP6MsdWiyJ0lAlOGOZXYfVSYH9p2zm3cfeA+p7zyhKceB9Sw+VC7Gs2w2JJYo53pCSJjIfldoKeeWqcbQ1cP5LdlYMM2S3oS1c3qoNvqnUT1BmDT08EbVP1MLSR7QQa2gzu1GAlSsBqh+DBwTQKUBxlynWU/pXkd8qhHwuHQiTQAaKHRTTsC9om+t6UcoOrRE2S01i1jZPao4XRYEbzJ6mcUxaHRuC8F6XQa8ncZ5J++ryq4ba7GR/dQ59Kor0vb0vXy9PRax7rpnr6wUrLWzX5YxZ8weZzqkHi6xlSH4KiOh+MYKE5fz5wqI80pvOqgoPvOeDgQzSlkrXuNrmgGw76Ssr9DMyBucxcVSjdjG8cO10cFQs4plfzkIX317DkGImWcU0YUyDq3LeWVYU6JbQ1KMXkUh8xlHBpewkizrOvEvi4HufaR98DjBMHx0aJsmmPi8A49An3nnqq/XSgq/X/18zo4fRhVgnzL/V2o+nnQdu4tDMFW8MlGSM0y5j1ClImna0yraYMQYbhSyMno3Hkf3baVWgAEB8YoT5tgRfDUOkiWwxrGwQ/FuN/tEm4i6IpKcXrEfRkgogM4+ljlMP+dJYSmroAwdwnvjskAajGyL4CQ2dqsKpykhHGLp29sj9iRv8vY6qZ8VEPZ2oEZ7bCOFyHzKMpPrEMRh4yEPUZltSUcutMVrfEdAGAujXcjO0GtRXoAIMhZGiOcr0WdjENx29AYebqdzHAbRp8Rt/+C7lMWMaf0U/TKobDAEZoo5pTpsOSUcaizXHMKWXzZf1uYu0H0Zrg8+vkTbb9bOHS3Xetb/TuFoXa/LacSEG7BmCI7LhjnQ9SIpHBoTmpKlpj+/yJooEHAEL0aYm63721khtWBaNiGPouSyk8OowfawYKIsZ4T0MLGQUiuxyaY9/R0hQPA75CdvbxGSHBT2DncnROdHmNlBSgGxnR2QBcGBxpSZgdCn2gSppc8Vu+AsNekRRKMA2GANilvQ56DcDjEjHYg6K6+xyjuXxn9Zdz/FKIWDvtRuiKw1c2CeritaqfHtUDtQNDDEHkgTmajLfpKzmlV4YgSQga0PrL3sb6H2jGon+q1nhkpDfVanKUfnbYBxL1Lbd/RUMpKv2krZ+1QXNTpZtRVuB7tsxopb0LNKYirOxmtroeGHSjjnMpoDoFpHI2DaGWfU3q6/fyJjvVqWZA8gLpdCuj9qZ0U15y5nIzOdtXpmdUcFvt5rJLQ5r/4fqdtACcdJjjsPTsFHaKNYUnpyhaNqMc151VyuLUWluB78A0prCwNYlN/l+nk5OgzL+l75Acs6fXfvRAihFgiDS9hBMLgXESIE+X2us/vCBEBsKEcHLH2lXLopx6vDkCYtAumUGNi91HlcKKW7wjQHXi1EoKOQdNeXN8Zi0PQ8JJ+tcpq2Br3WVfBSv8F7q/mFLJOgiueblXraPqsKz1AUQb2d+oHmjSe9M9jIilh3NYWZRUVZq9dGUdx3IwQqnagRl/FNaTUsXC5G1sWQq5GG1LCdSIFUwg06nQTxgJDmTPDuLsh+JwIO6eKjpiVdU4p+9/W/XJXip1TqMerwue+M8KVShXbnAqQx4yDfujQQs/aIWGo55iS2HNE6YsofxdBGhizX6VzJYk9o5Y2mkL5paZHxxP81+SII/oPtUiYXuLhL0JKhnOKVJhgh+zI44PlF9iC7FERQjzgnCKrBP+xGeKKNDBW9msbhDzOcE6RSsIQPSGEEBJDuIInhBBCYggNPCGEEBJDaOAJIYSQGEIDTwghhMQQGnhCCCEkhtDAE0IIITGEBp4QQgiJITTwhBBCSAyhgSeEEEJiCA08IYQQEkNo4AkhhJAYEuhfk/v+h5tR14MQQgghAfjj1j8Eei7wPxf7n/X/UXRl1grXsv+MRTseRzh2hJBSiIsOuZb9Z+BnGaInhBBCYggNPCGEEBJDaOAJIYSQGEIDTwghhMQQGnhCCCEkhtDAE0IIITGEBp4QQgiJITTwhBBCSAyhgSeEEEJiCA08IYQQEkNo4AkhhJAYEvi36MORx9SBN/H2Ze3zszg2PYg2zKCndRwzDjla+j/D+/gEWwd+j6+vdOI5a1k172H5rbpoquvC9U/3YuzfP8PIrkRF32tH6YN7fz6HNzavclUeEa5/uhcvfyF+02KRq/A8vHAYW399JSI5XMKJLV9h/fQg2lZb3AghDjoEOHjqHN7AOGped7JiwMFTn2H95w72Kq/Yvo2nKqvDIzDwSzix5QPg1DksH1e/ys9g6l8ANrdg5EqL8t2NcdR8vg4/HG/Bk3rev+LY7JsYu7DLMKo3LuBtdOKHChv3VSU/g57W++gq0SA97rT0G87ZwwuHsXXLeMlGnhDy+CDqEINOLF/pBODi9P93J75t/QpTfzKc9et/Hwf6P6v4Aq38Ifr8A/wDLWgSG5JoQVughiXQ9t+dwMAnmMoDwBJOvD6Dg38WnQBCwvPkrr/iWNMvuJdf7ZoQQmJNogXv9wNv/20GDwHgxjhe/qIFXasQCS6/gU88hY2YweUbxeZvQdf+n/D235fw8MJX+Hj/e2s0LL2EE1v2okb967mgWY48pg7sxYkbYvph1WGB6Rktr/Ks+syNcdS0jmMGM3h5y17UfLrk8k5rmcSbPO5dNv5f7P+aLeO4DiiRE+3/9Udn0OPa12YZqLHmvTEupIkyYq9Dz4UHZWwrIWQ1eXLXKzh4eRznbuQx9fkMDp5anchhBIfs6vDGdCf+8bqDwgvIc2+9h4NffKDsx6/J0LywDXHlHJavvIeNetRB4ePXf0TTFSX96/0/Gd6cup/+7c7P1Lzn0DT3AT7WMm7uxPJ0J1rQgq+vnDOFftzLJH48vPAVPm5qxrYEgPx13NP7/zMca5rB2IU8kHgO/9Vkdk4f/jiHmf2vOOyLKzLwj35jHH/o/wUvHzDG5PoclDG8cg7Lp1owM3BBnQ92Gej6ddyQAULImmBm4E13B96TOrxxqgUfv67sx6/WIjWaU/SJFoxcOYflU3BYhYZhjYZUb/yIj5s6sVcftDrs7Qe+/dGorOixPfenTrRcvo/7AJC/jm8vm8M1z731Hg4GeK1rmcQRcXJunW02znskWvCG3v8JbNv5LGZ+zQNIoO3PLfj4c8MZW5j9CQebHZxMVQbeF8ZR8drnsKCKwXNvCV775udxUJPnEmSAEFI5WgQHfrnY8zvLD1ZtIRbRKXqVzZ1YvrILUwfeRM+F4KfRr3+qrIx+wCfY+vcltK2xVfzDe78Al2ewdcu4OWG/YiQ8+dd9zDStw/uR1Y5oOB+QUbCdkN2v/nfz8zh4+Sss5FvQhuv4Fp1438H7fnjvF6DmecvZkATWN/2Ee/+CIgZ5662RZ3EMoAwQEnuWcOL1X3Bs+jPgb2/i3I2WVVnFR2vgAWgrpLd/DWD8AP1AwtdXEngSr+Dglg9wonltXQ97cv3vgf1u16UChBzUlbduHPIP8A8A68tWQ+KFdv1x+Ypwwv5XLbUOTft/wtiPeWzDHLDzr44HPJ9c/3tg9gEeos6S/izW/xuEmxDnMAJAuwYHAPi3dXr0hTJASPy4/ukH+Hj/e1hOJIA/t6Dm9XE0rcINnghO0c/ghOUw0cLsT2j59yCrd/XUvB6K1vYxitvLj4zNz+PgFx/gRDEHCTc/j4NQ93xVrv/d+bcBSBTkcW8Z2Lg+oX9emP3J9MRzf+oEZj/B/wz83v3k6+bncfDyOP5HGMeHFz7B21D3+dVV+jot8caPxh67ehCVMkBIDNEWqdoCcHMnvt4/g5eL3qounvKv4BNPAQNvombA+MorVGqQx9QB1esRV+ubd+FY05t4+dPnK/5DN4C6j2tri3KQsKd1L2r0FPXHfHz9GC2vUe7BU+/h4BdfGY8kWtC1fy9e3jID7H8Py2/xl0/Kh7LPXvP6XtXgPouD+5+1PPIc/gvjeHv/K+rq24k6vHHlPZzYIshHU6exz795F47hTWMbZ3+LsMduz2uTAULIquOs/z30cX4GPa/P4OCpc6bV+nN/6kRLa+Wj0U8UCoWC30Pf/3AT/1n/H5WoT6Rcy/5zbbaDP2zjS2XHjr8cSEjcWLP6PyTXsv/EH7f+IdCz/C36VSePqb+NY2b/8zTuawQl1C7ekiCEkEePChyyI2asv9MPNQy/tm4KPJbop95b8PUV/noiIeTRhga+4iTQdvwc2la7GsROQvi3Eggh5BGHIXpCCCEkhtDAE0IIITGEBp4QQgiJITTwhBBCSAyhgSeEEEJiCA08IYQQEkNo4AkhhJAYQgNPCCGExJDAv0VPCCGEkNUn6G/RB/4lu6AFrmW+/+FmLNrxOMKxI4SUQlx0SJgFN0P0hBBCSAyhgSeEEEJiCA08IYQQEkNo4AkhhJAYQgNPCCGExBAaeEIIISSG0MATQgghMYQGnhBCCIkhNPCEEEJIDKGBJ4QQQmIIDTwhhBASQyIy8DlMdLehqk7565zMlSGfOa2qW0Y+iqoHrk8J+RbTRjvq0shYcucnD/m3MyejM5I+CN/PmeFDmPDsGkuZdW2oGs6Wsc7+74xEBn3bUVwdMsOWd9S14fiiy/vrtL53SnOoX05Gp/UZcYw9ZdOvPVkct9XZIJBcB6pH6fkywxHVwat/TeWZx8dpzJ3q5y4bQGl6J6isqs9FIPePh/43z5HI21EIwKWFG0Ee07n60a5C8qOb6qebhWMbdxWOXSsx37WTpjLMzwZjTbRjZbrw2sZ3Ct+sKB9zE+8Ukn+ZLuS0zNdOFpIbTxauOpYlfLdxlzlfuQjRz1rdr06cLHxzbbrwmlBvMzcLx4Q2F8OaGLuQ7SilDq9NOL1kpfDNX9zKcEpTvhPlSZE/l3HykU3v9ijv0uttKSuIXAethytB861MF17zmz8l1cGlf6+ddC3DacyVeW6WN3fZKE3vBJbVaycV3eOhe6n/g7bDMmcCEqYdEazgs5g/XYuRffXq53q8OlCLoYt+KzaffA0pHGgwnm7cl4J0eiG4Zx+aaNqRv3wJcsc+7EkqqYnd+9A3dwnzqpOXuShDGngJjWpuazszw21oxSBWzkihWpMZtq+oHAnRz4ndR7FyBBjtl9EzBny4lNLrbacG1clQVS6BiGQQQPB2FFuHcpLEntEpTHfIGA2w+vCWTZ/25DKQ5yR071YzJyV0d9yGfFl5r59cB69HsfU3yJxNY1OH9/wptg7lpLF3CtkBoOdsEJkpRe8EldUcJsaW0ddRW3Q9is4XE/1vbkcS21+shfxzdEJVfgO/uICh5hewXVCCiaYX1MFQwhO2kNJw1iefAw/uQ25eh+qyNyBIO9RQmRCmUsKPaWQ88+Uw/91t9O2oNxJRj+26IlSEQ2oSMicbITXLmFf7rLF3Ciu9Yv6I8evnB/chd0jom7uPu27P5O7hVjS1cyaSsUO4dhQ7DyKgcYcE+buMTyjQRzZ9+kYxINtMDp7xXn+5DlqP/OQhhy2FQ5jI+c0t4/nWOym8uqP4vnCvg1eZxeGpA0VK0TsBdW9+chg9G/bh1WeKrcfjrv+tZPFlPwRnoPxU+JBdPQ7MpnCrXd3/WTyPHqSQDW2wcpgYkyG92IhEBLUMQmPvGEbuHFaFVR2oWa8V7KOIXz/nMDEGTPem8OrAss8qUUZrRffP3Clt7MrRjnLNg4A8tQ6SyQET2hBqb3H1Sew+iukNabw7mYMmn31njuorU2+yON6+jJEjUkl6o7Q6hCS5HpuwjLvCEMn9XcWdTyiFnIx3+2swXZKMUv8D4jmKBWxfikhuVH4XXdEuJCV0d7RhdHIdNvUvY2Q2FXKQcpjo7kLPhkGs7K5YzNeBJPZ0Sagak1G9IY1bA2M4kATwYBWrZGUxjap22fh8ug1DAAAJ057hdCBYPyexZzSl/O/uoxh3KyopYXzJCIlmhttQ3w1kR0tTtMVT5NiVsx0+80Du70JVv/bJPF5D7do4AmhOFfF+p/F/dIx8474UsPM8JrCsyGeDfx4AyAwfLts89a6DjNY6Y95JA2MY1+bQXBr1dWk9re/MlCn0HARTeRUhh4kjaWw6M4VGoDTnnPpfjcIC2oG70QjHs3IGXginNPYOYlOdMNkC5kNORudORdCCTuqyI9anIYXpDW1ovZNCttenIWo+tzD2pqeTcFeytah+qoi6NqSwsqQY4MxwG+Z3BFQmEfdzY+8g+urOYj4nReq92ihx7KwU1Y6A88BLiYc2Cmo488MQWUQU2XTBL0y6Yb2HAg8n13o9khI+HDiE+v4aTC/5r/42PZ1EfvJQsLEuSx08HOiwDlnuHm6hxhTyDUUgveOdNzPcFcqR8ioLeLz1vxklotG58zwyu6OJ/pY/RG8LB6r7c8JEz0+exa0OCeg/b4SX/PLlZHTuvI/upfAeb1TtQE7G6B0JfUjjy8Ug+ZKo3gDc+s18bWL+tKbokqhuvo27oheYy0Ceq+ABtYr1c4RtimTs3HBpR7HzoOyoIeQuP6PiI5s+7Uk8XQPcuWda3WUuypCeSSKcXPvNEeXzl/016DMdHvTKp+xBK6tnNTzaLqufnfbOi61D+cmcTQPC4URXStE7nnmzmD8N4PRhfVugvv+2+tlhe4D6vwgdEiHlPpZfKPhfE9CuZ+Qm3jFddfDK53U9JCjlvSYhXJmyXI2J+pqc/lyIa3JXPyr1ilYJXJu2XfVZ3SsuRY5dyHaUMg/Kc01Oeaepjo/8NTmxnZZri2GutvnNn5LqUI5rcuoVR8vzq35NrmCX11D1eMz1/9WPRNlQxzhCXRiJgTfu3yp/ZiGzKwWjgS75CsLdb8tfEKNV9nY4DExu4h1Bgbm3o1AoGHdJXe7iKmXt8r5vGtLAB6Uc/WxDbK/PHVo31sTYhW5HcfOgFANvHjeHO/vaHXDTn6B0PGXTR641h8Ll3YHk2qceVz/a5eAQWx2JAL8TEWT+FFOHEgx8kDnn9JwhK6XoHb+xNfAz8NT/7u0wzYEK6MInCoVCwW+V//0PN/HHrX+oREAhUuLSjscRjh0hpBTiokPCtIO/RU8IIYTEEBp4QgghJIbQwBNCCCExhAaeEEIIiSE08IQQQkgMoYEnhBBCYggNPCGEEBJDaOAJIYSQGEIDTwghhMQQGnhCCCEkhtDAE0IIITEk8G/RE0IIIWT1Cfpb9L8rd4Frmbj8YwOPIxw7QkgpxEWHhFlwM0RPCCGExBAaeEIIISSG0MATQgghMYQGnhBCCIkhNPCEEEJIDKGBJ4QQQmIIDTwhhBASQ2jgCSGEkBhCA08IIYTEEBp4QgghJIbQwBNCCCExJCIDn8NEdxuq6pS/zslcGfKZ06q6ZeSjqHrg+pSQbzFttKMujYwld37ykEs7LX1QsX54FKmADNa1oWo4aySbxtWcnhlus6UdX3Qp01qu27vrDmFCr14Wx21lG7jLVKl5A/ZzTkanpexwfaK1NWB/qe9znStFz0H//tJZTFvGyC+vOc0uA6SyRKFDLGMctf4uBODSwo0gj+lc/WhXIfnRTfXTzcKxjbsKx66VmO/aSVMZ5meDsSbasTJdeG3jO4VvVpSPuYl3Csm/TBdyWuZrJwvJjScLVx3LWil88xexDsrn1yZWQrXrUWRNjF3hZuGYMHY2rp00j6WlXOdxso6p8Z0oB87PmdP08i0yFkSmissbvJ+vfrSrkLSkhesTrzSH/lqZLrxm6j/x8dLnoGt/2eokpnnnzU2cdH+WlMya0CEmO1bcGIdpRwQr+CzmT9diZF+9+rkerw7UYuiinzfqk68hhQMNxtON+1KQTi/YPO/yEU078pcvQe7Yhz1JJTWxex/65i5hXnXyMhdlSAMvoVHN7d3OJLa/WAv556Ce5eNCRDIIAKhBdbL8NTaTxJ7RKUx3yBgNsmrIZSDPSejerVYsKaG74zbky0peT5kqJW/Qfs7JGL0joa+5mL4IQrj+KmkO+vSXzuJ59GyQ0Cd+55M3sTul1wlIYk+XBPm7DCN0q0Il7Fj0+rv8Bn5xAUPNL2C7oAQTTS+oE0QJTxhhKTWUMZz1yefAg/uQm9ehuuwNCNIONbwohNCUkF4aGc98Ocx/dxt9O+qNRNRjuz7JFeGQmoTMyUZIzTLmHcOAWXzZD0GYCICIxg5A7h5uVaoNABp3BFPwisHaphskc15vmSolb7A5m8PEkTQ2db0U3Vy11duL0uagd39pZHG8fRkj+7aZ3hwsr/D8b8vAhvVI+DWclJ+odIiJ6PV3hQ/Z1ePAbAq32tU9r8Xz6EEK2d6wDcxhYkyG9GLjqgl/Y+8YRu4cVp0VdaBmU6bJGxVD7doezmHcGugVvH4ShNLGTkZrpfbPnloHae4+7gpfGWP/aJy/yE8Oo2fDoCn6Fhm2/hLGKtQeamlkhssxL7P4st/qiJC1Qik6xDh7soDtS0cj1d+/i65oF5ISujvaMDq5Dpv6lzEymwpppHOY6O5Cz4ZBrOxeTcumhNCqxmRUb0jj1sAYDiQBPIj+zX1npnSFqXiSg1gJ7SQ9zhQ5dkkJ40uS/jEz3Ib6biA7KhkyPJdGfV1af0YcK7m/C1X9WoqE6aXwDqFYnsaaNfI5Ge/212B6qR6As3H16pOh9jYMaUnNKXM/B8KpjyM28otptN5JIdubLOFdWRyvO4xbA2MYr4RjRIqgeP3f2DuFlV5AO3A3OjCG8YhsWeUMvBBOb+wdxCZVgA/4tUsMw+dkdO5MY9OZKaysluCL9WlIYXpDmzCh/fPddUne9LSXQqhF9VPOKfP5RcYAAALNSURBVI29g+irW0Cmt74i0YNHmhLHzorS92cxn5MML9zDEElhJ7K6DfVh8BxmPMO7qkz9VkJeN2XWvA7VyOK4Ole95NKrT5ycGU9K7K9Ac9Crv3IyOtuLWLSIfb2YRlX7MkZmp/x1I6k8ZdUhSkS7c+d5ZHZHE/0tf4jeIayYv3wJsiDE+cmzuNUhAf3njX0Jv3w5GZ0776N7KeSkj7Ad+uEhpPHlYpB8SVRvAG79Zr42MX9aM+BJVDffxl1RceYykOc8DnZVeF/4kSCSsXMjqkN3yjZUX5f/qjXxdA1w555pJZ+5KEN6Jgk/mSolr2d/LS5gCOKWQhd65tTPkVz/Ctpfpc1Br/7KX74EGbfRs9PYQhtSP3dO5nz6GopxH1uHbMRhWxKAiuqQCCn3sfxCwf+agHYlJTfxTuArN+5XaoJT3msSwpUpy5Wcyl2TK+664KPImhi7a9Om61C2vi/bNTnlveZxfbSvybnJbnmuyTn016pfk9PqFfSanFebSTlYCzrk6kf2q69RXveOxMAbd0Atd19XpguvbbTf47ZOHlu+gnGP1voXZkKUrR0OA5ObeEdQCu7tKBQKqgJR0x0MglKWmu6g5E194GJQ4saaGDtx3GxjUyjJwJvl2utetZv8q0bOJb+7TJWa10fWLc+Vy8D79peqa8zPCcq16DlYKPj1l/k5a7pbXufx9S6fhGEt6BCTXDnKVnnb8UShUCj4rfK//+Em/rj1D5UIKERKXNrxOMKxI4SUQlx0SJh28LfoCSGEkBhCA08IIYTEEBp4QgghJIbQwBNCCCExhAaeEEIIiSE08IQQQkgMoYEnhBBCYggNPCGEEBJDaOAJIYSQGEIDTwghhMQQGnhCCCEkhgT+LXpCCCGErD5Bf4s+kIEnhBBCyKMFQ/SEEEJIDKGBJ4QQQmIIDTwhhBASQ2jgCSGEkBhCA08IIYTEkP8PoxiRsQf5P0cAAAAASUVORK5CYII=;rotation=11.8;" parent="1" vertex="1">
          <mxGeometry x="118" y="188" width="185.87" height="52" as="geometry" />
        </mxCell>
        <mxCell id="FVQ36FpUcOlVYUAiSAkq-38" value="" style="shape=image;verticalLabelPosition=bottom;labelBackgroundColor=default;verticalAlign=top;aspect=fixed;imageAspect=0;image=data:image/png,iVBORw0KGgoAAAANSUhEUgAAAhsAAACPCAYAAABTTxnBAAAgAElEQVR4nO3d/08c17038Hev7u/3p+yia5vcBpSLZLx1uKsktqCWhWQqDUYBVbmVha0SRDfQ5BExCiIV5LrBqpFlYnTTgDcIUREraqMELLIjFT9CflwQzpc1sddUohG4DcbV7vqP2OeH+XZmdr7tlwFM3i8pUtiZM3vmnDNnPnPOmfWPcrlcDkREREQB+ZfdzgARERHtbww2iIiIKFAMNoiIiChQDDaIiIgoUAw2iIiIKFC2wUZytAUVteJ//ZjN7HTWnlKrcVR0y8ju5vfXtqCiNo6k63aXfawyMjprLW1CO0fT8dT/RlMA7NpRi23Z2O03tqp/OWa7jc875ywN0fV8SkkrSmHMlKcCWMqnmGPo5WMtu7yyF8/BfO5ivbh9h6mM7Ordppyyc/0256iUWV79W87DmjavjspKKZOi6nGPyc71u9anUnc+r29NufuGQvsNm/tMSX2DpQ1a693U9hz7bPU7vK4dt7pwUoa+QTwHt2vHfT+Ha9VUJn72cec4siENTyK9No/02jxSw0BPY4ENl3ZBCmPnNjG+OI/0WgxR6+aMjE59+zxSw5to9t1YJCTU9pBem0d6QkJI29QQQ0rc1hcxUgntKL02j0R1HBGbTsW6X2+d8nlytAs91RfVzy/iyFCXcVF6nE8pac0i6BXy5NtqHBXnZNNHI+f8B+5aB9E8bbc1hTHLsQHZvT6nB+07pNW4/Xc83ob1G8yUjjgytO66l5PsXH9eWnmoK+CAY3ckR4MOpEoUVN9QSL8xU4WexvxyKqpvQAaz3YN4oKVdjOGBeO2txhEZqtLzlqiOI2IXMKzeQM+S+9lH+8x9ni8l9g2KDJZvGtePfDPpGDD5289iKY6IVxvws4/K1zRKqLUdA9jE1h6+VghA5hEeoAqVYfvN2ZXbkDva0aZuD7W2Y2DpNpZ3sF6jfWrwet3Pk0AKy9M1GG/XLuQIzgzXYOSWktb9fEpJWw4ZzE4qnYnWWSY6AGDd57lrajDQUWO/qeOi0QkvxiABgH4OYbRNGB10alg5hvzQ5qkmL2gxM3f2QhCrd8Q1+k3KuBkoAZop0OxQ972g3HC2Hiod4MCMVx4paHuhb0BdDOnFGDB0w8eDrfv1jUwS8pKE7lb1hMISujvWIa8oJ5S8JUMafkVvy9H2GKTpO/kjo5Obztdf0crUN2jXX4eEAUC49ovcT7iOtWsRS9vYKngfe0Wu2bAM0YoRoWXoTIs0tWE/09CVNZK0Dq2ZtqcwVtuP2VXx+OJoi3mYxxQdm45rjm7thwvthlvFz6xD1E6jPmqexYrNm2ZxybdDvhzPpTEOGTKabYfMleh24KQYgUdQr16A2bl+c75W44FNn4WOn7C5sG2s3sFIwwnUC8GTkdb9fEpKm8faHvzUWQZb6o1YOq5kInpSUjZtPEJWaJPaca3TJaHWy0ivXcaZ5+wKJ4Je26cp+2BTu7FLz5k3JkcHMeIW0AA48qx99Jq8pXWYffpNypE2eiLc0CqfU77zwfeWJ9nnPA5mN1UpfmbpR5yuqfypCJvr3qnvyOPUJyifN08rozbOx7AMU7tOmcWx7JF+bMW6rR+zc3GH6bS90zcgHIXUIGPZa0rB9frWgqdjptHd6ElJfapXAhXtunT63uzcKHqq2x2uP3E/sR3tTN8ACNffc6+gXg1W7Povv/vZspRh0fvAZ7CRHB3EiN5JZDDb3QX5lPa0M4nxjUHjJnwhjiMz8/rQVr14oOlBvIM+Uzq9MlbjqBCG8fK2AwDW0TMJXNK2N8ho1tcHCENma5PofhbCcWEM5c1UoeeC17BPGPWnhCgZUKJDxHCmDkAmiS3x/BtkTBQ1RJrCWO0gIJTXkaFRh4tYKXdj2FAbdlQ7NfWpQNKGLQsc1gu1XkaiOo535jLQIu+BmcveN5FihA/hiGWkTOmIC5wv3iWObU2UeYQHAJxu/qiL6U8GI5MyshkZE9MAICFhGob2Q7nuZMB84QuBv3Kjv4ipViMz2bl+NE8rwYJdh5r9flPJ3zm7eeUUlqcBoAbSs0mHBwAhf5MyAPFJVG1zHUbdR4bWIQ1PmvJoq+6Y5albba9dSrklb4nXuwTZ15OyjUL6Dsc+QRlhSnRoT7EO19TqHVM/MLAUxydaWVvzsXgQsmn6ydqPTKLyZtwyBbaOnofH8qY5/djRvgFhVFabA9Bd6RsyMt4ZqkKiwLLaub5BuP6Oh/VgJX+KxO9+ALCOnsYW07WY31b87GPPMdgQK3j5pNBArcNTCKOtSzLdmI2GEkFUnOc2dXZKOu2klWEt8QnJvF1hDMFq27HxSN9uDL+GEa1TDmQdLkPdKxiH2lHVxezXNiD/6Tt5S4Z0Kqp8d1hCr3Ae9adqihv6Xb2DkQY1gAGgDAXCPupUy93U+OtewbifpwCfou3KEObs3Ch6qi9a1iioIyZ2EftSHJESFzo5DtXvUXZtrVCh1j6MN0Apv0bl5jAwU+i5pzBW26UMkzbEkHK78KcHjbpZjSvrJSwBiJf8eeV19JwTb2w260a0YVzLk6jdWhHZNO/uxDIKpV4b9Wp7jfYJZVh3rOgpYNe+w6rUPqEuJlxvEdR3GP1oXj7CEi4NCyNRef1IGG0X1Gk1nTnQK1TRfYPrNn92vm/QHpqL+64d6RtW72AEMK6pumP2UyR+97M7j6Euz4WvfvbR/KvTBv0JYzWOinNx1GuV/HgbMmTItZZ53oaDyCKCtolJoLsLFUNQ5pTdOr8DB9ULIoOtDeDIyXD+dnU+yOtJL9o3j8RoCypqoXS6ExJC6nHlaTU/goHHANzaQVhCd0cLlldjiNalsDwtoXvNSJActSzc6/DIoI3s95vAkoxIbdy8oSOTn7nH25AbDuKSOZOorAbk7zNAkY0aEIbJwxIuDferC6es9SYh4XSh6+Xtk7q2pL7YLDccRCXgOE/oNOxfclqVfVtzotzooraHVQLmniX1WjLdMHwQFpnZjgiEJUytSaZ9R87FUb/2CrbUOWNMD6JCaMfyUBcqHirXbaj1MtKt2hZ1ZG1Jucm3tRppBmbUdRpafizXrD6MqwXrAIy1IjUYX1SfkjMyOhvjGJmUccajPUXbY8CFJLKtErByGxjuM4/oNIoBUA3G3crRVuF9R2l9gla+xifSsJGPvL5RkP1+E6g+VuBomD8l9w2u2+x4n68r9fp2VH3IpZxqUHlAWHha6IJw7FzfoF1TyoOeeP/Qrs9wQfsp8q9FeXoQYyfFxfF+9rHnPY1SF0Oiw5iuwIGDkKyriE2rjI2FaQkMukc9+mr3/KEznVfjEUT71IUrp26rK2SV4w7MWPLq882C6El1xGb1DkaE4enkaAsmnhPf1iluAVHo2SrzIj+btzl0QuBl5ecGaV/Gytxl5QHj70+GqjDQUey0kD/J63FAfFJzYnPO2ZXbkKsPIeR1PqWk9SG/rVmEo5AaAGN+VFgUpt90jc8AAEvaULUf4s16vqDRieJo88xae4uo879ezMO4xuG0oeR1bD1WP9P6Az8LzsJRSLiN5UwGyzdhHDsjo7NxG91rwpSEr/PL+4KC+o7S+gQl0Njqsi6mNfJh7Ru1NTiA2o8II7wAfLxJJNo7fYNputqN6/VtXybJW7K6HiiMygah3QHq6FgVKsNqe50e1EdjIkPr6t/+pnCC7xu0a8qeMRvgd7+d4WvNRrTvIga0IdhwFBKcOsUUxoTgQlsAppu+LgzBKp2lNs8aPSlBNq1XUIayYHoacpLB7KhRqaFnq4y8n5Qwcs7tNydcGlDdMQxM38HYLVlYPKVG3voN3vxakZnSqI1pEcvK/7pjRrl6URcwNYvB22oczdPG8LEXZSjUKOPs3HVhkZXyqhhmYujtc1s7Ugp1sdxGDJf83BzDErrFQBcpfDJkLGRzPZ9S0nqdg0Nbs2Qe9afUtyuGulChTXUIN93kqPpZx0WkZ9S5VL/rC7ThUWEO1bSI0fobB1q76ziGqOVNFfHmKM7Bmn/jYFD9PmG6Qp3/1dd06KMsrzgP9+rFo3W4+em1dSfur4uGUX8KkK/fgAzh2OoIoP6AopdTvtCzVYAwVZqdGzWNLLj2HSaF9AkO6ZfMN3bxJlH5XI25Xehz+KoDByGJazysNyofdr9vUBdantsUpspdeFzfypSXcJ/KyJjQF4WqU/9C3Savx9UFpflvUaWGa9SHQq8Rmh3qG/Q2bXmt2PpGmt/9dEJfoo8MWu8vfvax5ziNYhZB74yEinP9qFy8jLaJi9iqNQ8vKkOpYVRudClDSIA6jCQ8pXecAC60oEK9oKXhSUxpmayLIT0TR0VjC3ogbPf1xBZGJcRhIgmJNbXB1sWQGu5HpLbF2N33sH8E9R2DaN6IIdVnfFdbl4SKcy1qRbqt5FfmTuVGrawkJGYkYNI4fu9iDJ2NLajQ0wjDVNZjaVNUWvkWOkQZljA1s22UsVAOydEu9CCGlPba4kwVKhr7gcXLaPN7fBvyUH47sRuetO6n1X20bxLjwjnrQ/Ye5wOgpLTOXNqaRaj1MlIQf0vCqFttcaY+lx6OKCOI0zKauw965kVbvFkQr2lNL9YyqoshPQPT7wVYr1k9n3nD10rAU5k39aDlMYOtjRpI7c7Xf+j4CWBIWZBu5OkVjKPLqB/tdT87dTEkOlrQXKsFSRcx3jBoPC377ju8+4Roewxo7ELFkN31razViuh9n4QBYdRIb0daPhpiSAzXQH6ofb2EqUUI/UgNxmdikJa2nc483y70DXlD+x0Xkc6boimyb0DYcp+ylLu1bku9NtTvDL5v+DeMwByUG18fhdQQh7y0jp7rt4ENP/ul0NYHB37uL/7vQT/K5XI5H/uVLDvXj8jD9jJUKBHtexkZndcPYYr9BdG+4HNkg4hoB4UlTDk+cRHR04b/EBsREREFasemUYiIiOiHiSMbREREFCgGG0RERBQoBhtEREQUKAYbREREFCgGG0RERBQoBhtEREQUKAYbREREFCgGG0RERBQoBhtEREQUKAYbREREFCgGG0RERBSovH/19S9f3t+NfBAR0T7005d/sttZoD3A9p+Y/6/If+50Psrubupv++I8yBvrmvaT/dSe76b+tttZoD2C0yhEREQUKAYbREREFCgGG0RERBQoBhtEREQUKAYbREREFCgGG0RERBQoBhtEREQUKAYbREREFCgGG0RERBQoBhtEREQUKAYbREREFKgyBBtZzPe+iqoXtf8GMZ8FkF1Az4vi58Z/PV9k8eSLQVS9OIVv7Y71wVrp2SrQtx8o+dp9Shl8eG+387GP3ZvKa5Mll/e9KVT1LuBJWTKYb++0T9pz7Pra3gU8ecr6YNrfbP8hNv/W8OGL7wEffYrNMfWj7ALm/wngaBPGv25SPrs3hao/HMSXY014Rk/7f3B18Q1MfnEa46dD6n5f4C104ss3a0vL1tMku4Ce5m10fd2JF3Y7Lz8kxzuN9phdQE/zq/jwo0/x66O7nTGiYjThM5s+hH0w7RWljWxkH+OvaMJxsYMONaHFV4cdQstvOoHh/1VGQrCGD3+1gPO/FC8Goh0QasJvh57HXx9x5IB+SNgH084pLdgIHcBhLGCl2CHoUBO6zn6Ht/60hidf/BHvn313jz5ZruFDyxCkQpvyELer00g68zSTsq+6z70pVDVPYQEL+PmL1qFLt2NSuW3/4zv9/5XhZesUi930lvKZ/fSGw/SiztymrFMwpjz0LuBRGc+VSPfU9MH0tCtxzUYtfp3oxF9/9arN3J8/L7z5Ls5//B5eHv4xPtuTQ3fCVNHXn2Lz63dxWH8SULz/q69w/Gtl+2dnv8Nbv9NuHFnM976BPzf+Xk37KY4vvYf3tYRHO7GZ6EQTmvDZ159iUzh/52NS2WUXMPnx8/jZSyEAWdz5RwO+VMv+y6Hn8f4fFvAEIRxrfB7vLwkBYfZb/HmlCV3aELSxAfO9b+Ctqnf1et/86Md4q1m4Ru59ZWpT51em8KkayDz5YhAvLxp52PzlNt76OPhioKeZ+sCS90Dkbe/3wbQflL5ANNSE8a8/xeZHsHk6L8TfsSdHse99hfePd+JVPdqvxatDwJ+/MjJ7/iNjrvSF/+5E08o2tgHbm9ELb76L8z6+1vGYVB4rU3hZ65ybl/CzxEW0hAAghJY3jWHkZ15q0Mv+mdO/wPmP/6gHmk++WsLC2Zfy19qo9W7quI+extXjwijg0U7hCbIWx89CncbJ4s7id+ah7KOd+OxseU+f9hv1gUX9bzwvAPZjj/bBtC+UuEBUcLQTm1+fxnzvG+j54ve+G/u3H7yHvw79Hl/if/Hyn9bQssci6yeP/g6sLODlF6fMG85mAXic4z+3sXD8IH4bWO6oaOICUat7U6j61YLwQRO6AChBwXeY/CqLltPAnUXg6m9s2qttvYdwqAr486MscFQZQZnvfQNvrQjfMgQAWTxaeR6HflPa6RH5tdf7YNofyhdsAIA61PzWP3zciAHg3hR+/nETPvs6hGfwC5x/8T182LC33gh45tCPgbO/ME1xGHw8BmhPxXqSx/grgENlyyGVlbZq/+tPhTdVjDGlFxqasPCHb/HkJeDPaMBv7Zr5vx80RkMsmw4fMgKNR7803uL69oNXMQkACOHQ8e/w6J8QLqEsHm0C+I/ynSYRgKeiD6b9ocS3URbwoWluUBkCbvoPP6Ma6spnfbqgFr/+qAnv/6q4tR+BOfoSzn/8XnG/w3D0JZzHAiaFMvr2T1NYcElCu+vJo78DVQf0IOHJV0vm+jp6GlexhP/53RQOO63aD72Anx1fwM/FKUW1U1fe3FJHL/5d27iGFX1NhjICoqwT0dJ+YRoBISqPp6QPpn2htJGN0AFg+A1UDRsfNQ35mULJYr73Pbx/9l1sihH00dO4evwN/PyDlxxGEoK1YHsuyiLYnuZXUaVveR5X9Tl+N1pa47jnP3oX5z/+o7FLqAldZ1/Fz19cAM6+i803i5lrpXJ55rTydFel3vybzjahybRHCMcagbeGm9A1ZnMAdZ+Wsd8DvW+g6kXtM/F3EJR1Py83v4q31G3nhTUZL7z5KT774FVj6u7su/js7II68kFkZ0HpQ3T2v7th2Jt9MO1fP8rlcjnxg798eR//FfnP3cpP2dxN/W1vngd/xKvsdrqun3wxiJf/4TS1RlSaPdt3FeFu6m/46cs/2e1s0B7AfxtlR2Ux/7sp+zcY6OmQXcD/DANX/5uBBhGRX2VeIEpm+W8cKFMlvFE9fYy6PP/Rpz6m0IiISMNgI1AhtIx9ipbdzgaVAeuSiKhYnEYhIiKiQDHYICIiokAx2CAiIqJAMdggIiKiQDHYICIiokAx2CAiIqJAMdggIiKiQDHYICIiokDZ/tsoRERE5cB/G4UAh18Q3Q+N4y9f3t8X50HeWNe0n+yn9syHV9JwGoWIiIgCxWCDiIiIAsVgg4iIiALFYIOIiIgCxWCDiIiIAsVgg4iIiALFYIOIiIgCxWCDiIiIAsVgg4iIiALFYIOIiIgCxWCDiIiIAlWGYCOD2e4WVNQq/3XOZcqQzrytoltGtvSMlpCfEtKtxo3zqI0jaUmdnev3Ps+MjM7AykDJf/75quc1mgrk++zOOTkaxPfZ81XuNpKjzu3SdEyH+i4tDymMmY5v/De2qu6SkdFp97lD+rx6N6Xvx2zG/rhu9ZQcdT6f7Fy/xzVizbP9MQquO8t35H2P13af51fIPmXl0c8Uk87anr3qhchVzuL2nXvWj1x9c+V0LnzlvvrX/dzVw6dzV++WmO7uNdMxzPv6syfOI53IvXb47dznaeXPzOzbufDriVxGS3z3Wi58+FruG9tjCZ8dPm1OV0aZ2bfty/buNeV7Cyx3T651m859/rq/chcVWtd+yt2Otf6s6b65cjr32mw60DzYHkfPk3v7U/42vtM+T8L+gszsNeFzl+sjnci9ZttelTThw9YySuc+vyLsa82zbR6LKDdTOeUfx3O7mL/Xr+Wuvu6SRz/7uCi4PXv1M0Wls9SLU3l4KPhcaN8qcWQjheXpGoy3R9S/IzgzXIORW15Ppx7p6mLorTP2jrbHIE3f8R+tFyyY88iu3Ibc0Y62sLI11NqOgaXbWFYf7JK3ZEjDryCqpraeZ3K0Bc24iPSMVNDZJEf9PoWk8MkQhPxrMpid3MRAR035v9O1bsOoP+Wn3EvjVe5Oth6uQzoVRUhLd1ICNh6Znl6PPBsONA9mGcxOyhjokpQ8ZR7hASTUa+UbjkJqWMfWYyFJw0FUuh1r5rLeXkWh1pjweQT1HcCD7/NH/5LX4zjSYW2vKYzVDgIz80h0WFOE0dYn6WWKsITujnXIK/Yji+UpNwB1xzCATWw5DWA6bM+u3AZOvYIzp4Ce6/bt1M8+5eTVzxSXzlIvXuVF5KG0YGP1DkYaTqBe6JxCx0+oF78yZGvcgIRhedd0Nh5vQ3bsJMvAIz/W4X1leDGOpGu6DJZvrmPgpHgjj6Be70iVQEU6LiQORyE1yFhWyyzaN490nzUQKCOb/ANAdm4UPdXtOPNccF+ts9StazsoC/dyd6xrKMGFPHTDCAZvyULwkcHWRvB5MFm9gR7EcKbOfIwJbZoik4S8JAQfj7chO2Upk4QsHstNRsbEtITuVkvDWY2jeSOGMyetCSLoXZs3BZkuB8fWhlPQ5l5u2bl+89TFatw8FSTIzl3HiHCj9bc9g+WbgHQ87NJO/exTTu79jHOZePVPZl7lReQlwAWiEfQuxvDgnNpJqh1jquCbp/LEJT5R7rRo3yTGNwbVwEkdDViM6U9XT6vs95tA9SFzuWZkvDNUhUSQQY7xZfl1Gz6EI7v4BOVa13UxpGeAZnUOe+K5SUxZbrgj52zWO5QzDzrLqAYAIIy2iUlIN7uUPDRuo3vNkm4pjojduovH25CrD2Fr1GldhrDW5gJwyXpcpDB2bhPjF6TSrtPVG+gRA6QChFovI1EdxztzGdiO1AjnHrFr417bM0nIUINzy4NBQfvsIM8ycSOs03kHfcE++NC+96+BHj0sobujBRNzB3FkaBPji7ECO6IMZru70FN9EWnrU9SOCqOtS0LFpIzK6jgeDE+iNwzgsWfCnbMaR8U54bl1ugUjAAAJibwbg0F6TizXDGYvxHFkZh5RwHtxW5HfqX+Xbd2GUakN/e9KlTvUNZQn58jDdqTXYvrfFd0nkJqQEEIYbRPzaNMOsxpHRWM/sOizY/eZB506EnHJdFNOYaz2OioX55EOa3+3YHlGHVWoi+l518q/YvSicROZHsTyzDzSfcb2zjktoBLOT70JHZkxRiuSo4OlXxercVSc28T44uWiA/loewxovIFZbCptSyyfhphaV9o59EMS68dje/J6HDg1qfZhypRf5FYKvXXGTdjPPjvNtUzchCVMrSlTYsroWpWP65rIXjDBhjAsHu27iCO1g/Ydpks6ZGR0Nio3Pt8XR7mJ+amLIVHdguaNGFJ9Hieiptty2KwMETs99tag8kAReRVuJMnRFiyf9DtsbUiOdhXWGRX7nXuhbvMI5W5b19oIg3HTCLX2YfzmKJYzUn5AURdDoqMFEysZtPkOlL3yYFDWBfSZgndtqDstrK3onZFQYXuzC6PtQgxy4x0k+yLKDaRBnEZRAp6eySSyrZbRirCEqZltVEzKODMhAXP9/q4LF8lR9VzXCn0gAUzlFpZwabhfGZlYc7nBhyVcGr6Nd5zqJ297CsvTgIwuVAyJO17HbLsWkPjZZ+foU1F+y8SaThBqvYzEwxZMzL2SN5pH5Edp0ygHDkJa2jbdVLMrtyELQ/PZuet40CEBwly3Z7qMjM7GbXT7nuctkY/zQEbGxIaEAcTxyaqfdGFUVlsX0SlzzkrHKDzB69+RhLxUhcodvJblh1r+lI4S04P6MHpkaF39u4BX6bz4qtsiAy5ffJS7XV0XyX7tQal5MNYFlEwLqA8cRGHLkMW8rJunZ87J6t/+ppKSo8qUVHrCawrGzzWTwidDVRjoENauONh6uO5/++odjDTEkFqbR1r4LyGucfCzT9l59TPK3/ll4icdURlZX08p6yujwutk1lcs3dIV9Aqhg/K++no/d1V7Rczy+mDQr77q+xXw6us3V3y+PupxXMfXYkv4Ts+69Xo900Z5X331W9fW+ryf+1w8L69XBYvMQy7n8Jn++duOr6hmZhNCGuU1Y6Mu3P62vAapHtexHl3aVV79F1rfruUmvjotlKFdnqxl5bHdsd0K6fzs40d5X311KRO3dOlE7mpeey78VV6++kqakoMNrTGH1XfozTda8Qak7mfpGPLS5YTflrD8V8jvL5TtPPLyrV6UeofnfB65XM74vQqH38pQjnXa/TctCuys/LN0PnZ5K/PvbHjW7d1rgf+mSi7nVO5edW3Nv3iTNH5HIn9befPgWkba71zY/KaF6ftsgwVzWxa3W+vNNWAsONiwaRNeQbDNNfPNldM2wbzavsXr0O5addvu+tsfakD3f33s47P/KuoG7dDPuJaJS7r89rxDvxlC+9aPcrlcThzp+MuX9/HTl3+yWwMtZbNfziNo+qLHPbHSXFmUuNVV2PQZ65r2k/3UnvfTuVBp+G+j/MCFWvswvjFYwM+zB0dboLoj63SIiGjHBPvqKz0FLK9s7qJo3zzSu50JIiIqO45sEBERUaAYbBAREVGgGGwQERFRoBhsEBERUaAYbBAREVGgGGwQERFRoBhsEBERUaAYbBAREVGgGGwQERFRoGz/bRQiIqJy4L+NQoDDz5Xvh8bBfwDoh4N1TfvJfmrPfHglDadRiIiIKFAMNoiIiChQDDaIiIgoUAw2iIiIKFAMNoiIiChQDDaIiIgoUAw2iIiIKFAMNoiIiChQDDaIiIgoUAw2iIiIKFAMNoiIiChQZQg2MpjtbkFFrfJf51ymDOnM2yq6ZWRLz2gJ+Skh3WrcOI/aOJKW1Nm5ftvzNH1eu9Nlsf85lbuX5NQ0bT4AAAe5SURBVKhzXeTXmVbfKYzZ1WVtC8ZWtdTmfVyvh9oWVIymLDkzp3c6rtu5JkddtmdkdOZtsxzblCebPJvSe20XrMZRUduPWbdL0s8++5lHP1NMOmt7NtoUURFyFrfv3LN+5OqbK6dz4Sv31b/u564ePp27erfEdHevmY5h3tefPXEe6UTutcNv5z5PK39mZt/OhV9P5DJa4rvXcuHD13Lf2B7LKp37/HV/efqhKbSuCyt3g7X+rOm+uXI699ps2n8e9GMpdWuktba/+7mrQjvKk07kXnNqr6Zryfo9+ccwtU/hvMI22zKz14Q8WY9tba+Fbhc/fzt39crbLmXrZ5+nR8Ht2aufKSpdOvf5Fee+yq+Cz4X2rRJHNlJYnq7BeHtE/TuCM8M1GLllfeoqMF1dDL11xt7R9hik6Tv+o/WCBXMe2ZXbkDva0RZWtoZa2zGwdBvL6tNX8pYMafgVRNXUrue5egM9iOFMnd1GKkRB5S7YergO6VQUIS3dSQnYeGR6Gj/ybNhHDjKYnZQx0CWpx8pga6kG0nEtbQT1HcCD78XH9CpUOhw6eT0ODE+arhmd6VoKo/5UDeSH+Y//yetxHOmQ8j8fbUEzLiI9k78t1BrT2zYQRluXBPlm0mHkxPm7XbdnkpBxAmfaTwBDN+zryM8++5hXP1NcujDa+iS9raPuGAawia0f6sgRlay0YGP1DkYaTqBe6ARDx0+oHbcyxGoMvanDpqMpj3Q2Hm9DbjiIypIyW+x5qMPLwhCxMrwYR9I1XQbLN9cxcDJibEQE9R3rkFcy0AIV4wYDIByF1CBjOW+40npzouK5l7tjXUMJLmThZpa8JQvBRwZbGz6zkBc4Ku2i57r2vZY8Zh7hgev5SOhu9RPkpPDJEITgWMtPHM0bMZw5mZ8i2jePdF8kf4ON7PebQPUhhzbq8N0e27Mrt4FTUYQcrw1/++xf7v1Mdq7fPD2lTzd59U9m2bnrGBECE6JCBbhANILexRgenFPnAdUONuWz4zIoN1rxiXKnRfsmMb4xqAZOaqe4GNOfjAPHUY0d41rXdTGkZ4BmdQ574rlJTFlu8iPntDlup/UD9oFjtG8eCQyqaa+jcvGypWOX9e813Twyj/Cg4SDgsgbFWGdyB/Vr1uOmMHZuE+MXSg1kU/hkyHrzEstjEA+G+/JuVu7bM1i+CTXoUkY+8kcb/ezzwxVqvYxEdRzvzGWgt70ZaxtwkJHRqbapd9DnO+gkshPs2yhhCd0dMibm5CI7tAxmu7vQU30xr1PfWcoQ8cikjNlR+04zSMlbHNXYOc51nZ3rR8WtY0ivzSO9No9LGBVu7GG0Tczr29IzVehptAk4MknIeYGjMuq3fFJL3wdcEBaJhiVMrRnHTlTHEREDiqU4JtBn3i6MzkT7tLTHsGxZfJosS3tOYax2EA9spnIGZox8dz/sylvY6rp99QZ6YIwc2o5++tnnBy7aHgOGbmB2bhQ91Rftp9vsCO3uEkYLW3hKZBFMsCFMeUT7LuLIUNxfhyZOlWRkdNZ2YavL/zBu2Yn5qYshUR1Hz0YMl7wCH48pH/d5/RpUHhD/VobJ6zmqETCh3G3rOn+YP9Tah3E4zI3XxZCwGZLWh/zFD/NGrsJouxADHNY/RPsuWubkzdMozmtQlNFGbV1Ddq4fzX7as5vVuDoSM+/5QBDtu4gBl0DAuj15SwaW4ohoIzaNcciQMSEGSz72+aHS+5mwhEvDm+gZqkLCR19q1z+FWi8j0cFypeKVFmwcOAhpaRtbwkfZlduQhXnb7Nx1POiQzAu3vNJlZHQ2bqN7bd5/FB7weSAjY2JDwgDi+GTVT7owKquti/yUuXjlphZGZcM6th4LmzNJyEuWhYCrdzDScWznpmz2PR/lblfXRTJ33OKQf6nU/IYP4UhR6ZU5e9ON+px24/b5CulqHBWTB5HKm5px+kq3tSfW7eri60VhtGhtHukZcRGqn332O69+Rvn7k6EqDJiCBT/piMrI+npKWV8ZFV7vy8y+nfeaoFO6gl4hdFDeV1+FVw/Tidxrjq9Nlv/V13KUxX5X3ldf/da1tT7v5z4X68nuVUHL8QzW9mZ5DfRuwvTaq90rt05/f3NF/D7luI6v+Zpex/Xa5vUqdv52cz49tjvmRagfP/s8hcr76qtYzpZycUuXTuSu5rXnwsuUr76SpuRgQ+/ADiv/mW+0+R2otbPJS5cT3uu3/FfIb0yU7TxsOujM7NvCjcT5PHK5nHqR2v9OgXEsdXveTUD5/YCntdPcKcV0aPbl7lXX1rYp3siVgMF+m+ruNZff87CkF/cT25BtO7HkKy//7mlN31NgsJF/nWrt1Wa7V3rH3x2xOdcr/8/HPoX9Ns9eUdQN2qGf+ebKaZsHHKFPceyfrO25uH6IwQZpfpTL5XLiSMdfvryPn778k90aaCmb/XIe5I11TfvJfmrP++lcqDT8t1GIiIgoUAw2iIiIKFAMNoiIiChQDDaIiIgoUAw2iIiIKFAMNoiIiChQDDaIiIgoUAw2iIiIKFAMNoiIiChQDDaIiIgoUAw2iIiIKFC2/zYKERFROfDfRiHAJtggIiIiKidOoxAREVGgGGwQERFRoBhsEBERUaAYbBAREVGgGGwQERFRoP4/j/9WzBOMtrkAAAAASUVORK5CYII=;rotation=-15;" parent="1" vertex="1">
          <mxGeometry x="87" y="278" width="184.95" height="49.07" as="geometry" />
        </mxCell>
        <mxCell id="dgqjnI3ROZZF7E0MbiFd-1" value="" style="shape=umlLifeline;participant=umlActor;perimeter=lifelinePerimeter;whiteSpace=wrap;html=1;container=1;collapsible=0;recursiveResize=0;verticalAlign=top;spacingTop=36;outlineConnect=0;strokeColor=default;" parent="1" vertex="1">
          <mxGeometry x="543" y="128" width="20" height="308" as="geometry" />
        </mxCell>
        <mxCell id="dgqjnI3ROZZF7E0MbiFd-2" value="MCU" style="shape=umlLifeline;perimeter=lifelinePerimeter;whiteSpace=wrap;html=1;container=1;collapsible=0;recursiveResize=0;outlineConnect=0;strokeColor=default;" parent="1" vertex="1">
          <mxGeometry x="832" y="128" width="101" height="298" as="geometry" />
        </mxCell>
        <mxCell id="dgqjnI3ROZZF7E0MbiFd-3" value="" style="endArrow=classic;html=1;rounded=0;" parent="1" edge="1">
          <mxGeometry width="50" height="50" relative="1" as="geometry">
            <mxPoint x="554" y="186" as="sourcePoint" />
            <mxPoint x="879" y="273" as="targetPoint" />
          </mxGeometry>
        </mxCell>
        <mxCell id="dgqjnI3ROZZF7E0MbiFd-5" value="" style="endArrow=classic;html=1;rounded=0;" parent="1" edge="1">
          <mxGeometry width="50" height="50" relative="1" as="geometry">
            <mxPoint x="879" y="276" as="sourcePoint" />
            <mxPoint x="556" y="330" as="targetPoint" />
          </mxGeometry>
        </mxCell>
        <mxCell id="dgqjnI3ROZZF7E0MbiFd-6" value="" style="shape=image;verticalLabelPosition=bottom;labelBackgroundColor=default;verticalAlign=top;aspect=fixed;imageAspect=0;image=data:image/png,iVBORw0KGgoAAAANSUhEUgAAAQkAAABpCAYAAAAp69aKAAARhUlEQVR4nO2d/09Ux7vH3725/4K75irYFuMlge5FLlFL5JrGxG2yQC7G0KYRU9wgheoNQjR8GuDzqZB+iBEhHxVcyMYGm8YSXZplN3GbkMZiUJGvKybWuP0C2Oyuf8S5P5xvc86eM7sLZ5cFn1eyye7MmTnPPDPzzPPMnAPvCIIggCAIwoR/22wBCILIbchIEATBhYwEQRBckhiJGHxN1dhZLH8uwhfLjmBbjdk+SUd9YfF7X3izRdoUZvuq4R6nQbKd+HfzrDAGijuAUT+iQ1JSLAjfawD2bIi2hZj3oPJVI8LLLtgAAH5EN1kkgrAKc08itopncOFwKZNmd+F4qWmJt5b4nxFgb55kIAhie2FuJOx5+ABBPJw3zo6PX9S51GJoMsBeP+9hQhU2TxfGNAURZ+tVyngwq1QWxgBTl+rSmqUbYCqPtg7tfeV2sdeoYddsXzUcnS+AWx1KnYm60ZWdD8KtuQd0116Eb9yjhC/J2mmsM1lura4HdP2pLWtQrxw+mehXU74piBUm720Ou7YVAo9oQDhdVCXYi24KT3VZMd8FwX5lib1YuPdFldA/J/2cu6ktFw0I9+bU6077okrJp76AEJPr/EL8rr/H0ytsmajwdC7KTU/AVJ4lob9IK49WDlFetuzTK1Wmcib+FutX9GJQnxbxeq1u9XUsCf1FF4R7UUHqI6auuSXpu3wf6TpBvlb9HfNd0MmhvY+Yr+9TXXlGD2K+qsunV/TtILYi/I1LuwveZT+io0BlcTqrQgy+kSDaRxtRxtR1vBTA/I9oRiP+WaNubJTVuGBDDA9/eoH2BpfitttqTqL91iNlxQ3+Jq9idpSVquXN0lOT5xF6K7Ty2GpOon3qAR4yiyZbtuxkI1xTa5pV0xSp/s+UMM2O4/9ohItbqBCDJx2cOhz4rBsITssCRrAify11qG0E0D56GcflptldaKp/IZWT9M3qBA581l2I3p+Zfq7vQYt839L/xWDFC6y8hlqe6S+UNiJQrxYta/Mj2sa0g9iSpHYEWtqI6PIIBl91pLhzHcPKVCHydyXmmMfvMaxMAb2nWLe/A73SBChr8yOAjoTwxCx9Y/LYka9Mho1hxX5F/M8IMOWBgwkLHJ0vRONod8E7eQTBo8bhhJ789wulb8Y6se0pAF6tmuiRxVynxPYijeck7Dh8rJBZtfnXmk0y80FoR35FIQYn/Ygusx91JSxrE9PCxx7AoTMURukbk8fCCaCv//UagmkUt+0pAOp7dHphVmnZ41vuAU7xDcXKby+kbxxDmJJRMyofw8qrFBtFbBk4pxtBDGi8BtG9dL0vzljbngKACQXi431onpKvFQ1K7ylmcy4WhG8eQOmHaJ/y4G9M3bPjQcRhx+FjQPM/jCZ5DL4+Nd22pyBJup705ImP96EZR3DYgqNeW/kRuKY8+J7dtB1Jx0RIMt7qMJ788x4m3Y78Cm127wijz3kPKm+50FRjh6FOEMbAqSDaP0olRLAjf6++/h+ZMUAbl9sF8+ck7HlAZwN2dqpJru4ReOXYvbQRgfpqVBYHpbweDFZ0KHG6reYywrgIR3G1lFKIwUkXAAdalnswUMzUXd8jPldQcxmB36rhKPaoN63vQbTNgXx4mHQXAtIzCWbpetKSp6IR4SHjetLG7oJ3dA07T1WjV77vqLinkToOtEw2wn20GjuVtEIMTl7G8V278YxJd3WPwMscU7cfA/5WXC15LmIZeQ8iUSdA+6hf3YNIQlmbH4E+pr/qexCoD2KIX4zYYrwjCPQWaNaZ92DnyG7rDJEhMfiaGrDSkPqkJwgj6N2NrCO69K5jZfTwFbEl4DyWTViD+Hh7L5OiCdsIIsehcIMgCC4UbhAEwYWMBEEQXMhIEATBhYwEQRBcyEgQBMGFjARBEFzISBAEwYWMBEEQXMhIEATBhYwEQRBcyEgQBMHF9AWvXx4vZVMOgiA2mf859F+G6dy3QP/b8Z8ZESabzIV/3Rbt2Aikg8yxXXQ7F/7VNI/CDYIguJCRIAiCCxkJgiC4kJEgCIILGQmCILiQkSAIggsZCYIguJCRIAiCCxkJgiC4kJEgCIILGQmCILhYaCTi8LfUouCA/OmAPw4gHkLzATZd/TRPxPFmogMFB7xYMKrr2rJ14qXIwjVRrs1H1MGNxU249aI3oa82LMeiFwUtIbyxRMBEcqff+CxcS5wHNxZhqHM132Q+SHMr02PEon/zt4wbBy4Bw2OIDEhJ8RD8fwEocWJwximmLXpR8O1uPB5wYodS9v/QP3kWIxNVGKyS/jvm4gTOw43H54qtEW8rEA+huXINDTNu7N9sWQCg3K32UzyE5spa3Bgew5clmy3Y1sfZeV0d6wpuRGbcAIA3Ex049MeniLDj/ys37lfegf+THlRLRRd+8AKd1zPeJ9Z4EvHXeA4nyllhbU5UpyS8DdVfuYHuf4meB5Zx40wIrZ+zhoTYVGxOfN25D89Xc3+l3rbYnPi6Ezj/jeSNLXpx4rYTDQnGxnqsMRK2XShCCNPrdXtsTjTUvcT5H5bxZuIOrtZ15eiKtYwbunBJRA4N2Hwp3FLQhmPitdI1i14UVHoRQggnDujdSl6d2WPtj5fSN31YKYeKRuGRmGYcBpiEpzI691tfhximSvktIaxa2NZcZUfVp2id9mJsMQ7/tyG0DmfH67RoT6IYXwbceH6GHTTpsf9cF1pvX8Kh7vdwNyfDDCakmhlDZKYLRYr3I3L1zBOUz4j5d+teqlYfcfhbzuL+0etS2TGUT13CVblgiRuRgBtOOHF3ZkzjZprXmUXiIYzc3oePD9qA+AJWlXZcR395CCMTcQA2fHh0H65OMQYuvoD700arnaiP8wVdij4iw+/hfKU6dhamIOpiZgyRYSdC3RNK3puJDhyarMBjOf/zNZy/nXk1WEWo+6yBkU2FYnw57MTVM6LusrWQWrdxaXNicGYMkWEYrIbp8Dty0qtdfIKr5W7UKh1TjNpO4P4TVVjWsu//xA3n9BrWAMPJsv9cF1pTuK1pnZlm2otD8kCunMLHASkWtjnxpdIO0TCE/hB1sKPqU7TevqMYzjdPphCqO5i42kn60CwGJVXoL1e90f3nmFWy5CBalXERx6PJl9pwtMSNu3WWtj6jODvVxSKy3j2oyOusLRYWbVwylLgRmamCv+UsmieMNmiMWbh2Cc87r+Mx/oVDPyyjOse8iTervwPTIRw64NVm1ImrKJe/1hAq342vMyZdBmA3LnUsXKvFCXblViZoMcrrXmLkSRzVVcCjSaD/K4N+NNSHDXkFwP3VOFBikzZLvQgp+fvQDwCIY3V6H/K+2lDrtijLuHHmd/QHrgPfnMXYojMr3oT1RgKAvMKc/yOFCQQomzB3Z2zYgU/ReuASblTk1k76jrz3gDrdjrNCCq6P5AEoky7+Gs8B5FkmYXZYuFaLkXevIzIj9qu4E6/m769wIvTtAt4cBO6jAl8bdf9/7FY8Ir0RKsqzMSc9YxgEIIZ6d6QrbMgrf4nVv8AMrThWIwDetaqVucnCtUu4WteFiM0GfO5EwRkvyrNwGmbR6UYINzQbS6JL6Hw3FS9COs1Q3Go57lrf3kbGKDmI1tuX1ncmXXIQrZBjd5GFH9hVcqsgTsaiPJvy+9HkS+0lJVXoxxT+/o0XRWYnVLb9+Lg8hBNsSCotFOUlUDyN3UreE3X/RvI4rn7L7M0sTuD8tAXNy2XkhVRepErcuFun02GGsMaTsO0Cus+ioFtNMj4L1hOHv0WyjqzXUFKF/vKzOHHtoMnKnVlChm0RN2ebK2tRoOTsQ39APbc2Ry6r1ts63IXW23fUS2xONNTV4sSBEFDXhci5zB9tpY8N1Z87UXCmVpq0+9Baty/hmg+PAue7nWgYSKxBqWfgOtByFgUH5DQn7sqrYkkV+nFWDe3qnJr9m/3nxnD3Wi2T34W7dSGMWNDCbGA8vjj9HQ+h+UwIrcNjGq9h/yduOCsz73W/IwiCYJTxy+OlbfNXgHOyHVl8eCrbOjB8GGibkrPjK03mwr+a/kl9endjU4jD/43XeOd/qxMP4e/dQP8n299AvC1kaOOS0CI9F8DGzXVd22ylVdvYOjyWQghGbBXISGQFG6oHxlC92WJklLehjW8nFG4QBMGFjARBEFzISBAEwYWMBEEQXMhIEATBhYwEQRBcyEgQBMGFjARBEFy4724QBPH2YPbuBveJS7NCW4lfHi9ti3ZsBNJB5tguuuU5BRRuEATBhYwEQRBcyEgQBMGFjARBEFzISBAEwYWMBEEQXMhIEATBhYwEQRBcyEgQBMGFjARBEFzISBAEwcVCIxGDr6kaO4vFj3s8ZkE5bd7OpmAq/3Vzg2SiHQDmPWo7ij2Y1ZWOj180bacmr/gifKmKtAF48vCY7eP0VywId7GaPzCfCRmS9V8YA2nIYD2ZGF/aNlk+TwQTHjxaNMsy5OmVKsF+ZUn6tST0F1UJ/XMbLDd3U1OH9trUyIl2RAPC6aILwr2o+DPmuyDYvwgIMbnw3E3BXnRTeGpWF9tm3bWpkK4O+PKYo29XOjqxSgZ+/0WFe19UCad90dRkSIGcGF+aeaJrY4rw2mGRkVgS+nXKjvkupNCpaZaLBoTTGZ0gmWlHYh3a659e0XUqt53iIEhlYMmsZyCnLg+n3NxN1Wgk1MFvx/pkSNJ/BnUk3CdNcmF86UmtTi28dlgTbsw/Qm/FERy2q0m28iNw3XqEWckVUt06yW3qCycpZ8DrNQQrdiPfEqHTbYfkSveFlTzRHfZgllsuhoc/vUD7Rw7mRg4crn+B4HQMQBgPbxXCVc4UtpfBVRHEQ0NXOIaVqULk77KmyYnw5THVAYCyj1wIdv6o9N3sz0G4jpXBxtQxJLvJsVkEp1w4XGqhDEn6Lz79AMH6D1HG3KnsIxeCP81mIYxFluZJGN93AoMnHQk56yULG5cOtEw24tkpKQ6f/xHNaES4Ld1GxOAbYQbdJlDWNoLBVx1SR0qdMdmoGXSZJj7+XcKAySZcHZQ2IjoKVEqx8dD7I/DWyILacXxoBK6fGsS4+egampbXp7tc6Afr2dg8UfeCHuHw8mUct3B8ZOff/NldaKqvxtD4bnzQGcHgZGOaEz0GX1MDmvf2IFqzSbMDAGDH8QYXdo4Ekb/Xg2fdI2ixA3idnbvHxy/C0VmAwLJr0wylqQ5k+X47iehyo/J7Z9MRhIdcsCGMgeLvkD/pR9QOyJttD0f9aDH0JtYhQ5b6IWNsYJ6UtfkRbQNkvQ51swZ6Y2TWk2BCg7K2HnzQ6cGz7rbkVo4NKWJBuIsbsNLgRzRt78MiWHlKGxHY60Hzq0b8M1knJAmNPtjDK8+GFKLrKU/AzVkxGXkMdZDo5tpq2jCIB3gYkzyg+pNM3zvQMupC789hpE4yGUxIFqLuzdtEowtr5omC6JGACfs2ijVGYtduuKbWsMIkxacfIMgoPz7+HZ7Vu7TCJysXC8J9dA1Ny+tZbTLTDsSCGHrlQjs8+H4+lXJ25O8Fnv2pPbJ6eEse8HbkV7zACrsKxmYRnCpAvh2QvajsGclk8sBYB7kgQ5L+s+0pAF6tavYfZn8OwvV+lrzTTM2TTLOe3U4jkh3RyLvc+p1XXrmN7jwLgtVHVMwus26nPGNHoOwJwTqx9gg0VR3o2plw3Jjk+M8SGbbYEei650niqZGVpxuWGQlFuCLxo50giR2lNsKknCAppijxk8njP3N5EpUf811gBrJ5OwRBkAa9lG8w6cW6pPyE5yIM9JDGIEhfB2byJNOBvs90R5bSWJDzky0A65MhST9IE0zM35iBEITcmCcaPaU5NlJpB/dP6m+XvwK8HdqxEUgHmWO76JbXDnp3gyAILmQkCILgQkaCIAguZCQIguBCRoIgCC5kJAiC4EJGgiAILmQkCILgQkaCIAguZCQIguBCRoIgCC7cdzcIgnh7MHt3w9RIEARBABRuEASRBDISBEFwISNBEAQXMhIEQXD5f9aN7nj93K1gAAAAAElFTkSuQmCC;rotation=-10;" parent="1" vertex="1">
          <mxGeometry x="619" y="264" width="106.01" height="42" as="geometry" />
        </mxCell>
        <mxCell id="dgqjnI3ROZZF7E0MbiFd-8" value="" style="endArrow=classic;html=1;rounded=0;" parent="1" edge="1">
          <mxGeometry width="50" height="50" relative="1" as="geometry">
            <mxPoint x="879.8399999999999" y="355.22" as="sourcePoint" />
            <mxPoint x="556.8399999999999" y="409.22" as="targetPoint" />
          </mxGeometry>
        </mxCell>
        <mxCell id="dgqjnI3ROZZF7E0MbiFd-17" value="" style="shape=umlLifeline;participant=umlActor;perimeter=lifelinePerimeter;whiteSpace=wrap;html=1;container=1;collapsible=0;recursiveResize=0;verticalAlign=top;spacingTop=36;outlineConnect=0;strokeColor=default;" parent="1" vertex="1">
          <mxGeometry x="1021" y="128" width="20" height="585" as="geometry" />
        </mxCell>
        <mxCell id="dgqjnI3ROZZF7E0MbiFd-18" value="MCU" style="shape=umlLifeline;perimeter=lifelinePerimeter;whiteSpace=wrap;html=1;container=1;collapsible=0;recursiveResize=0;outlineConnect=0;strokeColor=default;" parent="1" vertex="1">
          <mxGeometry x="1310" y="128" width="101" height="579" as="geometry" />
        </mxCell>
        <mxCell id="dgqjnI3ROZZF7E0MbiFd-19" value="" style="endArrow=classic;html=1;rounded=0;" parent="1" edge="1">
          <mxGeometry width="50" height="50" relative="1" as="geometry">
            <mxPoint x="1032" y="186" as="sourcePoint" />
            <mxPoint x="1357" y="273" as="targetPoint" />
          </mxGeometry>
        </mxCell>
        <mxCell id="dgqjnI3ROZZF7E0MbiFd-21" value="" style="endArrow=classic;html=1;rounded=0;" parent="1" edge="1">
          <mxGeometry width="50" height="50" relative="1" as="geometry">
            <mxPoint x="1357" y="276" as="sourcePoint" />
            <mxPoint x="1034" y="330" as="targetPoint" />
          </mxGeometry>
        </mxCell>
        <mxCell id="dgqjnI3ROZZF7E0MbiFd-22" value="" style="shape=image;verticalLabelPosition=bottom;labelBackgroundColor=default;verticalAlign=top;aspect=fixed;imageAspect=0;image=data:image/png,iVBORw0KGgoAAAANSUhEUgAAAQkAAABpCAYAAAAp69aKAAARhUlEQVR4nO2d/09Ux7vH3725/4K75irYFuMlge5FLlFL5JrGxG2yQC7G0KYRU9wgheoNQjR8GuDzqZB+iBEhHxVcyMYGm8YSXZplN3GbkMZiUJGvKybWuP0C2Oyuf8S5P5xvc86eM7sLZ5cFn1eyye7MmTnPPDPzzPPMnAPvCIIggCAIwoR/22wBCILIbchIEATBhYwEQRBckhiJGHxN1dhZLH8uwhfLjmBbjdk+SUd9YfF7X3izRdoUZvuq4R6nQbKd+HfzrDAGijuAUT+iQ1JSLAjfawD2bIi2hZj3oPJVI8LLLtgAAH5EN1kkgrAKc08itopncOFwKZNmd+F4qWmJt5b4nxFgb55kIAhie2FuJOx5+ABBPJw3zo6PX9S51GJoMsBeP+9hQhU2TxfGNAURZ+tVyngwq1QWxgBTl+rSmqUbYCqPtg7tfeV2sdeoYddsXzUcnS+AWx1KnYm60ZWdD8KtuQd0116Eb9yjhC/J2mmsM1lura4HdP2pLWtQrxw+mehXU74piBUm720Ou7YVAo9oQDhdVCXYi24KT3VZMd8FwX5lib1YuPdFldA/J/2cu6ktFw0I9+bU6077okrJp76AEJPr/EL8rr/H0ytsmajwdC7KTU/AVJ4lob9IK49WDlFetuzTK1Wmcib+FutX9GJQnxbxeq1u9XUsCf1FF4R7UUHqI6auuSXpu3wf6TpBvlb9HfNd0MmhvY+Yr+9TXXlGD2K+qsunV/TtILYi/I1LuwveZT+io0BlcTqrQgy+kSDaRxtRxtR1vBTA/I9oRiP+WaNubJTVuGBDDA9/eoH2BpfitttqTqL91iNlxQ3+Jq9idpSVquXN0lOT5xF6K7Ty2GpOon3qAR4yiyZbtuxkI1xTa5pV0xSp/s+UMM2O4/9ohItbqBCDJx2cOhz4rBsITssCRrAify11qG0E0D56GcflptldaKp/IZWT9M3qBA581l2I3p+Zfq7vQYt839L/xWDFC6y8hlqe6S+UNiJQrxYta/Mj2sa0g9iSpHYEWtqI6PIIBl91pLhzHcPKVCHydyXmmMfvMaxMAb2nWLe/A73SBChr8yOAjoTwxCx9Y/LYka9Mho1hxX5F/M8IMOWBgwkLHJ0vRONod8E7eQTBo8bhhJ789wulb8Y6se0pAF6tmuiRxVynxPYijeck7Dh8rJBZtfnXmk0y80FoR35FIQYn/Ygusx91JSxrE9PCxx7AoTMURukbk8fCCaCv//UagmkUt+0pAOp7dHphVmnZ41vuAU7xDcXKby+kbxxDmJJRMyofw8qrFBtFbBk4pxtBDGi8BtG9dL0vzljbngKACQXi431onpKvFQ1K7ylmcy4WhG8eQOmHaJ/y4G9M3bPjQcRhx+FjQPM/jCZ5DL4+Nd22pyBJup705ImP96EZR3DYgqNeW/kRuKY8+J7dtB1Jx0RIMt7qMJ788x4m3Y78Cm127wijz3kPKm+50FRjh6FOEMbAqSDaP0olRLAjf6++/h+ZMUAbl9sF8+ck7HlAZwN2dqpJru4ReOXYvbQRgfpqVBYHpbweDFZ0KHG6reYywrgIR3G1lFKIwUkXAAdalnswUMzUXd8jPldQcxmB36rhKPaoN63vQbTNgXx4mHQXAtIzCWbpetKSp6IR4SHjetLG7oJ3dA07T1WjV77vqLinkToOtEw2wn20GjuVtEIMTl7G8V278YxJd3WPwMscU7cfA/5WXC15LmIZeQ8iUSdA+6hf3YNIQlmbH4E+pr/qexCoD2KIX4zYYrwjCPQWaNaZ92DnyG7rDJEhMfiaGrDSkPqkJwgj6N2NrCO69K5jZfTwFbEl4DyWTViD+Hh7L5OiCdsIIsehcIMgCC4UbhAEwYWMBEEQXMhIEATBhYwEQRBcyEgQBMGFjARBEFzISBAEwYWMBEEQXMhIEATBhYwEQRBcyEgQBMHF9AWvXx4vZVMOgiA2mf859F+G6dy3QP/b8Z8ZESabzIV/3Rbt2Aikg8yxXXQ7F/7VNI/CDYIguJCRIAiCCxkJgiC4kJEgCIILGQmCILiQkSAIggsZCYIguJCRIAiCCxkJgiC4kJEgCIILGQmCILhYaCTi8LfUouCA/OmAPw4gHkLzATZd/TRPxPFmogMFB7xYMKrr2rJ14qXIwjVRrs1H1MGNxU249aI3oa82LMeiFwUtIbyxRMBEcqff+CxcS5wHNxZhqHM132Q+SHMr02PEon/zt4wbBy4Bw2OIDEhJ8RD8fwEocWJwximmLXpR8O1uPB5wYodS9v/QP3kWIxNVGKyS/jvm4gTOw43H54qtEW8rEA+huXINDTNu7N9sWQCg3K32UzyE5spa3Bgew5clmy3Y1sfZeV0d6wpuRGbcAIA3Ex049MeniLDj/ys37lfegf+THlRLRRd+8AKd1zPeJ9Z4EvHXeA4nyllhbU5UpyS8DdVfuYHuf4meB5Zx40wIrZ+zhoTYVGxOfN25D89Xc3+l3rbYnPi6Ezj/jeSNLXpx4rYTDQnGxnqsMRK2XShCCNPrdXtsTjTUvcT5H5bxZuIOrtZ15eiKtYwbunBJRA4N2Hwp3FLQhmPitdI1i14UVHoRQggnDujdSl6d2WPtj5fSN31YKYeKRuGRmGYcBpiEpzI691tfhximSvktIaxa2NZcZUfVp2id9mJsMQ7/tyG0DmfH67RoT6IYXwbceH6GHTTpsf9cF1pvX8Kh7vdwNyfDDCakmhlDZKYLRYr3I3L1zBOUz4j5d+teqlYfcfhbzuL+0etS2TGUT13CVblgiRuRgBtOOHF3ZkzjZprXmUXiIYzc3oePD9qA+AJWlXZcR395CCMTcQA2fHh0H65OMQYuvoD700arnaiP8wVdij4iw+/hfKU6dhamIOpiZgyRYSdC3RNK3puJDhyarMBjOf/zNZy/nXk1WEWo+6yBkU2FYnw57MTVM6LusrWQWrdxaXNicGYMkWEYrIbp8Dty0qtdfIKr5W7UKh1TjNpO4P4TVVjWsu//xA3n9BrWAMPJsv9cF1pTuK1pnZlm2otD8kCunMLHASkWtjnxpdIO0TCE/hB1sKPqU7TevqMYzjdPphCqO5i42kn60CwGJVXoL1e90f3nmFWy5CBalXERx6PJl9pwtMSNu3WWtj6jODvVxSKy3j2oyOusLRYWbVwylLgRmamCv+UsmieMNmiMWbh2Cc87r+Mx/oVDPyyjOse8iTervwPTIRw64NVm1ImrKJe/1hAq342vMyZdBmA3LnUsXKvFCXblViZoMcrrXmLkSRzVVcCjSaD/K4N+NNSHDXkFwP3VOFBikzZLvQgp+fvQDwCIY3V6H/K+2lDrtijLuHHmd/QHrgPfnMXYojMr3oT1RgKAvMKc/yOFCQQomzB3Z2zYgU/ReuASblTk1k76jrz3gDrdjrNCCq6P5AEoky7+Gs8B5FkmYXZYuFaLkXevIzIj9qu4E6/m769wIvTtAt4cBO6jAl8bdf9/7FY8Ir0RKsqzMSc9YxgEIIZ6d6QrbMgrf4nVv8AMrThWIwDetaqVucnCtUu4WteFiM0GfO5EwRkvyrNwGmbR6UYINzQbS6JL6Hw3FS9COs1Q3Go57lrf3kbGKDmI1tuX1ncmXXIQrZBjd5GFH9hVcqsgTsaiPJvy+9HkS+0lJVXoxxT+/o0XRWYnVLb9+Lg8hBNsSCotFOUlUDyN3UreE3X/RvI4rn7L7M0sTuD8tAXNy2XkhVRepErcuFun02GGsMaTsO0Cus+ioFtNMj4L1hOHv0WyjqzXUFKF/vKzOHHtoMnKnVlChm0RN2ebK2tRoOTsQ39APbc2Ry6r1ts63IXW23fUS2xONNTV4sSBEFDXhci5zB9tpY8N1Z87UXCmVpq0+9Baty/hmg+PAue7nWgYSKxBqWfgOtByFgUH5DQn7sqrYkkV+nFWDe3qnJr9m/3nxnD3Wi2T34W7dSGMWNDCbGA8vjj9HQ+h+UwIrcNjGq9h/yduOCsz73W/IwiCYJTxy+OlbfNXgHOyHVl8eCrbOjB8GGibkrPjK03mwr+a/kl9endjU4jD/43XeOd/qxMP4e/dQP8n299AvC1kaOOS0CI9F8DGzXVd22ylVdvYOjyWQghGbBXISGQFG6oHxlC92WJklLehjW8nFG4QBMGFjARBEFzISBAEwYWMBEEQXMhIEATBhYwEQRBcyEgQBMGFjARBEFy4724QBPH2YPbuBveJS7NCW4lfHi9ti3ZsBNJB5tguuuU5BRRuEATBhYwEQRBcyEgQBMGFjARBEFzISBAEwYWMBEEQXMhIEATBhYwEQRBcyEgQBMGFjARBEFzISBAEwcVCIxGDr6kaO4vFj3s8ZkE5bd7OpmAq/3Vzg2SiHQDmPWo7ij2Y1ZWOj180bacmr/gifKmKtAF48vCY7eP0VywId7GaPzCfCRmS9V8YA2nIYD2ZGF/aNlk+TwQTHjxaNMsy5OmVKsF+ZUn6tST0F1UJ/XMbLDd3U1OH9trUyIl2RAPC6aILwr2o+DPmuyDYvwgIMbnw3E3BXnRTeGpWF9tm3bWpkK4O+PKYo29XOjqxSgZ+/0WFe19UCad90dRkSIGcGF+aeaJrY4rw2mGRkVgS+nXKjvkupNCpaZaLBoTTGZ0gmWlHYh3a659e0XUqt53iIEhlYMmsZyCnLg+n3NxN1Wgk1MFvx/pkSNJ/BnUk3CdNcmF86UmtTi28dlgTbsw/Qm/FERy2q0m28iNw3XqEWckVUt06yW3qCycpZ8DrNQQrdiPfEqHTbYfkSveFlTzRHfZgllsuhoc/vUD7Rw7mRg4crn+B4HQMQBgPbxXCVc4UtpfBVRHEQ0NXOIaVqULk77KmyYnw5THVAYCyj1wIdv6o9N3sz0G4jpXBxtQxJLvJsVkEp1w4XGqhDEn6Lz79AMH6D1HG3KnsIxeCP81mIYxFluZJGN93AoMnHQk56yULG5cOtEw24tkpKQ6f/xHNaES4Ld1GxOAbYQbdJlDWNoLBVx1SR0qdMdmoGXSZJj7+XcKAySZcHZQ2IjoKVEqx8dD7I/DWyILacXxoBK6fGsS4+egampbXp7tc6Afr2dg8UfeCHuHw8mUct3B8ZOff/NldaKqvxtD4bnzQGcHgZGOaEz0GX1MDmvf2IFqzSbMDAGDH8QYXdo4Ekb/Xg2fdI2ixA3idnbvHxy/C0VmAwLJr0wylqQ5k+X47iehyo/J7Z9MRhIdcsCGMgeLvkD/pR9QOyJttD0f9aDH0JtYhQ5b6IWNsYJ6UtfkRbQNkvQ51swZ6Y2TWk2BCg7K2HnzQ6cGz7rbkVo4NKWJBuIsbsNLgRzRt78MiWHlKGxHY60Hzq0b8M1knJAmNPtjDK8+GFKLrKU/AzVkxGXkMdZDo5tpq2jCIB3gYkzyg+pNM3zvQMupC789hpE4yGUxIFqLuzdtEowtr5omC6JGACfs2ijVGYtduuKbWsMIkxacfIMgoPz7+HZ7Vu7TCJysXC8J9dA1Ny+tZbTLTDsSCGHrlQjs8+H4+lXJ25O8Fnv2pPbJ6eEse8HbkV7zACrsKxmYRnCpAvh2QvajsGclk8sBYB7kgQ5L+s+0pAF6tavYfZn8OwvV+lrzTTM2TTLOe3U4jkh3RyLvc+p1XXrmN7jwLgtVHVMwus26nPGNHoOwJwTqx9gg0VR3o2plw3Jjk+M8SGbbYEei650niqZGVpxuWGQlFuCLxo50giR2lNsKknCAppijxk8njP3N5EpUf811gBrJ5OwRBkAa9lG8w6cW6pPyE5yIM9JDGIEhfB2byJNOBvs90R5bSWJDzky0A65MhST9IE0zM35iBEITcmCcaPaU5NlJpB/dP6m+XvwK8HdqxEUgHmWO76JbXDnp3gyAILmQkCILgQkaCIAguZCQIguBCRoIgCC5kJAiC4EJGgiAILmQkCILgQkaCIAguZCQIguBCRoIgCC7cdzcIgnh7MHt3w9RIEARBABRuEASRBDISBEFwISNBEAQXMhIEQXD5f9aN7nj93K1gAAAAAElFTkSuQmCC;rotation=-10;" parent="1" vertex="1">
          <mxGeometry x="1097" y="264" width="106.01" height="42" as="geometry" />
        </mxCell>
        <mxCell id="dgqjnI3ROZZF7E0MbiFd-23" value="" style="endArrow=classic;html=1;rounded=0;" parent="1" edge="1">
          <mxGeometry width="50" height="50" relative="1" as="geometry">
            <mxPoint x="1358" y="360.28" as="sourcePoint" />
            <mxPoint x="1035" y="414.28" as="targetPoint" />
          </mxGeometry>
        </mxCell>
        <mxCell id="dgqjnI3ROZZF7E0MbiFd-34" value="Triggered&lt;br&gt;and&lt;br&gt;done collecting data" style="shape=callout;whiteSpace=wrap;html=1;perimeter=calloutPerimeter;fontSize=8;position2=0;" parent="1" vertex="1">
          <mxGeometry x="1364" y="290" width="76" height="69" as="geometry" />
        </mxCell>
        <mxCell id="oT10BM8QOoswX7G8rz1d-2" value="" style="shape=image;verticalLabelPosition=bottom;labelBackgroundColor=default;verticalAlign=top;aspect=fixed;imageAspect=0;image=data:image/png,iVBORw0KGgoAAAANSUhEUgAAAkUAAACMCAYAAAByBt2UAAAgAElEQVR4nO3d/28Ud57n8WdO+fU00p3itjaG7MQoi4TxgNebBIQnQkjx6hqswEaZuSygcSzj2JOMHCyQs7IjNvZMrAjHaJMYjGV5RBh2Bg125LhO40g+xJgxCRgDxqPxzGJmYmC2uyOddLo/oO6Hququqq7+6m7bwOshtaC7vvTn86lPfepdn8+n2k+YpmkiIiIi8pj7L6udABEREZG1QEGRiIiICAqKRERERAA7KJrpraO0Iug1wMxqp9ARNWhYS+lZo2Z662gYja52MkRERB46TwJUt40RaQOIMtLcyFLjGK1Vq5uw5YiNHqXy7n4ibZWrnRQRERF5SGj4TERERISMQVGUkeY6TowaNFTUUdpsEAOYHfAMs/mHa7zDca4hL892RxlJO8ozxwnXd5yY9i1OkYaZ3joqOxdguMPabtZaPTZ61LO+83nw9x5lZNTef+9cYHrcefbu28mvXXaz1r+pvtefrqT99s55ytNf1p7tmw2W/Mchnn4RERFJy/SImBfe3GP2Xfe+D705bkZda107fsq85ry5fsoMbUq8v3Z8jxk6fiu+bnRk3FrmW8+8fippvwm3zL5NAenwfE/qNERHjnjSYJoR88LxxHdFR45k/G7v9v703DL7Nh0xL0RM04yMm2948nXL/r+TZns901k38T46csRbJr7vsZa7vvf6Kc/+kvJx/ZQZ2rTHfGMkYpeRPx8iIiKSSlbDZ+2NYUpc76vbmqh23lRto51FlqJA1ODkcJhx11yekr1hqoGZiwbhrldc271CP5e4HNRbNHuFnpomXo/Pawqx71gT4WzSECjEvrZEHkq2v0R46r6nV8VrI/37XfORktJTyetdYEw7X+j67qrKRLqA9jMfsi/kJCNMc/2CvV2Uy18u0H7GlQ8qeb1rIz0XXb079d2J+V1Vr9Bfs8DSAxLbu49NVRPj9YlNrblimlclIiKSjSfz2ipq0LBrACP+wUb6AR7cx6gp44PkDVi6A8ZwI6Wd3iXtD4CQ97PYN4uwYZsnEMs6DanMDlB60HB9EKY53fr+9EwZVFYMeBfUR2FvmKFJaNhVRwvQfib9JPX1z250MsDS1EbWH/MuL3mmHL68R4xMwUzw9iIiIpKf3IOiqEHDrvs0z48xBFhzbc5ay54ui/fAeAOaEOs3QHuWT7W5A4P4fh7cxwArkEmXhiCzA5QOljE3P2btz94+WyXPlEN9mqfZQmGG5sM4845OpAmMlu4uwLMAIdY7vT6+oJAN6ygBa/5WSkHbW8GntX8RERHJRe5Pn9m9Qeud97NX6HH+H6omXGOw2zW5NzZqMANU7wzTczDL3xl6uozw1ADn4pOSo4wMunp50qUhgNXztC4eYMWmL2GkWT9J1TbahzuCJ2fPDrg+D7G+xru4Z9BIBDezA+weDtO8NwSE2PHyRl+ZzHHioEH7zmyGvKxA07v/z2mZSqyhidYiIiLZy72nqOoV+mlMDCXVh2mPLwyx7+QgNDdSWmF/VNPE3F6gqom5rqNUVtQl9lXTxNzJcPIwWSgxJFUKwEb6zzQRnrqfRRqgZO9+2is6KB22h7Nc7wHC9WHP/KTMKmmdbHKlx07T5Ifse7qM267Pw12DDLl6idpfhncr6uwgzNrGmUNUsvdD5vCWSabhN7fqtjHGe+tc5dDNeL3ByZzyJiIiIgBPmKZprnYiHk2Pxg9hioiIPC70440iIiIiKCgSERERATR8JiIiIgKop0hEREQEUFAkIiIiAigoEhEREQEUFImIiIgACopEREREAAVFIiIiIoCCIhERERFAQZGIiIgIoKBIREREBFBQJCIiIgIoKBIREREB4EmA3351a7XTISIiIrKivv/i9zzvn3T+8/eVf7fiiSm063N/fCTyIWub6pmIPM4elTbw+twfkz7T8JmIiIgICopEREREAAVFIiIiIoCCIhERERFAQZGIiIgIoKBIREREBFBQJCIiIgIoKBIREREBFBSJiIiIAAqKRERERAAFRSIiIiJA3kFRjLHW1yh/3nl1MBYDYhO0PO/+PPFq+SLGt190UP78EDeC9vXx/PJzk6MbH1vpWn1WGXx6c7XTIYXnP1deo7x1gm8LsM+i1ZfYBC1J56mISH5ufJwcE3x6E7g5FBgvWMtTxAZ2nFGs9u/JzKv4zfPp8+/D6fMsnrA/ik0w9ldgSy39V2utz24OUf7zMr46UctT8W1/Qt/kWwx+sYf+PSX2el/wDg189XbFsjLyUIlN0LL7Po1XG9i62mmRFXH49Hl+vMX6/42PX+PFVnznhojIo6u285PEdT+ugcWrDQB8+0UHL/7lhyy6Y4F/aeA3u3/J2A+6qbM3vfGrIej8JN6eFlruPUWxB/yeWra7E1RSS11WCSyh7l8aoOvfrJ4l5vn00ASHf6SLgzw+tr79Hoen73N/tRMiIrKWldTyr53wzs/s3vWbQ7z6WS2NScFV4eQeFJU8zSYmmM6366qklsYDf+KdX83z7Re/5KMD7xUt4lueeT71Df9ZnKEL93J7+DDOO2RirWuvc3OI8t1DTDDBq8/7uwbT7VMeGbEH/N75v6/7OF7Pbg4lD7PdHAoYfg7ej7de+Yfw/Pvw1vVPvy5URkVEluepPT/k8PQQ52/GGPv5BIdPF3eEJY85RRX8eLyB3x8Kalyzs/Xt9zj82fu82PVdfr0mh81cQ4RXz7N49T02xXu3LB8d+prtV63lvz7wp0QkS4yx1rf4za5P7G3Ps33qfT5yNtzSwOJ4A7XU8uur5z1dhan3KY+SG78aYuLAC2wFbkxh1YOr51k8XctE1xfWObXlBQ5PT3HFVeduTE1Q27knuUG4OUT5oT/TN+7U10/oW3w/EWDFbnAvXh8/oW/7BIPxIN9f1z9h3eQQE8UuBBF5rEx0vZXmxiydCn58upaPDr3FO+XF70TJb6J1SS39V8+zeJqA3o5c/Jl7a7E35ObXfLS9gdfihV/Ba53wm68TiXVHq1t/0ECtMxwSu8Fvpr3de1vffo/DWXxtyn3KQ++jQ4memFd5Lx4Mb33bddez5QUOx88Jq8698yvn3Jpn+rPn+McXkruNrWDpJ/Exdyih7ke1TEzesILqklp+HK+PJWzb9RwTf3F6pPx13Rriri1k5kXksVfbmegoWMx3Pu3ig6J3FOQx0dplSwOLV/cw1voWLV8ETaIKduPj9/l95yd8xb/x4q/mqVtjvUXf3vszTE/w4vND3gUHYkCGPP71PhPby/jXoqVOHkbuidYesQladrt7Zp6jz/7fUy/UUNv1NTfermDrza/56MAPWUyqfjHuLcKmGt+CvymLB9VPYU3ufvUz1/ID1j/f3vszlL+gOX0iskbN8+mhP9M3/gn87C3O36wtam/R8oIiwLnzfOcvWQQMEJ8o9eurJTzFDzn8/Pt8WpPigrFKnlr3XTjgmwUfl0XXlutiZG1izSFZV7AUyiMh/hTiefoBayjrl4nlJVv5x+1DTN9sgKkJDtc0BOykhHXl8Jt7MdjiO/+2l1GGFRAN/u0nLF61lltPeVirPLXuuzD5gG+pSNTXv95nAmgsYFZFRPJx4+P3+ejAeyyWlMCPaik/NMT2Ij65ncfTZxN86vltnxhXJv9E7d9m00tkP20WHyZyxgrX2G+ibHmBw5+9n9/vIGx5gcO452zYc0gKlzp5VNi9imXO+5tfJ+aeAc4w2Ec/72Bw0T3E5bW1ppYJz5y3GGM/G4JdW3nK6UlaVxJfdmXyT4mN/6aM2ukhzt90bftz1VYRWQOcThSng2JLA78+MMGrRfxdw9x7ikqehq63KO9KfBT8+wN+McZa7YjP3bhv2UPf9rd49eMXUvTMFNdEYF6syeQtu1+jPL7kOfrGu13zNlJxtk3s9/Dp9zj8mbsHoJbGA6/x6vMTcOA9Ft8u3uOFsoZt2UMfbyWGaQ/UJs892/ICh6cn+H3nT1IPcW1pYPH0EOW7X+Md+yP3OVn3o1rKD71mB1zPcfjAc4ltS2rpH8dV15+j77Q1n01EpFCCr7Vprn2xCVoOTXD49HlPr9DWHzRQu7t4I0xPmKZp/varW/x95d8Vfu8r7PrcH9dmPvRjjY+Ula1n1pDauqwCchGR4luz19ocXZ/7I99/8Xuez/S3z4rOGspwHsEWyYU1nv5DBUQiIiugABOtxcv6naJ3pl0fHXhvVYYG5SF2c4jyQxOwvYGvTqjuiIisBAVFBVdC3Ynz1K12MuThtiXxN4FERGRlaPhMREREBAVFIiIiIoCCIhERERFAQZGIiIgIoKBIREREBFBQJCIiIgIoKBIREREBFBSJiIiIAK6/fSYiIiLyOPH/7bMnUy14GP32q1uPRD5kbVM9E5HH2aPSBgZ1CGn4TERERAQFRSIiIiKAgiIRERERQEGRiIiICKCgSERERARQUCQiIiICKCgSERERARQUiYiIiAAKikREREQABUUiIiIigIIiERERESDvoCjKSHMdpRXWq2E0WoDtvMtKmw1i+SUuB8XIBzA7kMhHxQAzvq1jo0dT5nOm11UGFUcZyTZJyxQbPbriZR4vt9mBwHJyzPTmcmyyTYZBw4qVb75127ed5+UqL099q6O0d65oOVnb5jhRUceJ2dRrFKUurYg5TqxgeyBSWMW41lrne6FjhryCopneRlo2dBOZHyMy383mzsa0DVFW281+zlLjmL1sjPENA1QWuXEvSj6iBg0HF+mftPIx17XIbvfBmh2gsrOc8cB8znGZ7ngZzHVBy7GVCFSgZO+HRE6GKSny98RGe+NlN7Q3BMxx4uAi/ZNNVBdg/1lf9EJhhs6Ur0D5RhlpbqRlyvXRVAHr9uwApQcN72fDHSscGK2VC3YlrfNjtFatdjpWWdSgIc1NhshKK07McAXOODHDIP0M8G4BbnjyCIrmuDy8kf79lfb7Sl7v2kjPxUyNcIbtqpo8jVn1/ibCw1eKeGIXJx+x6UsY9fvZF7KWluzdT/vUJS7bx2rmokG465V4AODNZyWtbZXxbyrZ/hLhqfssZZGbmd70d8hrxdLdBcLPhuLvY6Nn6XGV14qq2uY5NkUx+7kdEIWtQHiyiTDA8NksgogQ+04mbhSsQHkjAO1nrCAy9s0iAOGuQWudM2Fr0zv3ihfsRQ0aVqRXsfhmetdCMBdlpHkV0xE1aHhsexel+FYiZgix4+WNGHdXIyiavUJPzUvscF3ESra/ZF/Y/d3XdtdX71yG7QI8uI9RU8b6nBNYiHzYw1iuhsIa8hpgJu12US5/uUD7zkRgA5XsqF/AmI7iHOTwdtfGoWrCNQaXAwKambMD4AqgCsPb5egZwrIvdJ7hvYAhGe9y3x1pyqEcqy7sHgajs9EeGgwqr+ThRW9Q6B9Scr4/aP/p1gfvsSkOJ2ihfpt1HEPVhGsAFlh64EqbE2REDRrstCYFuVGDdzsXoKaJ1+3GoOSZcoDkxmDDuiL0+tnp3XWfZqdXMWrQUNFBDwu07Krz1qFew86fcywydHf76k4i/ynqbIr0ucstfV2C6rY2OLZSw/XJrPQ1stT4oe/GwD9scM+3ZYqynB2gdNcABga73eefr2w9ZRgKM7TzSnCdE1muFYkZ5jjXiSuAyl+BJ1pX0jrZxO2D9oVn9nNaaGKuLdeERhkZNAi/XF304ZxUqtsG6b/TYR8su8ALNMSTlqvxurzTGWIqnJneDm47vQrzgzQ/k7xOyd4PE70Tk02ECTNuH8PY6FEqv3yJuXnX8KC74XUNHUbmrTK0GmCr12O83unV+JB9oShLUxtZ/3Tiu/37jzTep2XYlbjoDEsvJ9LfX2NwMuX+061vWf9sYe4uUlm6uwDg6R1LCLHvZDftAFMDnJu1AmEDKw/+YSBnWXuja5izqsnqPRrusOrNQQPqu4nkfM6ll7h4jxGZd50HoTBD8920s9E67u4h2OFLcGwscSw83d3dtNt5Buy6Q3xYOTLZZN8QzXGiosOz3ebO3qx6VTLWJSsDVm/cMXh3Jedj2cFv5d39RJKG/KwhVyNeb8dovjtAj3uVVGVZ1ZQ4Z+fH4vVg5qKrbM+EMTo/915YqpqIzI+x4+LKzmWUx93yYobEHNwr7Jj331jkp/BPn4XCNNcbnBw1rLkix3Kdp2LPwdjQXfCAIDch9jWG6Rk0GOnt4HZX28oM8diNU7yBSncH6wqgdg9Dz8HUk7vdEkFAiOqqdJmKMnJsgM1nnIug3bPjuiiX7N1Pu9O7dtEg7CknqwyNL2fS3IWXsz6+fvL+qWpivN61eihMa7xeZNFlmmH9kmfKizvUlFElrfaQV89B6zhS08QH/rofNTg5DBBmR5X383c7F7zrDncUbjJx2ot3Bv5hUU93dyU76uH2N1Gcm6D2M95ga18V9t1iomfM6kIni969LOqSWyjM0PwYc8+eLXKPiau3zRW0eFeZwZgK0+yqA9VtdvDsSFmWwarbXGVbtY12FlkKWL26bYzI/H6Wdq1e75k8ZpYRM1j1dYzI/DYu5zSBO7Unl70Hh2uoq7qtm80VVo9Ea6ZAwj1EFjVo2DXA5jNjRFZrsqQ7PVVNjG+oY/edJubaMmTE3i7V/J/Nz4SAVAfM21viqG4bpL+5kXOz4eCLUVUTkfkmwIqYL+/MfNGqbhtjvLeO0gqgpom5NJOrZ3qtu9Wh+D6jLE1Bz1Sd966VjfRHo3AHNu/0ldPTZfF5UZkrut1zdCz9WjO9dvDgSHWhy3P9YrACsRR1qOoV+muM+GRsz4XcFpu+hAGJYTjACVoNoP2Mc+ytnpWezs+Z2VuAns1QmKH5dZyo6KB0OMz4/HL2mTzpPNxlfZ7quMe+WYQpg8qKAe+C+jTlSfp9pk+b1eNVvBsgq2dqfW8duysM13FzsacOfJBVehOfWGWZanWrbU1Myd9If9B6zsT9IvQ2ingUImaIs3qcGnYtv93LvafIdZFzxKYvYbjmMMRGz3K7PgzuLtpM20UNGuy7pxV5eiSLfBA1OHknTDuubv6024VYv8F/x2bNI7KCnhDraxZYeuBaHJ3BmHL3lhSfE13PvXyJylR3g7MD7L7j77EIsb5mo2t4zHl9yL5QUN5taeeGue9YA8qHKEt3Eu9meus4+WxiWMGZeJxKVusXZf6NpXqnPfHZGQd3TbyO9/jEP7P0HPT39Fm9HoBv/pUVpIKr3KP3uA2QoicgP9ZTXZHJMk5m0RMZzLqIe54wjQenQcfdUvJMuXWBnvfVuYwX7Mx1KZGuOkorer1DfUVmnYODrB8MmD8W0MYkjquT5lRlGcDVtsaH2/zrOL3OF7dlWb4iWSpWzFAkuQdFdlfXbtdj5Oc6XZNlZweo/PIlPmhr4gP3fJMM2xVnUvEy8sEcJ3ZdInysidZjrjHPDNtV728C15yH2OhZ12Qxe0jOddGbOTuA4dz9zw74Jon20jLlGy5ZligjvYkgyJmkm7ya/bMCSd2YIXa8nPpnAqp3hjE88z2sngxSzg3zX7iswKpn0P0TBu6AwbqoWb1u1nsnWEiV30zrz1w0Usz3KZCqbfYFyJ746jw+7xzzqEHDQQPYSP/kIP011rrueU9W4AxJQ2f2sAk4k8vr7Em2gG+CYkHYQ0yRyTJO5jy04p8/NsfleO+dNazpCQajBiOzWOU33JHHcFamumSZ6XWCi5UJhvxptJ4uHGT9oGseT2gdm311wJlPZklXlgH8D63MXvH29EYNGgbLrLlXCoak0IoVM/S6b87sXnNPT3qeTNM0L125aeYmYl54c48Z2mS9+q47H4+bb7jfO+sdv5V+O9M0rx1PfO5+udfJpGD5SEq3aUZHjpihTafMaxnyYZqmaV4/lcjDm+Nm1LfY2pe93PUdTvkl8u98X+F4y9m1/+un7LR68xaUj6Rj5c6DO++b9phvjESSvt/9WXTkiHd7//6P3/Ju49n/EbPv+JEUZXjEvBDJtH7EvPCmvV4Ocq9nt8y+wPJyfe585qoD8Xrl5CGgLpmmrz6lWa+Y4mmwvzvouHrTecrsC6oLrmMVPy5J50WqY2bV3ZTtir8urWneOtN3/ZbZ58p3prKM5/v4LdPfXoWOn/LsSyRXayFmSGr3fO1Nvvl4wjRN87df3eL7L35vufHVqntU8vF4meNExVnWT67CnfrsAKWDZWnnVQVRPRORx9mj0gYG5UN/+0xWWSWtZ8pp2bXCv8CbcohQREQeV4V7+kwkX1VNROZX+DtDYYbmwyv8pSIispapp0hEREQEBUUiIiIigIIiEREREUBBkYiIiAigoEhEREQEUFAkIiIiAigoEhEREQEUFImIiIgACopEREREAIj/7TMRERGRx4n/b589mWrBw+hR+SN1srapnonI4+xRaQODOoQ0fCYiIiKCgiIRERERQEGRiIiICKCgSERERARQUCQiIiICKCgSERERARQUiYiIiAAKikREREQABUUiIiIigIIiEREREUBBkYiIiAiQd1AUZaS5jtIK69UwGi3Adt5lpc0GsfwSl4Ni5AOYHUjko2KAGd/WsdGjKfM50+sqg4qjjGSbpDzERo8G5Hl5eQv6jhOzmddZqTyvjnzrtm87z8tV9p5jUkdp71zRcpLRwk/h9BP266e5bfvtOde2T8Dpf4Jvg/Zrv/7XlczL4q7knp4iS9cO5L/dHCdcdcFz7vnriX951KDBtzxTm5hXHjKlI+V6iTrvbSfTtEV2njK1QZY0ZZeNqEFDyjKwz+WgczPb8kg6Pg9TW1mMa633eBUsZjBN07x05aaZi2vH95ih47fsd7fMvk17zL7ry9zu+inPPrzrZmdN5CMybr6x6Yh5IWK9jY4cMUNvjptRZ+Prp8zQplPmtVT7cuU5aduCsdIc2rTHfGMkUri8uTn5vH7K7Lt+y+xzbZeUFvdx9pXPWpRbPYuYF960ytrzyqpup9h2055EGV0/Fbw8x3OnIGK/MM2BfaYZs9//bp9pnvtFdtv+bp93W2d/v/tP6/9/6E69r3TL4vvGNAe6s0vLSkjbDuS7nVVf4ue073w1r59K2xZZ6/vfpzpvl5mHdOlw9uVvB1zXiGvHvW1Xqu++dnyP2Xf8VBbpylB2GVjp3ZO+PTx+yuwLatuyKI/oyBEz5E9PZNzsG8kygQW2Jq61npjBd/yyFJSPPIKi5AtcdORIFpUux+38J2gW1kI+kvfhXd9/MqfNZw5lcO14dpXMXbGS0rLMvKX6rtyCHKtyZ5eX1ZFTPYsHLXYZRMbNNzbtSW7gsmQ1jonycd7Hj6PzfUUJpjP43T7TNKZdH0wnBzpB/tCdOWDJNyhyArPYL9ZUUJRTO5DtdgH78Kzvv/j6z9+k7dOfi/nmIVM6srkZTPrupH06+z1lXsvYTgWnPbl9TJ2W0PFbKdKQWCe4zQ1Kuy+9a/BGcS1ca/2y26dXUD5yHz6bvUJPzUvsCCU+Ktn+EuHhK8zY3VmJrj9Xl2Ha7QI8uI9RU8b6nBNYiHzY3bOurk6rm3iAmbTbRbn85QLtOytdX1TJjvoFjOkoMMfl4Y2Et7s2DlUTrjG4HNBdOnN2ALpeobpQebbT0zo/RmtVwKJl5S1A9B63a8K01yyylHU3b5SlqY2sfzrb9de22DeL1n/qt1nHMVRNuAZggaUHrq5hp+vX1UWe1IUeNXi3cwFqmnjdPn4lz5QDYNz1FfCGdZQUK1OBIvDNCDy7zfXZNigbgf+IwPQ/wb+fSyxa+GlieOxuB1Q0FCdZ2y/A/3y9OPvOW/p2IGXbk2G72PQlDKee2ap3hjG+nAkcVoiNnqWnfj/7QgELAWY/p4VEXStMHjKlw25nGsM51N8oI4NG8jazV+ip30Z1pnaKDGUXNWjwDFVZ1zlnKKe6bYxIW6V/ly5zXB4Os6Mq/fGIp8V3XGYuGoQLfh1YQSsSM8xxrhP696c7Dtkp8ETrSlonm7h90K789kk1l7bCBLEqefjl6hVu2BOq2wbpv9NhHyy7wCebil8xXePLl3eOMbQ3VYu19s2cvUT4WBOtjeW0nM1unkts9GzSifAwW7q7AED42aAMhdh3spt2gKkBzs1agbABhLsGkwJXZ5mn8a9qYq5rIwx3WPXmoAH13Rka6VWw/QJ8559hOgJE4EYHfP8CPBWB/wv8t9LM+/h//+ydN7RQ7ESvjqK2PVMDVNrtS2VnOeNJ9cRgtzNH4+Ai/cdyCU4SMuYhZTqyvykyOhvttrKRlg3dyefLRSN+E5dNMJJSKMzQmXJajlk3LlbQ0p192xwPzoCqbbRPXeKyPz5LVx53YPMzj0iDmGR5MUNibtkVdsx/mDrAz0Hhnz4LhWmuNzg5anAir5MqykizVclXNyAIsa8xTM+gwUhvB7e72gpS4BlVNRGZHyMyP8aOixkmj7kCqN3D0HMw+wnQK6G6za6kVU1ZXaRjo0etBuFkfg3xw6mS1jNhwDp+u4eBmiY+8Nf9qMHJYQDrjtP9+budvuhguCOHiYwr6B9+AfNDMP1j+M40bMxx+//6CzhkJl7u7R+pgKmIbU9NE3N2+xKZLONk0mTdMOPO8vn9LO3KY8IxkDEPGdORWbhrMN5Wzj171ttWRg1ODrvOlVTBSLaqXqGfAc6NGrwbGEymYvdixXvYU/RaFaA8HlrLiBmq25y6uo3LOU3gTq1wQZFrqKu6rZvNnQPZnczuIbKoQUNFI0uNmboji8idnqomxjcM0HIn4CKVbrsA6SP94Duj6rZB60RM1Si5Aqjxemg/41SQAvdoLStv2bC6TCvv7i982teIpOEtt6pX6K9JvA0aOohNX8KAxDAcAFFGjtm9R/Fjb/U8GZ2fr4nAGEj0Aj31OlTMwnwV/A9nmK0UvgP8n8jyviNdwPTQcLUDubQ9KdqPuFRDqaEwH3SRZljJCth7LubyNGMeefCkI8T6mgWWHuTwlUDJ3jb6SQQ91vni6vWq6KCHhax7rOPiZRdi37EmbncOsPlMDm1UdAZjyn3Dat34pD0//eWxAW5/88mJ264AAANeSURBVAhGSIWIGeKsHicK0O7lHhQ9XUZ46j5Lro9i05cwXCdebPQst+vD3gRm2i5q0LDrPs2p5rsUWhb5IGpw8k6Ydndgkna7oApsjb1bDUXACR+dwZgqZ/1a6B1dVt7yZfUMrmogXETVO61eIJxx8NnPaZkCT49P/DNLz0F/T581zwLwzemKsmRvFz8u0XvcBiCXeVyFEBTcXIH7++C/u97PV0FZhz2MZnu2G7753yuX1FWXRTsQ1PZk2K7kmXK4c8/7Ex8XjRRDtxZneDeV+Jy4guUhUzpC7Hh5Y46BGLjPhfi8pPiNgtMD05RyDms2ZTdzdoDN9VbvV9Y/nzB9CaO+25uO+UH6U8wjdbiPy7KG/taCYsUMxZJqBnY6mR6Tc2bS+2eDp9su25n+6RT2MUHXzHffkwlFeyTf97ME1pNFhX76zLtN0R7Jz1aaJzbWqtyfvEjzyLznabTEI/jJT/UEP8UXfxTY/1qNMk37SP5/muY5TPMPppn8VJq9zP90WKEeyY+nbe08fZbxpzlStD0FfSTfvzzpCawMj04vJw/p0uGcM/46nOaRfE9blPIpuHRP06UvO/e1LOW1KqktS/19nmtjxvJw2gVfnlI9ku/ePtf/Z2ltxAzJT0oW4umzvIIi/++neC+ae5J+O8B/0iZtZ6Zu3HO50BcsHwEF7A1QUufDNE3vb8cEXJycx6iTfk8mfvHz/RZNkQSf3MvLW87W0u/sZCn3euYLjHwneXCQ5Gs00pS3pz6tVkDk+EO3/ZtAeAMVw/f+D93Jj+vHf0+I5N8Vcu/Xv/+HMSgyU7UDmdqeNO2HaZreuua70AWca57zO6n9yXyjmlceMqXDlnRNcNXr5OtFdr+XlP5GLkXZXT/lK0trvYyP1qd7lN4diGRZHknneTb7XiNBUTFihqTyyOOaEZSPJ0zTNH/71S2+/+L3itkhtSIelXzI2qZ6JiKPs0elDQzKh/72mYiIiAgKikREREQABUUiIiIigIIiEREREUBBkYiIiAigoEhEREQEUFAkIiIiAigoEhEREQEUFImIiIgACopEREREAAVFIiIiIgDE//aZiIiIyOPE/7fPnjBN01yltIiIiIisGRo+ExEREUFBkYiIiAigoEhEREQEUFAkIiIiAsD/B1f12zCZnhM2AAAAAElFTkSuQmCC;rotation=-10;" parent="1" vertex="1">
          <mxGeometry x="615.87" y="330" width="208" height="50.12" as="geometry" />
        </mxCell>
        <mxCell id="oT10BM8QOoswX7G8rz1d-3" value="done collecting data&amp;nbsp;" style="shape=callout;whiteSpace=wrap;html=1;perimeter=calloutPerimeter;fontSize=8;position2=0;" parent="1" vertex="1">
          <mxGeometry x="889" y="297" width="62" height="51" as="geometry" />
        </mxCell>
        <mxCell id="oT10BM8QOoswX7G8rz1d-6" value="" style="shape=image;verticalLabelPosition=bottom;labelBackgroundColor=default;verticalAlign=top;aspect=fixed;imageAspect=0;image=data:image/png,iVBORw0KGgoAAAANSUhEUgAAAkgAAACNCAYAAABMpIWBAAAgAElEQVR4nO3d/08cZ54n8HdO+fV0p9Wlm1tjsmOsLJIxY7MoiS0zltcns9rCKOaizCiyrSGIdGCSETGyhVeQZQK3RpEJaJKA2wgxIo5vxorBItRqsMRYDh6c2G1st4mWmTHOBOOZro500un+gLof6ks/9XRVV3XTDdh+vyRk01VP1fM89VTVp57nqeYZXdd1EBEREZHtP613BoiIiIg2GgZIRERERBIGSEREREQSO0CK9dWhqNztJ4rYeuZQpKlo3Ej52aBifXVonNBWt5H5KIqaVSTzk6U8iGOgvA4D8+udj/WRnDiBor648YumorH8BMY9D3Fh6yrWV5fKCxHRE+pZ6z9VbZNItAGAhvHmJiw3TaK1cv0ytlrJiROoeHAYibaK9c4K+YpjoPwcSmY+QH3Ya50KtC5MrmWmNq6wgpEFJfW7pqJx/wqaFyKoAlDouqpqm0SiYFsPJtZXh6Etwxg55NlgiIhWhUNsRERERJIAAZKG8eY6DEyoaCyvSw27zEcdQ3HykI5zyE4YFnOkyzRMAFhDBdb6A3PSYo88xPrqUNG5CIx2GOnMoYbkxAnH+t5DEHEMlJ/A+IS5fXs4wZkfsczObVvlNetu3vjXa79yvtK22xd31Kdc1470zSqWvYolD5ulDdWY5RY2vyxuWx5W8TyW5nbmzTaTaahWU9FY3oFeLKJlf6p9GeVWzXo7gXHNqkuP/TeriInDUHY+hPzNy0O0zuMipk3fv3uVBmvnct0FqB9H+iiuOfYqHKf5KIr2R6FCRa29n/S6ytTGrHYRy3SsIW1LWO6oA69h2bR9CPnPqn0ZZasdBdTOJvtzDvsRUd7paRL6xbcO6v23nL+H35rSNWGtm6fP6DetX26d0cPbUr/fPH1QD5++a6+rjU8Zy6T19Ftn0rabclfv3+aSD8d+vPOgjR935EHXE/rF06l9aePHffftTC/n567ev+24fjGh63piSn/DUa675v+tPJvr6da6qd+18ePOOpH2YywX9nvrjGN7aeW4dUYPbzuovzGe0NMJeRa2ba+bmNLfsLYlbycxpb+Rlg+vY2nWn/27WQ+O+vTOVypv4mdSu5T3b+YvtQ+/9mP8nqon5/bT958ucztPz3tqXz71E6hscpsS25BbWbzbmO+xljjOLekc1m7ddT+npH1Ybc/ejnRe+F0rbp52tnH5WBARrVbgIbb2JgUh4feqNmu+A4DKXWjHEpY1AJqKoVEFU8Lcn9AhBVUAYldUKN2vCOlewSCu4prb0/n8dfRWR/C6PQ8qjPquCISZF955cBVGfVuqDKHde6HMrnj3tqAMg4eF+Utp+anA692AOmftUNh3ZUUqXwDax4S5NWEFzQ2LZjoN1y4von1MKAcq8Hp3GXqvCE/DDT2p+WCVr2CwehHLj5BKLx6bygimGrzKVIE9DVZaYPkBMNitQH1gZDw5dxU4UJXaVnUEp6w5HmEFzQ3Ave/MXjrfY1mGwS4rX2HUNynA/YfZTfpuOOw5Jylt/2EFp7rLUiv4tR8tBnVWQbM9h8XIo7Pevffv387bhLTGttXLMaH83vXjW7asBGxjGY61L+E8ClVWOK4TDsI+Qrv3QhHPsXAVlOpU28zqWgFrDiXnGxJR/jzrv4oHTUXj/ihU+4MyDALAoxWo1cU4lZ4Ay/cBdbQJRZ3OJe2PAEg3ouR3S8DWXd4X20x58DIfRdFRVfhAQXOm9eX8zKqoKI86FzRowCEFIzNA4/46tABoH8s8wb1ki3Wz07A8W4aSLufy0POlwOWHSMLvgu+ePpOSLcaNsbUSuHZ/L15v24z28uuItYWxfBlQuoJMes3uWOafsf/t+7x35Nt+Hq1AhQq1XHV+Xl0coN7h287T8rap2A7IM7bpAGXLjn8by5wfH5URJMaMoTCgDIMZJ9oLwpuxHaUocV13vdsXEVGuAZL91swkRgBYbyEByHAjCKNkK9Ae8O041wv4oxWogBHUZMqDm/koioaLEV+YNLZnpg8q9Hwp0JDhrTj7zSLzFesMQdLyg0VgCwCEUWI9NcsX/a2bEQJ8elzc0hs3F2P7LuXYvRdK53XE9gH3DryCEMLY09CBa/O7gNlS7Al088nuWBbKve80oDKV4eUHi84V7mdoP5uKoVRHcGpIcQ0QfHu6fNq5KuUNAFBdjBK/7XqkTytbYP5tbNUqI0gsRMxz6gQQNEjytDHaFxE93XJ7i818erYv9vPX0Wv9P1wFpVpFrWPCq4oYgKp9CnqPBvweo03FUGajOG9PNNUwPiw87WfKgwujRyF1Q0jOXYWaYf00lbvQPtrhPrF7Pip8HkZJtXNx77AwcXU+itpRa2gnjD0HyqQ6iWPgqIr2fUGGC4wbiXP7l9AymylJFZTqJQwNL0HZbdzFqvYpuDd8Dr0NuxxDg5lkdSzzzqg3tfNSav+aiqHR1BrGEGqG9hOugoIoTub6fVE+7Vzt7BMmdmsY74o6hy8zKNmSuWxZZnSVbSyz5EQ0Vc7wZmxf9RYN2bYvTtImonzLrQep8hUMoik13NSgoN1eGEb90DDQ3ISicvOj6gjihwBURhDvPoGK8rrUtqojiLs9xYdTw1ZFAIAyDI5FoMyuBMgDEDp0GO3lHSgaNYe8hN8BQGlQHPOZ/FWgdSYi5MfM08wHqN9UjHvC50r3MEaEJ9/2A8DJ8jozIDPSWIFI6NAHiMNZJ35DdKKqtklM9dUJ9dCDqQYVQ54pwthzAGi5vBenrKf8TcXArIr2pixumNkcS1/GfK6K/XVoMbfhJ3ToA0w9qEOtNURWHcFUdxnUB+YKYQUjYysoOlpnBs5S+0EY9UM9WC53DuMEr/vM7TwxFkWROeQKmG0i4Hf2pLUJuWxpWVHQ3GDWRUMPEm3O/ay2jWXM6/NAi1DO9rHJVfYemXzaV9XhCLC/CUWdxvnk3zNHRJSdZ3Rd19c7E0+uJ+NLNx8Xvl8eaA2z5hTEERHR04RfFElPhvkoakfL7GHDdMawkhJwmIuIiJ5uub/FRrSe0t5IlN+gimOgvMMxLy2bYS4iInq6cYiNiIiISMIhNiIiIiIJAyQiIiIiCQMkIiIiIgkDJCIiIiIJAyQiIiIiCQMkIiIiIgkDJCIiIiIJAyQiIiIiCQMkIiIiIgkDJCIiIiIJAyQiIiIiif3Har/86u565oOIiIhoTf3o5R96LntW/OUfKv6+4JkptFvxPzwR5aCNje2MiJ5WT8r171b8DxmXc4iNiIiISMIAiYiIiEjCAImIiIhIwgCJiIiISMIAiYiIiEjCAImIiIhIwgCJiIiISMIAiYiIiEjCAImIiIhIwgCJiIiISMIAiYiIiEiyigApicnW11D6ovXTgckkgOQ0Wl4UP0/9tHyRxPdfdKD0xRHcdtvWRwurK00Obn9k5Gv9GXXwyZ31zgfln3yuvIbS1ml8n4dtFqy9JKfRknaeEhFly+X692IHJpNun4vXxwV88qLL/fnOSCreKLBn/Vdxs4BPXnwfOHsBSwPmR8lpTP4FwI4aDN6oMT67M4LSXxXjq4EaPGen/Tn6Z97G8BcHMXgwZK73Bd5FI756pzzngjx2ktNoqV1B041G7FzvvNCaOHb2An62w/j/7Y9ew8utkM4NIqInk3j9sw1cQB0AI6b4NTZP9aAulFr8s7M1KH3zC9w+aN0nk5j81TSOnb3gWK9QcutBSj7CN6jBbrGwoRrUyYV3FULdvzQC3b80I8AFfPLmNI79lDcKenrsfOc9HJtbwcp6Z4SIaKPa0YjPj0zjVXN06fsvfol30YjXAsUaq5dbgBTahG2Yxlyu3fuhGjQd+SPe/c0Cvv/i1/jwyHvpkeWGYHTxiUOEBmt4Q1wud/k5uw+Ndc117oygtHYE05jGqy/KQ4uZtklPjOQjfGP9/85I2lC0/bk8FHdnxGWI2n07znYld2fL23C29U++zldBiYhyt/PHjaj59NeYTC7gQjfQ/y9r15mS4xykcvxsqhHfvOl2oQ1m5zvv4din7+Pl7h/g8w05tCYMI964gKUb72Gb3etl+PDNr7H7hrH88yN/xLv/Zt3MkphsfRu/3f+xmfYCds++jw+thDsasTTViBrU4PMbF7AklN97m/Qkuf2bEUwfeQk7AdyehdEOblzA0tkaTHd/YZxTO17CsblZXBfa3O3ZadR0Hkwflr0zgtI3v0X/lNVeP0b/0vupYCt5Gw/t9vgx+ndPY9gO+OW2/jE2z4xgutCVQERPjQ/fzHEOZqgGv+gE3q19H990/nxNhtYsuU/SDtVg8MYFLJ2FSy9INr7Fw43YS3Lna3y4W+zKK8drncBvv05l9tjZ1PyhnT9uRI01ZJK8jd/O1aDpYOpI7nznPRwLsFvPbdJjT7xAvIr37MB45zvCPLQdL+GYfU4Ybe7d31jn1gLmPn0B//RS+hXCCJzEi0cIdT+twfTMbeNCFKrBz+z2GMKu/S9g+s9WT5Xc1o1h8Jp8Fp6InmrH7AewC1jKce6lfc1aIzlO0hbsaMTSjYOYbH0bLV98nJp47eP2R+/jm86P8RV+iZd/s4C6DdaL9P3Db4G5abz84ohzwZEkAJ8y/mUF07uL8YuC5Y4eR66TFAFzwr7YY/MC+s3/PfdSNWq6v8btd8qx887X+PDIT7CU1vySeLgEbKuWFvxtsR1gPwdjYvirnwrLjxj/fP/wW6D0Jc4BJKKNJzmNf+3+AT6/8RPMvfhrTP64Z816kVYfIAGwnkjf/XOA4AEA7ozg1U9r8PmNEJ7DT3DsxffxSbXHzWOdPLf5B8CRnziGv1ICRLHCjclIYsw52Zy3HNITwX6b8QIGAVhvc9hCO/FPu0cwd6cRmJ3GsepGl42EsLkU+O3DJLBDOv92F6MYRnA0/HcfY+mGsfz7Lzrw8p+NVZ7b/ANg5hG+R3mqvf5lBdMAmvJYVCKi7CQx+W8jQOfH2IkQijuBl/9tGrvW6O3fHN9im8Ynju8mSOL6zB9R83dBwjrzrTV7KKkcPztbgw/f3GDfubLjJRz79P3cvmdmx0s4BnGOhznnJH+5oyeF2dtYbP1+5+vUXDUA1lDZh7/qwPCS99sbO6trMO2YI2deWPbvxHNWD9PmkL3s+swfU4n/thg1cyO4cEdI+yu2ViJaX9Zba78wR6aeO/hz9GME/7pG312YWw9SaBPQ/TZKu1Mf1XQGGV5LYrL1fXx45D0siRf6HQfRv/ttvPrRSx49NoU17VoWYyJ6S+1rKLWXvID+qSDde1ba1HaPnX0Pxz4VewZq0HTkNbz64jRw5D0svbOGM89o49hxEP14OzWUe6Qmfa7ajpdwbG4a33T+3PupaUcjls6OoLT2NbxrfiSek3U/rUHpm6+ZwdcLOHbkhVTaUA0GpyC09RfQf9aY/0ZElA8f2tcfg+eUA8udEbzcDfRPib1FxgPju2/+EpMvFX6o7Rld13UA+PKru/iHir8v7N7WwK34HzZmOfjFkE+UtW1n7l+iRkS0HjbsfTZLt+J/wI9e/qHncv4ttjVhDHdYr3UTZeP2R+/jwyM/YXBERLSG8jRJm5yM70F6d0746Mh76zJ8SI+xOyMofXMa2N2IrwbYdoiI1hIDpIIIoc7+GzNEOdrRiKUbbm+tERFRoXGIjYiIiEjCAImIiIhIwgCJiIiISMIAiYiIiEjCAImIiIhIwgCJiIiISMIAiYiIiEjCAImIiIhI4vhbbERERERPi0x/i83xTdqZVnxcfPnV3SeiHLSxsZ0R0dPqSbn++XUMcYiNiIiISMIAiYiIiEjCAImIiIhIwgCJiIiISMIAiYiIiEjCAImIiIhIwgCJiIiISMIAiYiIiEjCAImIiIhIwgCJiIiISMIAiYiIiEiyigBJw3hzHYrKjZ/GCS0P6ZzLippVJHPPYB7ys4p089FUOcqjiEmpkxMnPMsZ6xPqoPwExoNmaZWSEyfWvM7tepuPutaTJdaXzbEJmg0VjWtWv7m2bSmd40eoL0d7q0NRX7xgJdnY4hgor8PAvPcaBWlLBRHHwBqe/0SFY5yX1vUp0/kZOJ2morHA17ycA6RYXxNatvYgsTCJxEIPtnc2BSp0xnTzl7DcNGkum8TU1igqCnyhL0g5NBWNR5cwOGOUI969hFrxhjgfRUVnKaZcyxnHNfTYdRDvBlq61iJoAUKHPkBiSEGowPtJTvTZdTdyKAwgjoGjSxiciaAqD9sPfAMMKxgZK12D+tUw3tyEllnho9k8tu35KIqOqs7PRjvWOEjaKDfzCrQuTKK1cr3zsdY2Sv0TyTSMN3fgXvewcV+bieDe0SBtNXO65NwKlJlJ+x7cPtqRReAVTI4BUhzXRssweLjC/L0Cr3eXofeK3wXZJ11lxHFhqzocgTJ63bNXYfUKU47k3FWoDYdRHzaWhg4dRvvsVVwzD2zsigql+xU7GHCWswKtbRX2nkK790KZXcFygNLE+rKJzNfP8oNFKFvC9u/JiXPoFeprTVXuchybgpi/ZAZHihEUz0SgAMDouQAXiTDqh1IPDUbQXAYAaB8zAsrkd0sAAMW6kIwpRtL7DwsX+GkqGtekt7HwYn3rE1is7/mqYbzZu8eWKG+0GNRZBc2HzAt8WEFzwyLUOZ+Tzidd6FBEuGdUYE8DcO+7/J7IuQVI89fRW70Xe4QbWmj3XvMmL3dxm0MEfXGfdC4erUCtLkZJTplcbTnMoS7hKdwYFosiljGdhmuXF9G+LxXkGAfPOrBGcKXsFhKHq6BUq7jmcrGMnYsCQjCVH85uS8cwl3nTcwwBunRhOpdLF1rP4R6jLdSOAmpnkzl86FZf6UOQzgBRHnay9u+2/UzrA85jUxhWAIOGXcZxDFdBqQaARSw/EvJmBRxC13HaDVRTcbJzEaiO4HXzYSL0fCkAQH0glWHr5gL0Bpr53b+CZqu3UVPRWN6BXiyiZX+dsw31qWb5rGPhbHtpQ41S20mV36PNeuRPrLfMbQmoamsDutZqSB92GYe2DEs9XfKw/UMpoUfdedR/5roOo35oF6491cOxtBaMDoNdjntY1T4F6uUYkmnTHIw22zihZU4n70RTMTQqBFN5UoBJ2hVonYng3lHzJjR/CS2IIN5W4ZdQomF8WIVyoKrgQz5eqtqGMXjf6raL43wn8jYMlJFwk7i2zxqGyp9Yn9BtuTCM5ufT1wkd+iDVazETgQIFU+YxTE6cQMXlvYgvCEOI1kV2PooiYXgxsWDUoXFDM3pDphqs3o4PUB/WsDxbhpJNqX3L2080raBlVMicFsPygVT+B6tVDHluP9P6hpItZenBRR4tP1gEAEevWUoY9UM9aAeA2SjOzxtBsQqjDPJQkbWsvUkYCq2MGL1Kox1GuzmqAg09SGR9zmVmBBpN5jC4cB6EFYws9KAdZcZxF4dpR68CXZOpYzF/HRgTusXNMgMw2w7soefETMR8OIpjoLzDkW57Z1+gXh/ftmQUwOil6wJOFjRgMAOW4WLEF+Tz2hiGVe12OonmB1H0ism96s6r/jPVNQBrODKx73qW8y+J8kSa5mCMJvQEvOcJDxRdwKmF/N+bC/MWW1hBc4OKoQnVmFvSle28FnPOxtagFVUoYdQ3KegdVjHe14F73W1rMwxUGbEvknuu+DzZCsFU7SjQe9R7YrgoFRCEUVWZqVAaxrui2D5mNT6zx0e4QYcOHUa71et2RYXiqCejDl2jflspSuz107ePygimGoTVwwpa7XYRxp4DPgGOz/qh50sLOxzlqwKt5rBY71HjOKI6glNy29dUDI0CgII9lc7PT3YuOtcd7cjfDc/s0ap4cBiJbOf3yEOnjmF0sVvceCBqH3MGXvWVMHt6Uz1mxpA2AvT6BWhLorCCkYVJxLecy3IiqT/jxYtzKJEDSDur0nACgKo2M3AW8u5edx6Crm9eb5ofiL2uRGuk8hUMIorzEypOdpbaD+L+hOkH5sNNvoesn83r1oThsKq2HmwvN3oqWv2CCnEYTVPRuD+K7WOTSKzXREsxP5URTG2tQ+39COJtPgUx03nNF9r+fBiA19XH2YtiqWobxmBzE87PK+43psoIEgsRAMZF+No+/xtYVdskpvrqUFQOoDqCeIaJ2bE+46l2xN6mhuVZoHe2zvl0izIMahpwH9i+T6qnTcX2PCr/QNnsUerKvFaszwwkLF43vRzXLwQjKPNoQ5WvYLBatSdyO27qpuTcVahAaqgOgBXAqgDax6xjb/S49HZeQuxQHp6qwgpGFjZjoLwDRaMKplb1pJY+YV3pNj73Ou7J75aAWRUV5VHngoYM9YnM28ycN6MnJp8PQ1Vtk4hvOYGK/XVQu4fTH/zM6QSnAuUv9YlRd6td32wvWO2xJcqCPQUgjPquiH3f921/blMHwgpGxlZQNKzi9Ty+aJRbD5Jww7Mk565CFTKenDiHew0K0Hkp1ZPhl05T0bh/Bc1r9RZKgHJAUzF0X0E7hO7pjOnCKNkqP6kZ846MACiMkupFLD8SFmsxqLNiL0rhVbWZw2MHrqLCq4dqPora+3JPRhgl1WXCEJr18wHqw25lN2WcS7aEZTuJS/1Aw/L91G+xPmP+hjxp2Uug9QsyX8dQtc+cNG3NtRMmbds9QfZnht6jcg+g0RsCQJqvZQSsgFDv2kPcA+Cs19Uyh2NmijEUoIfSnXHDdrypageqbsfdEHq+1BgyXJDanO+Tpn9bSuWrDkXlfc7hwDyzhq2NnhppSMvlmpI6jlYeverOTZD1rTlK17FnQRo2JcoTtx762BXVMeUgdi6K7Q3GaE0yi3SFlluAZA6h1Qqvpp/vFCbazkdRcXkvTrVFcEqcn+KTrjATkldRDsQxsP8qlK4IWruEeVU+6aoORwBhjkRy4pwwqdscthNugLFz0dRktPmoNMG0Dy2z0pDKqmgY75Maoetq5lcVpA2PhrHngPdXD1TtU6A65ocYPRzwnEsm38SMIEs8UZzBg3GDM3rjjN+twMGrvH7rF/ykq9xlDpWoqLXmCAGpniBNReNRFUAZBmeGMVhtrCvOkzKCaCBteM0cOgGsiel1KNpv9ChBepEgL8xhqMRMMYayntQszzeL45rdq2cMfToCQ03F+DyM+svpFV6/tmSI9VmBRGECI5n1cNL8QPhqkPBmbJeOuTXfzJCp7tz4ra9hvNkc8mNgRIVkDqGdtNq2pmJIeFEpOXECtehBa1sEU1uF9TKmc97HjK+KKcCcZd109fodPTsJ/eJbB/XwNuOn/5b18ZT+hvi7td7pu5nT6bp+83Tqc/FHXMdP3sqRlm9d18aP6+FtZ/SbPuXQdV3Xb51JleGtKV2TFhvbMpcL+7DqL1V+a3/546xnYfu3zph5dZbNrRxpx0osg1j2bQf1N8YTafsXP9PGjzvTy9s/fdeZxrH943r/6eMedXhcv5jwWz+hX3zLXC8L2bezu3q/a30Jn1ufCW3AbldWGVzakq5L7SnDeoVk58Hct9txdebzjN7v1haEY2Ufl7TzwuuYGW3X87oit6UNxdlG+m/d1fuFcgauO7H+M6xPlKvVXf+Ec/fWGelcNtZLtVOPdHr6PSiXtu1Xjmd0XdcB4Muv7uJHL/8wn7HXunhSyvF0iWOg/BxKZtbmCd5hPmq8VZTluDXbGRE9rZ6U659fOfi32GgDqEDrWCla9q/xF9d5DiMSEdHTLr9vsRHlqjKCxMIa7zOsYGRBWeOdEhHR44A9SEREREQSBkhEREREEgZIRERERBIGSEREREQSBkhEREREEgZIRERERBIGSEREREQSBkhEREREEgZIRERERBLH32IjIiIielpk+ltsjj818jT88TmifGA7I6Kn1ZNy/fPrGOIQGxEREZGEARIRERGRhAESERERkYQBEhEREZGEARIRERGRhAESERERkYQBEhEREZGEARIRERGRhAESERERkYQBEhEREZGEARIRERGRZBUBkobx5joUlRs/jRNaHtI5lxU1q0jmnsE85GcV6eajqXKURxGTUicnTniWM9Yn1EH5CYwHzVIOkhMnXMq8urK57WNg3n+dtSrz+si1bUvpHD9C3TuOSR2K+uIFKwlwHTj7TOpnMZu0CeB/P+NMP5dIX23uf6Z//u9SOnnf35/PIT/rIMvzJ6t0morG8jr3801uI/J6fsvTd1aYa6cp1udxnphlFPOZ9TbcrNNxcV7vvbeRtl5Bz/F8i2MgcLsKmE5uB4WoD9109fodPRs3Tx/Uw6fvmr/d1fu3HdT7b60y3a0zjm041w1mQ5QjMaW/se24fjFh/KqNH9fDb03pmpX41hk9vO2MftNrW0KZ09LmjZHn8LaD+hvjifyVTWSV89YZvf/WXb1fSJeWF/E4S/WzEWXXzhL6xbeMunb8BGrbHmm3HUzV0a0z7suzPHeC+auun4eu//6vxq/Jz3Q9Wq/ryQBJk5/pelRIa21P/Uz4fc5YJ209XddVl8/k5WqPrqtzAcuyDrI5f3JId/P0Qb3/9Bn3Y3/rTMbrkO9yl33l/doplvetM3r/Wy7XjMSU/oaYL6luAm1Dto7H5eZp5zU4/b5nXqultDdPr981Mpfrn11Gr+OVZTpt/IywjeDtT+RXjhwDpPSbnTZ+PMAFOct08okQwEYoR/o2nOvLJ0TGcmZRBzdPB20gqcaUlpdVls1rX9kFPMaJkW1jX0tZtTM7gDHrIDGlv7HtoB4OdJFIp40f18PCxcD63T6O1v4KEVgnP9P1aI/zM7/ARdd1O/D5j4DruG0z437mzHzNBQ/Y1kH250826e7q/dvO6De9tikHQPJ6fssdCnsP0MaP62+MJ9y3mXZNdL9eZNyGnr7ueh2XtGuw4zhIQcIGkdX1z+Ueln7fWX26QNuU+JUjtyG2+evord6LPeHUR6Hde6GMXkfM7BJLdYWZ3al9cZ90Lh6tQK0uRklOmVxtOcwuTaHbzhgGiiKWMZ2Ga5cX0b6vQthRBfY0LEKd0wDEcW20DMpuIXG4CvlcM0QAAAhuSURBVEq1imtu3a/nokD3K6jKV5nN/LQuTKK10mXRqsrmQnuIe9UK2quXsBx42EzD8mwZSjYFXX9jS363ZPynYZdxHMNVUKoBYBHLj4ThBmsoQOg6TuuK1lSc7FwEqiN43Tx+oedLAQDqA6mCt25GKN+F+dNFoPgfnZ9t6QG++x3soTd7iMscTvv368Di74D//BlQlmnju4A3dZ91PCz+zszXLqB4HPiTy7DduvM5fzQVjY7hZeNa2jjxTbDzbv46eht2ocrvnDQlJ86ht+Ew6sM5LC/oPUDDtcuAsjuc+f5g5+USWpA6H7LfRubjkpw44Rymm4+a0wACXg+zOi4axodVtDcpxrmrxaDOKmg+5HGQHgPJuatQrWufqWqfAvVyDEnPNq9lTifvRFMxNJr/eirAJO0KtM5EcO+oOY5qNt54W4VfQonRUJQDVfm/yAdU1TaMwfsd5okex/lOYHAmkudgxYUwpn1t3yRGHuOTI3buKpSuCFqbStFyLtgYcXLiXNpF9HG2/MCIGJQtbgUKo36oB+0AMBvF+XkjKFYBKN3DaUGstcy+gAJAZQTx7jJgtMNoN0dVoKEHiazPudXaBRz6DPjyfxm/Lo4A+Az4513A/5kH/ssPCrfrBx3All3G/+2A7TETVjAyVoqWLuNmbAQoPRg59N8CJY9dUe2bteeNZDaKCvPaUtFZiim5jfgtD2SV9wAtBhXm+e/58Kii1pp7cnQJg12K8z4RaBvBhA59gKmtUZyc0GAHMGMfeAaWsiDHRe1sMq/5TWjZ2pM67wvdSbDePNt8kMoVHi67gFML+b83F+YttrCC5gYVQxMqBtwary8N481GQ1nf4CCM+iYFvcMqxvs6cK+7LfBJsSqVESQWJpFYmMSeKz6TDIVgqnYU6D2awyTDAqpqMy8klZFAN+zkxAnjwjyUbZt5nFWgdUwBYBy/2lEA1RGcktu+pmJoFAAU7Kl0fn6yU5qZPNqRxaTZPHrudaC4A5g7D3w5D/yP1/O7/YX/LkzSNgOx788DKz2pnqeyfwT+30Xg+/zuek1UvoJBRHF+QsXJbAIU8wnabheVu9A+exXX5CZQHUHcvLYkZooxJL8Q4bc8qFXcA2LnooD9YBzGngNl6L0iP1wpmLLyuXAYy/udva3BthFc1eEI0HkJ4xN9zgDGT8DjonQP29f8+JZza/SC0gaRa5tHGPVDZhvoAk5mNfk7mGfzujUh0q1q68H28g7c6x5Gq19QIUbImorG/VFsH5tEImgjzDcxP5URTG2tQ+39COJtPgUx0y17LN7+fBiA19XGfUipqm0Yg81NOD+vuJ+UlREkFiIAjCHBa/s8hs5WK1DZViMVFCcW1rrnY20YQ2Ae9VT5CgarVbTMGr86eohMybmrUIHUUB0AQMN4l9mrNGYd+zgGyjvQ23kJsUNr0OMJOHuH/nkOOLsbKP8r8Jz52d9UAt99C2DX6vZT/ldgd5Hzsz9dBDAOnO1wfn7zutF79RhInT9h1HdF7Gug37Gz0hltYxFquepc4Vwc9V43nLCCU91XcXJOQ73bg6jfcjervgfEcW0UUNGEok5HQTB+2KvXxnjAKLoSR2tlRY7bcGcfl7CCU93mw1uA69NqjkvoUBsGL/fhmqagflMxlNkVLANP3gOjPQUguzbvOnUgrGBkbAVFwypez+PDdW49SMJBsyTnrkIVMp6cOId7DQrQeSnVk+GXTlPRuH8FzV7zY/ItQDmgqRi6r6AdxvCHf7owSrYC974TAyFj3pERAIVRUr2I5UfCYi0GdbYUJRthSGlVZcuVERwtN02uw7BQ4VXtM3qHYM2DmL9kBkLCk6X9maH3qNwDaMx3ACDNedCwbKazj4v2EPcAANnM+wrobyqB//ut87MHHcB/FQKkudNAcQ+wMJL6rGC9Ogngu3HgR7oxf8n6OfQZsLLRhtmCnT+xc1FsbzB6rpOB0plzYcYm7V4Iowco4jt/xxr+zXp5oe4B89fRK/ZimT9TPnN37Hl+OW0jyHGJ43xnKdobVAzZPbOFOi6pc3q1w4MbQej5UuD+Q+dX2VxRHVMO0tt8sHQFF3Q2t9uM8Uyv61uz8OVZ/pnS5TILXZbf1/yFtw6kGfUFe81f+qoD4w2lfL/F5kxTsNf8g0p7e2bjy/5tyQyv4Tveaku91p/+pqP724A3T3t8DUBB6tTnNf//6NH18+Zr+7+vd75y//t6lzfZ5Nf8TUHfYnN7q07MZ8a35taBz/kjXi8d52amdJ5vukpvd8nnmfy6td9yyZreA8S8pZU3h23IMh4XsR6lN9HycFzk/LrfL9yu0+73BbF+vf7vuAfl8LUq+XzN37PNZ0yX0C+elt+4zP9bbDkHSPL3szhvoOKN2lzPPiE80uneF/psbvp5K0davuVgxbscuq47v5vG5aS0Xs1O+74a+0YofddNgbhfTFZXtqyt6ff45Ef27UwKkqQbhHvAJN1wMtS3oz0VLDiyCN9VJAZH1vcc2UGJGaSIQZK1jvjjFsQEDZBUeH/v0e/rU8HaRuJ1/tw6I331g3TR90iX6fviHDdbl/PMcW77LU+T53tAxoBMCILSrpFBv2PH57tyMtVvpuO0yuOSft9zu+anP2Rlet19YwVIcv7lusvQ5r3S6en1lkvnil85ntF1XQeAL7+6ix+9/MO167oqkCelHLSxsZ0R0dPqSbn++ZWDf4uNiIiISMIAiYiIiEjCAImIiIhIwgCJiIiISMIAiYiIiEjCAImIiIhIwgCJiIiISMIAiYiIiEjCAImIiIhIwgCJiIiISMIAiYiIiEji+FtsRERERE+LTH+LzQ6QiIiIiMjAITYiIiIiCQMkIiIiIgkDJCIiIiIJAyQiIiIiCQMkIiIiIsn/B/0RKQaj4X5JAAAAAElFTkSuQmCC;rotation=-10;" parent="1" vertex="1">
          <mxGeometry x="1090.33" y="334" width="212.35" height="51.27" as="geometry" />
        </mxCell>
        <mxCell id="IMXVNbkLPl_RjVBT48Yj-1" value="" style="shape=image;verticalLabelPosition=bottom;labelBackgroundColor=default;verticalAlign=top;aspect=fixed;imageAspect=0;image=data:image/png,iVBORw0KGgoAAAANSUhEUgAABWMAAACzCAYAAADsUg74AAAgAElEQVR4nO3df2wcVZ7v/Q+P0IgZMeJOHnB7LsEMJHeIJo4ZvBZD/MRk2TybXE0Hi3hH3LlsiMZYpsfZ2VHAIjK7MZtd+24ihIdoZrFpLCurTMjuoomNjBttcp8sE5xxIHQMcZy9YW8cBpMs3R02V2hGu2j+6eePqu6uKldX9W//er+kKO6uOlWnTp06VfXtU6duSCaTSQEAAAAAAAAAyur/mu8MAAAAAAAAAMByQDAWAAAAAAAAACqAYCwAAAAAAAAAVADBWAAAAAAAAACoAN9gbLSvWdW1ln99UyVcfVzDHcZy20bixrpKuvylKTGym3ICAAAAAAAAFpkbs0+a0oHaPdrf2qvYdF3622hfWFHVqaEEK0+M9Gnn6l7FBlLLH1WsBMsFAAAAAAAAgIUmSzA2ruGOPTrfM6jYtoBtSkNnqGQrn718UcG7A/4zAgAAAAAAAMAi5z5MQTyqyHhQHdv8AqVTOmAdwqA2rKht2m4NT0bUNme6MTzB1oNSpLtd1bW7NRx3efx+MpxZdkdEUd/H8zPDHqTSJNy+N9eXklpvZkgGI5+Jkd3pNG0j8YLnn7t+SzlNhjPblm0oCGs51IZ1as40a7kDAAAAAAAAWIjcg7FXryjStFI1nkmNYQzO9wwqNj2q2PSopnpmtDUdAJWki9o5KO2bHlVselD9TRFt7ZuSFFDLwKjGWqVgz6Bi08+rxRn3nQyreoc0Zi47tlca6L7okZ+4hjvaFdmcyc/Y5sz3O1f3pr+PHVqlnZscAcyDe3TqITNda0Rba5v1rDrN+YOKdL9e+PzxqGbT+TLKYcAarB0PayCV9kRIwYN7dGAySzmcWKmIZzkAAAAAAAAAWIh8X+CV1eRp7W8KaZ+l92zVtu3qGj+pU+k44xr17w2qSpIUUEt7ULr0iSVYm130rYiCPY9kxqYNBLWvZ41Hfl7XTtnz07AtqCqzl+9YZ2bcW9U/ov6miE5NWtK39mpXvZnuoaAkS8/g+vXq0oxm4wXOHwhqVzpfAW3YvEaRy5aFWcsxEFRHq3T+43hu5VAfUmw6VJIxfAEAAAAAAACUj3sw9vaVCo5f0axHwsTHM9LqO8xAa0pANU0XNXu12GzFNXtJWndn7uPJuudHWXr5BlSzOhPwnOP2lQr69gzOb/7MkAbNqsu5Z2v+5QAAAAAAAABgYXIPxgYaFHT2HHWounNVll6ua1Rze2ky5wyWzl7OHsTMmh+PwHKlgpzRvmYN3G0dzsGjh6+Ne9DYqxwAAAAAAAAALExZhikwhhTYv8P5Iiop2meOtVq/Xl3jYT1re7FVn3ZqozYUHeM0H+W3jbsa0cBBjyQu+YmORJQwA8tbHS8G23owqA31xeYzF87erXGdOp57MLXmbp9y4AVeAAAAAAAAwKJwY9Yp9SHFptfrQG27qrszXwd7BjUkSarTrule+/SmkKYGgnOHCihA1bbnNXa5WVtrI+llj/WsUeRythQu+WntVUwBtQwMSh3tqq5Nb4XGKjbOqhHYrt7RrP2SpDXqas21Z6xRDlParbraZuML33IAAAAAAAAAsBDdkEwmk/OdiVylHvcf2sYYqgAAAAAAAAAWlyzDFCxAk2FtPbhGwUYCsQAAAAAAAAAWn+zDFMy3ybCqd0QsX6xR/4nn1UIsFgAAAAAAAMAitKiGKQAAAAAAAACAxWrxDFMAAAAAAAAAAIsYwVgAAAAAAAAAqACCsQAAAAAAAABQAQRjAQAAAAAAAKACCMYCAAAAAAAAQAUQjAUAAAAAAACACiAYCwAAAAAAAAAVQDAWAAAAAAAAACqAYCwAAAAAAAAAVADBWAAAAAAAAACoAIKxAAAAAAAAAFABN7p9+fY75yqdDwAAAAAAAABY9B584N6s01yDsZL0e3X3lCUzlXR26sMlsR3LEfsOAAAAAABg+VgqsaCzUx96TmeYAgAAAAAAAACoAIKxAAAAAAAAAFABBGMBAAAAAAAAoAIIxgIAAAAAAABABRCMBQAAAAAAAIAKIBgLAAAAAAAAABVAMBYAAAAAAADAsrfq/kfLvg6CsQAAAAAAAABQAQRjAQAAAAAAAKACCMYCAAAAAAAAQAUQjAUAAAAAAACACrixNItJaHTXj/TUROrzN/XiWK+adUw7tw7pmEuKLd1/o7/UT/VAz136xZk23edc1qrnNPOntaXJXo7e/9mjGvzG36j/4aqKrncuoww++cFr+pNvz3NWFon3f/aovvdz6zdbHPUqf9fe2KMHfv39MtXDab10/9/rjrFeNc93dQMAAAAAAFhUnLFIyYhH/lj6a+f3psY2vfODK3rgyY+MuKUlHvP+zx7V92baypxnQwmCsdN66f6/kl55TTMHzK8SxzT6r5K+vUX9Z7YY330wpFV/u1LvHNii29Jpf6wXT/xIg288nAmAfvCGnlKb3qlwIHZeJY5p59Yrai8yeLjcbenOBNKvvbFHD9w/VHRAFgAAAAAAAAvT06+4dGQ88JqaJWXrCPeLxx/V9/5hWs2p2GPimAZ/vkW/OLNF37t/qOx5Ln6YgsRVXdAWNVo3vGqLmnPq0Vml5j9rk3p+qtGEJE3rpSeP6ekfWAO2QP5ue/jHerHxI32SmO+cAAAAAAAAYKG470+f09M//yu99IEkJTT610NS98MV68xXfDC26nat1TFNfFBo+i1qf/xf9NQ/TOvaG3+vnzz+3AJ9NH9aL93/qFaZ/3a+kYryJTS661G99IF1+h4zuCzbPKm0xrzmPB8MadXWIR3TMX3v/ke16mfTWdbpXCa8JfRJuku6fd+t2nVM1ySjR/L9Q3rfluyYdmYta8dyHGmvvbHHMu1R86DO5MdaB3a+cbWE2woAAAAAAIDc1OrR7m/qJ397TNfMJ/T/soJDlpbgBV61+pOxNl14cm5wKlepiPQDPXfpFwtyeALLUAxnXtPMmee0Nt2b1/CTJ99V4xlj+i8e/xc99ddmwM8cw+IfN/2NmfY1NY7/lX6SSvjtNs2MtWmLtugXZ16zjU+afZnwc+2Nv9dPGpu0vkrSB+/a9t3TE0N67QNJVffpvzbaf0i49u64jj3+fZdxXI06cKE7sx/f6f5I39uV2c+nf92kd9LTzIPanOasA+2/HsrUAQAAAAAAAOTtJ0+6dL7LwW0P/1gvasgYP/bPKvuEfgmCsZKqtqj/zGuaeUUuvTvzsUAfK//gXf2ksU2Ppnvs1urRbukf381k9ulXMmOT3vff2rRl4oquSFLiff3jxBa1WyLs9/3pc3o6h9VmXSZcHev5UfoAfOBEU2Z84m+3WXpb16rxcenCJwlJVWr+wRZb0PT0iX/R000uPwiYdcD6S8ltD39fT0+M63RCxrL+NHPw3vadppLUAQAAAAAAALh7Ot357jXNHCgkqPov+uRfy5AxDyV4gZfFt9s0c+Zhje76kXa+kXmZkp/3f2b0OHxHP9UD1gF0F4hrn3wkTRzTA85BfB83Anqe/vWKjjWu1F+WLXdIsb7Ay27uG/a2dJt/fPs7enri73U6sUXNel//qDb9pcswGdc++Uha9R3HQV2lOxrNg7ZKxpATTx6z5kjtEnUAAAAAAABgAbn2xk/11KrnNPODd7Xqb4/p0YICuYUpbTBWklSl9Zu+qad+nUOgUpI+GNL3fr5FvzhTpdv0fT19/1/ppSaXN6HNo9vuuEt6/Pu2IQQycujKa/aQTO/UxFVdkHRHyXKI7IxA7Cc/eE0zB4xv3v/ZoxpMT69V4+P/osF3E1qvcWnTj10PvtvuuEs6cVXXVOuY/k3d8Z9lBGL/dqXeOfOaMT1xTDu3mv2Y//PKdC9Z6gAAAAAAAMA8ShzTX/RIL47VSlVVelE/0l+8cV/OnUqLVfwwBYljeukNa0DSeNR7yzdy2YBpvfTkMcvj+LX6k1e26CdPFjb2bNl8+zuWt6wVkFbHNGgpo/f/YUjHPJKglBL6ZMIMmEqSpjXxc/sc9/23NunET/UXPXfZhhKw+fZ39PTEkP7Csh+vvfFTPSVjXFqj5+zt6WDrtXfHM/vYfMkddQAAAAAAAGA+JTT610NS94/N9wVVqfnP2iTHu6HKqfiesVW3Sz0/0qqezFfZHxe3Smh011/pJ48/pxlrL9hvP6wXG3+k7/3sO1l6opbXMddtMV5StnPro1qVnvJNvTjW6/KiJ6dU2sxyn37lOT3987/PzFK1Re2PP6rv3X9Mevw5zfxp5d7gtvQZ4/s+sPVRPSVJ2qKnH3fMUnWf/quG9NTj31e/x3L+5Mxzeul+S/1obMuMS/uw0at7lRno3fL4Fm3xSDunDgAAAAAAACAvP3nyUdsL0p9+xftp+/d/9iM9pTa9Y41bVm1R++ND+t5fV6bb3A3JZDLp/PLtd87p9+ruqUgGyuns1IcLczvMR9jbz2Re0AW7yu67zFAGC2l4DAAAAAAAgOViIcTxVt3/qGbOvFbUMs5OfagHH7g36/TihylAnozu0Mce/w6B2AXCGG6gTY8SiAUAAAAAAEAZleEFXrAzel0+NWH56vHn5mUIBjgkjmnn1iEd0xb94kzl3poHAAAAAACA5YlgbNlVqfnAa2qe72xgrqot6j+zxX8+AAAAAAAAoAQYpgAAAAAAAADAslfseLG5IBgLAAAAAAAAABVAMBYAAAAAAAAAKoBgLAAAAAAAAABUAMFYAAAAAAAAAKgAgrEAAAAAAAAAUAEEYwEAAAAAAACgAgjGAgAAAAAAAEAF3JBMJpPOL99+59x85AUAAAAAAAAAFrUHH7g367QbC0m0WLz9zrklsR3LEfsOAAAAAABg+VgqsSC/Tq4MUwAAAAAAAAAAFUAwFgAAAAAAAAAqgGAsAAAAAAAAAFQAwVgAAAAAAAAAqACCsQAAAAAAAABQAQRjAQAAAAAAAKACCMYCAAAAAAAAQAUQjAUAAAAAAACACiAYCwAAAAAAAAAVQDAWAAAAAAAAACqAYCwAAAAAAAAAVECJgrFxDXc0q7rW+Nc2Ei9BOvu06o6IEqXJbIH5KSLdZDizHbVhRR2pEyO7s2ynowxqm1Vdu1vDuWarTKJ9fnlwyXffVJlzVZ59Z9s3LvtuyYhH1OZZt6Z0YAHUvcpZLNtr1N8Dk/Odj6XAvs+jfZVot0qBOjAfEiO7F0n9MPNakWuopWpKB2qLO8YWU33JrvhywHKy+OtLtC+f+wlk5XuPMQ/iEbWl76v962pZrwknw2U/R5fsHDQZLup+ODGye17aBN/tj0fUtpTv8yvVHs/rsW5sYypuk/O2esXp0u1E+eJZJQnGRvvatXN1r2LTo4pN92pdd3tOBeCZbvJ1zbaPmtNGNbY6rLoyX8iWZTviEbXtmFH/CWM7pnpmtNXa4E6GVde9SmMe29l1KFMOsenn1RIo5VbnLnVDp7tXSVe9Gq24ZsfXpLc5Nj2qWGddWfNWnjpo3zdz9l0pLJTGPxDU0DzWLWChaegsf7u11HDjWnm53GBVbXtesYGgqiqUp6WnTrumR7Wrfr7zUUY5XYssg3Iou8XyQ6+fXLaD+uJlafxAk+N2LLh7jLiG94a17lDqvtq/rnJNKElTOrBjRv0nQmrIN6kZxJ29c5WWTju4mFSoPQ4ENXRolXburXQHgLiGO/bofM+gEdM5EdL5HTnUMZ84XWLiioLpeFavug7uKXlAuwTB2CmdOrhG/dtTDVSdHutZo/1v+Z1gfNLVh2wVpmF7SMGDp8sYtCrPdiQmTirSuj19Aqratl1d4yd1KtX76q2Igj2PpBu1kmxnPKK2MvzCVrXtecX2SgPdEe0clPZNezXGq1RTsZNumfbdxzNS6/r0NlY1blRw/Ipmi8nqZHhJXHwZjV6JgshLpkyWPv9e8TkqUxuFHEyGSxQwjWu4g4vpnMQjaitRGxftW9w9zVAMzrvID+dsSOIcNIfRaajm9vnOxzwq4FowMXJY+y0xjbzUhxSbXq9TOyLav+O0NuQbnF9q56zFekzmku/69bZYV0XEo4qMB9WxzaxUgaA6Wi8qMuGdCb84XdW2kKWe1mlDq3T+49JuWPHB2MnT2t+0URssB1RV40YzoOjsEm0+Et435ZPOxdUrijStVE3RGS5kO+Y+nmA8vh5W1DNdXKeOX1TXQ9Zf0uq0IV05jGBgsNGSONCgYFNEpypyUKUeb7V26/a5cLt6RZHWoLq8gpLxT3S+DLnNqkx10Pj7cLo8jAN2ff6/BkpKd50fXKmp1C+rk2FVbworooi2pru+m/tkxOwWn7r4tXWhn9v7LNrX7N7F3pYun2EInMM3fOKYP6CWgfU6VVSXfZcykeY8EpDZd/bHD6yP9KR+mc+Ug1EG1mEmbGWWeiTIWj6eNxqOoTc8tnluXqzrdvk12PZ4kssxaakX2fejPX/Ok3L24TbM/IyELeuyl7O13Bo6O6W9xQwbY+Zz0xV12HrqZVunc8gTR93uiCia3jazXKz71Lqf8tzntt4ec9blUgccy4169hbJXsbO+p+e5tMGZM2Ls77Uh7RPfUUNeWPUp3bNtqcupo39tPWgFOlut++LjoiG+6z10mOfem1/UcegT3sg5zHiP9zQqTlr9dingaCGHjqd32NTTub6B+4eTP9QHe1rVl33RengHsuyXY7pOY9AOtuLue1SwlHX5/R6zlrH3NqUPMrKUc9t6V16b7odp/b6phLUKcdQIPm2B271JUv5zRlSYjJsmV6m827O1yJzh0TJq564tovZ64KxbyPmPnJvr2zXPrY67rhecDvv+Z2HnddhHsOn5TSkVTyitto92q+L2rmpOXM+cp6H0o8Bp8q70PN7mc7Zbtsht/3lMoROXvVht4Ynncd89mM2l/rid8w7h42bc59TRH22mtt2uw03ZHzXNhLP8fplAZ+DfO4xKnoOcq2/9vJ3q0vlvSZ0ylJPs7UX2door/XlfS04N6bhfb/jtohPdL4pqK6mGc3mfP2Z5V7R455QUt7XbAcm7Nvqfg7I/drdVpfc2ucyHZPZ12mt487zo9sxVExbYo11VYZbjKbhoaAix6NKzBk6wdi+tpELPnE6h3hEAwctAd9SSbo4efoDt6/dnX05GfjhWDJu/S42lnxi7cvJ95x/W+f1S2cTSx794cPJJ4Zjueer1Nth5uHFs8lkMnku+eLaZ5JHY37prGky3nshtS2W5WQSW9IYfwfWWv451+UmNpZ8Ipf50svPlPl7L3itI5Y8+kNj3vjwM9n3R2ws+US+eXZYMHXQui0vnMtzKwzvvfBwMjBnP2dZX2qfOPL13guWec6+PHefWfIWHx7LbOtaR7qs+8JaF+ceb57bcPblZGBtfsdn9uU5j5lzyfdSf5992fb9i2sz88WHn0kGLJ+N5Vvy5FYWjn1qL0ev8nA/rlOceTHWlVqWyzFv2y/OY9LYTmtZ2fOZmt+yzNhY8gnL5/jwM7b9Hh9+xrGdc8vBuq3vnXXZr6njIo9jYk65WGRdZ2ws+aKj3O37NPM5tfx0nhzlkN8+d5STs46b22/fxy7tRpby8dpeW56T55JHzfmytwGO+pjzcT+3/feV13Yl0+Vm2+de+zTr9hd3DPq1B8b81nKwty/++9cxv+u53ZqXLG2pK/MYzdJ2249ny/zW71zaGK/23dlmzKn/nnXMZf0uZeBa/21tpUteXa4R3Y5TZ30rvk65HWNFtAc+x2imfDzyVNLzbtKlbN2uRez5ybue5HncGMelx7HiKLf42XO2OmgtG3teczwPu2y77bgZNqZ7n2OdnOuemxfn/i/8/G5R4nO2W77n7i+fc5NvfXCeo7yPWd/6kkv6MtZnJ+e+mrPvnPcuvtcvC/gclOc9RrnPQXPLx78ulfOa0PscnSX+MGdaDvXbdf25XgtmO+az3e/M9d4LlthJDm2R371ntnvCUrU19jrvdYxluXd1nlfPnnMt45Iek1nXmf16wn5NVpq2xPs8mJt8YkGu68sS88nM6xenSyYzdaOweFYu21GiF3h5CATV0RrRwEjEGGdkb77jlsU13GGM6zlU6kh0XgJqaQ9q/2BEw317dL6ns2Jj39jGjM067pvl17BNYUXGw6rL5VcqSV2HQvZhErL2eg2oZcCYt2rb89n3RyCooWnHeL/z+XhToXVwMqzqvdK+1LY8dDp7j4ds6c1frPId67er3Z7Hhk7LkBD169Ul81dF81eaMcuvhVXbgmrQ3CEwVP+I+pXDYwPOrv6SGjp71ZVt/vqQYtOj6rjcLt9fWHMsk8wjAHVqSP3aZxu6xOVRgdbe9PSGh4KSLNtgLbOUppDtV9asQ4TMKQ+zLfAaBsOSF9U/ov6mi5q9mn12p8wxaWynLI9QNDwUlC59Yjueug5ZytL2aIb5S7alPlVt264u23Zah+owRC6nCiqghnqXnWQe41N3H/b/Vdf8tbju8nbFPMYrcl1nIKhdlnLfsHmNZT5JTSHtM6dXNW5U0LotgQYFneWe6z53Y1mXUcaZ+jfnWAsEta9njefi3LY3ejgs2c4tdWox15m1DXDI/bgPqGVgVLETKzXg29PO0jsq3zHAm0J6zLrPPfZp1u0v8hj0bg/MY+SQddgd+5A1vvt38rT227azTo/1yPWX9YbOUcWmt2t2k0tPDgejt8lh1ZzwOve7mXtMp/m273PbDNWHNNZqyZdvHfNYv8m1/r8VUdC2/439HDkezf36wVHfSlqnHOsptD3wK7+G7SGp+3UNj/Rp5+pe9zazDOddN85rkYwC6kkhx43fI7GW69Wq+jojL+Zy91nquPPRw1zYtm3yde2UfZkN24Kqyukc68XY5p2HU/Vu7hNzxZ3fM+lKfc525bG/8q8PAbXsDSmYzlcOx6xXffFMX6H67MHYdx5P43ldv3AOyvsc5Muv7SnxNWGaZz119Noz591Q75fOSz7Xgi5DEOZxv9PQabZl9SHv68hczlke94RFtzUm+znA/xhzvXe1XqvX17k+XVv6Y9J/nWmTYW29ZKnLJWpLqu5cNededV7VP6J+hXVkJKJnu1fZ4ibezONjelSxvdKzxfRkzuLG0i7OwjKkQENnr9bVGoPq7vK7CLQORRCPqG2TOcD2fA0Ab81PfUhjq5u19VJIU50+G2Kmy/Yo/7o7A5KynaALGcfGqCwtklFue6V9C+SFHQ2dveqqPaxT8WBlB28vqg7GNTwYUVf7qONioFmnJkOWRtZDfUixEyvVtqld1cdDmipmf5jHQiT9xRr1S+nhO/bNTaDZS1LkYLuqu+1Tuq5K8iqDrMvMZkoHavdov4Ia8xxHWDmUSUAtA4NSh5nv1l7LCdv8YWY8M3ewJ8t6bl+pYJPyG9YkcIfW6crc769eUUQRRWoj9u+bViqhurIfYzV3r1HQc4e5pzHENTsu7R9v1n7bHGvUH5caXBbb0Dmqsb5mVdfKuPh3rbepfWG8qM/zuA4ENTR9hw7U7lH1Qfc64rXOaJ/x+Htaq9wF7tC6fMeqzrbP82Ica+seyn3F7tvrs5xsbYBLXnI97hMju1XXfVHBnkHFPH/sNM4vNX3N2lobUdeh4l4C4L5PPba/2GPQsz0wx47ba/+26s5V0vFPlFDAd/8mPp6RxiOqqw3bJ7TGNafQJ8Oq3hFxtG3uGjpHNXX3btVtalakZ7A0P0j7tu/u5WGbXui5xZRX/b99ZfoH4vzb2jLWqULWaZnuWX6BoPb17DZfIJqtjpTyvFuI3OpJyY4bN/UhxQ4ZN+3SGvWfMG7aEx/PSKvXz7m2qEkFCQo4jNyXKRVyjnWqatyoYPdpRTvr1DB5Wvtbtyvmka6w83tpz9n5y7E+uJaxyeeY9eWZXvNfn81A28BEXC3bpFPHpf69HttluX7hHGTI9RxUXvlfE9r41POG7SFpb1SJbUFp4qTU02kcn0UcH7lfC1ZITuesbPeEJWhrsqXJeozVud+7BoIaOiG1bWrWTin7tXMpj8lc1ymZL6+SxqYz5VuutmTerL7D3DYj4J6KK/qd04w4nUMgqKFDV1Q9GNFjJYyxFR+MdblQTkycVGT1dg2lPo8c1vnWoNT9uqLbzJO6X7p4RG1mL5ziLwJKsx2KRzRwKaguhXVkMmhUbs90AdWsliIfx6V07zLjV++a7ZLrxWE8qsj4KnUsgLawtMr4Qq9y1cFSCAQ1NB1M/8qXPbjlwXIsGPma0oHaw8a0rDeqRt3rai8gaOK2THMcYHsww3ozOKpYrsv3LZPMDwvGWM29inUGNNzRrtn2UcUGjLmifc0ayHPTPJnbuMH5/e0rFWwKLZgfN3Ixe/midLdktDFr1L83v95QxltjzQu0Dln2j/2GzuuG0c58i6fZ4ybiEkBwW+dsX+qXcWNFiZHdqruc+3b4yrbPC3De1s6b+8CD2/bOPV+k8unRBtjkdtzbLryn8wsixzrNXrLjPhd5WUSz7lO386WprMegR5Bm9R2qypIv6/6tunOV1Lrdv6dH6qJ1OpRz7qq2Pa/YtlRvCClYihti3/bdWR7GzU26TSn03GKRV/0v+H0B81Gn/OpLLuU3pSPdq9TVGtHAyCOO/V2u824hvOqJwatdzOm48VMfMo6neERtm3ZLJ55XS/qHFGdQvfAX9lRlXWZh51j7IhoUbArr1GRIeiuiroe824f8zu/lO2cXwvc8eclRxlevKCKpQ/I9Zn17YHmmj7ucBypfnxseCioyGFWiUYpoo/Z57S/L9QvnoIUn32vCNL9zU6BBQfXpVLxBOi4F9wZySud2fOR/LWj0uMzlR6aieZ6z4h73hDlesznbc2tb48L/GHO7d63LbEfqHTbW6+ZyHZNe60yLa3jv3MBkSduSdCC0/Nz2afStiIJ3P5KeJ3o4rHWtxlPuRjDVL05XGcUPU2A+Ar61L/OIzZFuy2C4k2HVHd+ofZ0h7euZycznk854tOyRygRic9kOTenAppMK7g1p196Qzu8wH1f3SWc8btZneTnDYctLo8xHCHZkHn2PHg4X8ZKoBWIyYntkLgL3UzsAACAASURBVNq3R/vLuU1lqYPG47P7B+0v0th60HwcJF/mI4Wx9iuqy/fFG86X102ezvSCMF/4ttX2EoOIojIu6qx1K2eBO7ROEQ1YhreIHrb2yJOME6H5mEShF+iuZTKlA5ZtsfcAsd5ITemUtWddIcbDOmJ9sdveLG1OoEFBhfVsSd5AbwR+Mo97TOnAjohnily41VPjUaWANmyWdu7NdZiQuIb7MvNW3bnKNjXaZ1785PsW1JTUECYnVmrA+sIB13Wav26nf500Hl0rSq77PC/mo/bdr2eOtXhEA1nrZ/YybngoqIjlfCFNaXgk7t0GOPge95Ph9OOnhd1QpR7ZGVTNYL4vAfPep1m3v6THoJPZ1u9wvOBnRyR9Dqm522f/1q9X18E92R9dikfUNrhSU/kO8WBhPA5mPJZe1CNS9evV5dm+G4/72duU1229Two+t0jKr/6bx+jmBuPi2jw3nbK8mOvZbp8fPeahTvnVF+/yi2u4Y490KKRdnb1a5yyPspx3C+FXT3JoF/2OGx+JkXCmbAJ3aJ11ueP2fZsY6dNOZa698z4PuywzOhJRIu9zrJvUMGi7NXDJMayLiju/l+ecXQj/+lDVuFFB5zl60LJfij1mPdMbN+XzWZ+NZRiP2z+7N6x1ziFCvK5fOActIPleEzqT+9Vz47iPHH5dEVleQp3v8ZH3taDlh+tKcj1ned8T+l6z3b7Su61xzYfXMZbl3nUybJk/oJomS5JyHZNe67SI9rW7D4NUorbECIRWsGehOQxBuv7HIxqwDPmTGNmtrerVrs6QxlZn5vOO09mvV1PXCsHUNWmJlGSYgobOQfV3tBuPnMnSWyYeUdsO45HGKkna1mnMZ/5akDWdKdLt8ghCkY9HFrQd5sXx/tZe81dl8xGy2rDxS7HXdqS6NJvdxef0RqgPaapnt+pqm43PLl299++wP4LkWwaBoIZK2mUwX1e0M7W9UkW6r5ejDlZte15T2m3pqm88BldU4KY+ZB9yIxBUR6vx6K9RTi4NV/0j6ld7Jh+tQcvYSpbH+s1tUFNIU9s0t26lpvn2hqnTruleHajNHH9dh3rVddDaEy+gloHnc91qb7YyCajmkmNbBoy681iPVJeuV0F1ZXtcPVdNIdW81azqHebn1t4sj+cE1DLQq9lae3tUWFtkPCYR2ZRaVlBjh4LSYCEbYMnLZmMcG+NSwl5Pq7Y9r7HLzfZHTrIekwHVKGyZN2h7fKWhs0RPKtjaqOzrbGkPqjrd/q1RV2uOY25lk/M+z0+qjLemHg9rCmmsZ40irr14Pco49ditpf3sOjTq0wY4+B33zjaoYHPbgIbtIWlTu6q7zUeG3dJ47dNs2y+V8BicK9PWZ8rM/VxgTp+zf+u060RIbZuaVZ1eQuax6VKek53HYNW27eqq3aPqg7mWRyqv2dv31HkxU996NdYayTyJUPC5Rcq3/tt7fNRp1yFL/fE8zjJ5rXSd8q0vHuU329eunQppqj61vatUnerxGSjXeVe5XYs4+NUT/3bR57jxUXWnbNeaXYdSj9/PvYax189CzsMuy2ztNXom53WOrctcy9ja5fXqGo/ofE/nnGOomPN7ec7Z7tvhx7c+pO6XLOeH/kPGeyzMGYo8Zr3Tp4ZPqVR9dm+7zQB7d1AdznOG5/UL56DS9PYvjfyuCZ3863lV40ap2+jVWJVHOpu8rwWNIHPdW1PaVT8Pj6Tb8lvneU/oew62PMpvHC/OtsaN1zGW5d41/onOW+YP9gxqyBofKscxefvK7OtMmQybQ4UZx22KUVdK0ZbENXtpjYLbK/mYt7P+W/I8GVZdt9R/InVe7NW62na1aVBD27zidM7r1RI9GeBwQzKZTDq/fPudc3rwgXtLuqL5sFS2Yzli36GsJsOqHly5YC7cUAEV3uepx/Hn98WTQA7Sw2Bk622ZeSRwIT8WivnmX09oF7Mxhp6psQXulv5x51sfFvi1WjnqszF0j+Mx4QVeDkVbBuegpdH2ubVTgEOJ2qulEgvy247ihykAAAAZk2FtdbwRG1iYjMddvYZHSoz0aed4gUP0YNnwrSe0i1kZw3n5vL19qfGtD+V5JLRkylGf4xE92y31b1+gL8Mpi2VwDloybZ/xtMbOTQt1iAjMu3hEbTtm1L93if5wVAYlGaYAAIBlKzWYfVruj9oClTX3DcTOR6pTL/XIKNUb1bGU+NYT2kV/qTKyDMm0ZPnWh9TL6TLK8UhowcpanzPtcma4jaVqGZyDlnLbVx9SbHq+M4EFK/3yMOSKYQqwILHvAAAAAAAAlo+lEgtimAIAAAAAAAAAWAAIxgIAAAAAAABABRCMBQAAAAAAAIAKIBgLAAAAAAAAABVAMBYAAAAAAAAAKoBgLAAAAAAAAABUAMFYAAAAAAAAAKgAgrEAAAAAAAAAUAE3JJPJpPPLt985Nx95AQAAAAAAAIBF7cEH7s067cZCEi0Wb79zbklsx3LEvgMAAAAAAFg+lkosyK+TK8MUAAAAAAAAAEAFEIwFAAAAAAAAgAogGAsAAAAAAAAAFUAwFgAAAAAAAAAqgGAsAAAAAAAAAFQAwVgAAAAAAAAAqACCsQAAAAAAAABQAQRjAQAAAAAAAKACCMYCAAAAAAAAQAUQjAUAAAAAAACACiAYCwAAAAAAAAAVcGNpFhPXcEe7do4bn4I9gxraFigynX2amkKaGgiqqjQZLiA/RaSbDKt6R8T8ENTYdEgNltSJkd2q675ofLBtp6MMJElr1H/iebXkkq1c2PJWhuVXTHn2nW3fuOy7+XNaeqUx8/HBpLQm17Qx6e++Lv3G8lXtp1JjtXTtiDTyx/bZv/qq9N8f855m9eYN0t355GchmZ82QJrSgdo92m9+6jo0ql31Wdaxulexzrr8Nmup8y3fYtJN6UDtaW1YMMf+IuY437jX8+yifc3aejD1ae7+8puOHHx4RkcufG5+uEX3ttyvtUWnu66JN8/q118Yn26q+T21NKwoYaaxYFB/UErUp2XgIx0fvqTPzE+3rv1Dbb4nh2Q+dSMePakTs78zPtxUrU3fXafMVbn3OsuX1qfuFVrfK864H4lsTt3r5HIP474M1xiHImrbFJY1OpGOj8Rdprmtc058w7J8221dsfdvksw8rfPc7jLew5XjHijb9Xo8orZNJxVckLGiQuqhvMvBWd9ay7D/ki5Onv7A7eus3nvh4WTghXPmp3PJF9c+nHzxbJHpzr5sW4Z93twsiO2IjSWfWPtM8mjM+BgffiYZ+OFYMp5KfPblZGDty8n3XJcVSx79YW55KFR8+Jm8y7USFsS+c+ybOftu3nyaTB5RMvmrT42PiVeTyXBLMpnIIWni1WQybEmbWl7kVcv0Xo+0WaZZlx1WMvm/ctmOhWde2oDYWPKJXNZz9uVkYG3+7eCS51e+RaSLDz9jlLmlHUCBUvXX9i9T/n7ee8GZ9mHb/vKbjhzEp5JHj/4y+Suz0GLv/TL5amQq6buLfNJNv3U8+epbl81Pl5PHjh5PHrtY+uxjnlF/UErUp2Xg35K/ihxPHn3v34yPjn2XlV/duPhu8tWj7yanzY/2fe6zzrKl9al7hdb3eWCPHRixiieGzZw6rq2z84hxxMaST2S77nabZt5H2e6Pzr489xrQvA5N5zVZ5P2bZRkvvvCy9/3Z2ZeTgRdeTr5Y6vuJstwDxZJHX3Dep1r2qVvZlkF+saAC66FP+cWHX7YsI/e4gJXfdpRgmIIpnTq4Rv3bU1HiOj3Ws0b735oqLl19yBbNbtgeUvDgaUWLz3Bh+SkwXWLipCKt29O/HlRt266u8ZM6FTc+R9+KKNjzSDoCX5LtjEfU1hFRIsfZg3cvuJ828lSmfffxjNS6Pr1vqho3Kjh+RbNl2IK8XPsn6Te9Rk9WSbrtMWnlsPS/Yz4JTxs9Wx9MZtJKkqql7z6WNVVueToijRyVtn0qfbW4Rc2feWoDDoelnkGfX+/iGh6cUVfrouxuXFZ+5VtousTIbtUd36ipEyEFy5f9ZSKu4UHjd+Vgz6Bi06Maa5Wki9p52O/4khSPaOCgZPRqGFVsulddkjQe1pHJHKYjJ/HZ6/piRY0azUeQAg01uvWL65rxuZjwTveRrl7/kr7xrbvMue/SvTVf0mefflSmrcB8of6glKhPy0DiqmJf3KJ7Ur1Dq9bpnhW/U2z2umcyv7px4dPPdVPN6nSv0rXfqtZN16/pQg7rLFtan7pXaH2vvCkd6VbmniceVWQ8qI5Ub9JAUB2tFxWZ8LkIL6VAUEPTveo6eFjDXqutDyl2IiR1v27GWYq7f1N6GUFt6Fzvuf7oWxF1PRTShtaIBkZKVzbluQcKqKXT8jS6c5/Wr89pHRVVYD30K7+qbSFLD+A6bWiVzn9c2g0vPhg7eVr7mzZqgyWeV9W40QwoTulAbbMOpG+G4hruaFZ135RPOhdXryjStFI1RWe4kO0wHn+s7svcNCZGdqu6NqyoZ7q4Th2/qK6HrN2Z67QhXTmMRiDYaEkcaFCwKaJTFbqBnL180X+mha5MddD4O9OwGgfs+vl/7PV/H5VW/oH9u7t7pY//yQiKvvJH0rXUhNPSKzdIEzHp4j8ZwwqUI55322PSk0el28qw7EopSz3KpQ2wnDyySIz0aefq7Xrs7hJt65LhXb6Jkd2qtv4wNRlWde1uDcf99otUte15xco+NM5yEdfsuCRlzncND5kh7kufKDEZVnVts6otx1i0z/hc3RFR4uoV4xGh9HFmXBBJ5kWR33Tk4LpmEr/TrV+/y/LdXbrdvNGMR0/qyJvnlS7ND8/oyPBJTSS80+nDa/rsphVaZTmQAjUrLDeoWBqoPygl6tNyYAQgb7M9ir/267foi8RVxRPnNTx8UhPpC7iPdHz4f2o4+rH3PjaDntU1lsf/q25X9U2f6+qHPussY1rvuudTbxcSxz2P271xw0NBRY5HlYhH1Fa72xKgNO6l2koYjMywX8NnZY2zFHX/Zpo8rf2t69XguX4zYFtvKZsitjSjfPdAzvXMXpLW3RnIYd75UVg9vJBfOcQjGsjhnj1fZX6BV512nQjp/I6wEWCdfF07FdJU3mMtGL1qgpsb5u3GuKFzUP2X9pg3iuavQicqMx7d/h3N6RvV6jx6vOYq0t0+50Z46SiiDgaCGjqxUZFNRtnUXd6+8MfqvO0x6cF66f87YnyeeEFaOWH0hL0+Kd1yl3d6SdIeI4Cb+jfh1+N2OShVW+YQ/0Tnm1ZKI7uzH+PxiJ7tXqWxhV73FqCqbc9rbHVYz47ElTqPdB1aiOMcLXHxT3RekrRKNW5lXx/SVI/xK9H+wYgS6Z6uQY0NBKWPZ4z5Vt/heg2Q8JmO4gUaNurer8T0q+h1Sdc1MfO5bl27Md2LB/BC/UEpUZ+Wgap1aln7Zf06agTd49FZfbZitVoaFu3jd0tC4uOZ3K+1AkENHVqlnXuN+5rEyGHtb+3N8V0c+au5e40il/0ChAHVrC7dD/VGj1fj/ixroDUdsFVFe5WW7B5o8nXtHDeCySm5lfUCkbUe3ppDYrPzVW2zqvdK+8rwLooSvcDLQyCojtZmDYys1LruGfWfCOV5s2QZ8LhMB29uAmppD6p6MKKa1WGd7xnUroCkq+Vfc6EDYUdqw5K8X0LU0DmqWGdqERG1bWrWgTxfqrLgFVoHJ8OqHlypqelRDaU+155e+C+FWdMmvf91aULSdL305Po8F9ArPfnnWabtkV7Zk/mYevHXclB0W5bFeFgDmwcVmzaO0Whfs+r67jAD/3EN7zUGhW+QSv5DzHLQsD0kbXpdw5oxziNLqW1bQqq2dar/eLt2jodVt8n4rutQiHq/gKz9VrU+PHVJE/oP/forq/VYLi9ZAUzUH5QS9WkZuGe1vjFzVuei0m9nv6x7W+6StMB6ii5DeQ1vWP+I+tWuIyPS+e5VGpu2dyzZv6M5/cIl+0vMI9pam3mBVO4vVK6gVE/JVBylfr26xg/rVDxoCXiaQdD2kPnZ6Hk5MBFXSwW2p+h7oMmwqnfMqP/E87bYR9Wdq6TjnyihusXRCcK1HuYSTA6oZWBULZIRJ6tt9nlRW/7KF4y1DCnQ0NmrdbV7MgHMHNNZ3043bzfQ1vzUhzS2ullbL4U01emzIWa6bOOLGl29s1WCNaq5Pd+MOirLXmlfvo/YBoLa13NSdW9NaVf9EuiFV1QdTDWeo5kyrA9prLVZpyZDaliIAZ10r9dq6f99NTM+bMqKeunjjyTlG5y18grULlFFtmXebYAk2R95aNgeUnDTaUU766S+dgKIBUqXbyCofT27VedyEeiZDmUwo9m41OBaxMYPnjvHzYvvppAec9b7Sz4Xfn7TUZCbv5oZH+//qTmpE+mb4hzTubnpy8qlTwIWP+oPSon6tAx85WYZlwkr1NhQreFTMd289g9twwO4Mfbx51mmfkk3f03Sb/zWWaa0/yfLZLPuZcu1Z71dyNK9ZwNq2RtKx3OcnZmydzgL5t35afbyxRwCxeYj9w95zJfj/Vti4qQiuqiIJWgsSTo8pZZO65i6UmTcEnSWJL2u6Lbyde4qxT1QtM+MeU2XqPPRfMixHjq53gsGgho6dEXVgxE9VsJh7IofpuD2lXNeapSYOKmIpQt7YuSwzrcGLQMm55AuHlHbpivqmK5QL80ctkPxiAYuBdUly0tBPNO5dYU3xok1gq0B1TRd1Ky1d208qsh4lkc5K2TRvdCrXHVwoVpRL33ueNnA5T3Sf7JcjL73x9LKXun9I5nv1vyB9JujlvFkYVOWeuTTBgTu0LqsGZrSqYOSDu5JD2FQ133R/Bwu48sMFxO/Ntb4fKR7lbpsg+bnkg4lE2hQsEmSUuMwWV7olR5+KPOdJGk89WiVOYaXJKUe7bK8sCvYGPCdjlys0C1fkX77G2uvI2MMvJu/lvl8bvbLunXF5/owej23dF/7sm764j/0mWVqfPa6vvC8ecXiQ/1BKVGfloPAV78s/ftvbV2TLnz6uW66+ZbM53+O6eYVt+izmdQYwX514xbdfNPv9Ftr8DNxVbEvvqxbqvzWWb603nUvl/q+cFgfT6+6c5X5Q3hG9K2ILZYQPRzWutagMQxVuTKV63ie5jBzj9WryBiOOe7qoVHFpi3/TthfxG6MZdprn2d6UP0leT9Q+e6Bon3NGrh70PvdGQsoXlJYPVwY94LFB2MDQXW0RrQ1/XKrKR3ptgyGOxlW3fGN2tcZ0r6emcx8PumMN4w/UrnHwf22Q1M6sOmkgntD2rXXMnakT7qG7SGpuy/zEqiRw5bBoo2eQPt3ZAIr0cPhCr4kKq7hEcubrOMRPdutxXfzWpY6GNCGzWvsJ47JsLYetI+ZMi/WtEn648xYrteOSFdapP9iDhcw8UeSJqTv/rl0i2U+rZdqJY3cINne2xaT3jyiZa9MbZl3G1CnDba01jagTrum7Sf5qZ41UmuvYgt9qIwK8i7fuIY79kiHQtrV2at1lvm806G0jPZUSo1RnhpSJxMsjfaZ37X2KnYoaM5r/uhhCebu3NSs6k1h+wu7/KYjJ2u/VS3Nnk+/MCUenbW8cOS6Jt68JK29X5t/f7Vutsznma5qne5Z8bnO/TL1A+JHOjfrfFEJlgLqD0qJ+rQM3LNa31Bq7F9JifP60PISrHj0pM5ptTb//v2WMYL96sYKNa66RZ9dOJN+KduFf45lXrzluc4ypvWpe97btHDMCXrVP6J+ZX48N4KimWu7xMhubVWvdnWGLOOXlthkWNWbwlp3yPveKDGy23jkfq8ZYCzm/i0eVWTcJSZgexG724uypHSM4a0pFass90A5BLadgc55V2A99C2/PusPCFM6sKP077C6IZlMJp1fvv3OOT34wL15LMY+Xmm6y7llmAGjd6tl/NfUeIhu6WR2jT44d025jZ9a4u2Yk29jpxpdvkNq8NgOSeZ4G5lHL6ccvzIYyzKjY629lpdEzR0H1nX5BXMuf436TyyMl9sshDooOfbNAiof6bT0SqP5d4u07ah0m6SL/0N6ezLzOTWfdWzXa0eMIQysHkxKa7JMSw1NcO2INPKRzzAFMenvvi7dZy5v0SlPPfJrA2ztna0NsEuM7F4cL5KrtCzlm37EJlXelrGPWgLZ09mkn9IgAF6sbO1p5vvMd+ljIr1fHOerOfvLbzpy8uEZHblgPjB5U7U2fXedApIu/PJ/6ty/Zz4b8/2HvrHBfGlOlnSG65p486x+/YXx6da1f6jNjO+4NFF/UErUp2XgIx0fvmT2GP2SYx9a9qk5329rfk8tDSt89rERyD0x+zvjw4rVeuz37/JfZ9nT+tQ9n21aGKZ0oPawamz3w1M6ULvHfAx/jeMa23LNbc53vmdQQ9uk4Y52zba7xDS8rrvN+zHbwABu13vW6/sU1/urwu7fon3N2ir3+7XEyG7VHd+oqfYrqtsh9+EW4hG1bTqpYCniCqW+B3IrY9s8cQ139El7yxsTyT8WVEg9DHjeCzrjkYWMXey3HSUKxi5MS2U7liP2HQAAAAAACwMdQ5a51AvOy9zhYanEgvy2o/hhCgAAAAAAALBkVW3rVP+lPWorx5ADWNjiEbVZh3pA0W6c7wwAAAAAAABgIQuoZWBULfOdDVReIKih6eB852JJoWcsAAAAAAAAAFQAwVgAAAAAAAAAqACCsQAAAAAAAABQAQRjAQAAAAAAAKACCMYCAAAAAAAAQAUQjAUAAAAAAACACiAYCwAAAAAAAAAVQDAWAAAAAAAAACqAYCwAAAAAAAAAVMANyWQy6fzy7XfOzUdeAAAAAAAAAGBRe/CBe7NOu7GQRIvF2++cWxLbsRyx7wAAAAAAAJaPpRIL8uvkyjAFAAAAAAAAAFABBGMBAAAAAAAAoAIIxgIAAAAAAABABRCMBQAAAAAAAIAKIBgLAAAAAAAAABVAMBYAAAAAAAAAKoBgLAAAAAAAAABUAMFYAAAAAAAAAKgAgrEAAAAAAAAAUAEEYwEAAAAAAACgAgjGAgAAAAAAAEAF3FiaxcQ13NGunePGp2DPoIa2BYpMZ5+mppCmBoKqKk2GC8hPLqZ0oPa0NkyH1OAyNTGyW8+qM89lIjflqIPGPqvrvmh+Cmosy761efMG6Yrl88oJ6bvrpWtHpJE/ts/71Vel//6YpJj0d1+XfmOd2CJtOyrdZvlq4o8kvSQ1Vhe8TZoMq3pHxGObpnSgdo/2m5+6Do1qV71zFRG1bQprndu0rHJYrqRoX7NOPeS3XL/2Id/24yMdH76kz8xPt679Q22+x7K26EmdmP2d8eGmam367joF5j3tdU28eVa//sKcXPN7amlYkUn84RkdufC5+eEW3dtyv9ZWIm0Zy8Mq2tesrQft36XqVPZpjnqR0tqrWGedJZNG/Y44ZnOts57HU27tUrSvWVsveddRz3m88mCblv24AwAAAIDFxyPO4Lyvc973zaeki5OnP3D7Oqv3Xng4GXjhnPnpXPLFtQ8nXzxbZLqzL9uWYZ83N5XajmQymYwPP5MMrH04GVj7cvK9OVONZQXWPpx8YjiWV56Wq4VSB637Mz78TDLww7FkPOvSJpLJsJLJyIT960iv8X/i1WQy3Jsl7afJ5BElk//LZ9lhJZO/+rTwbYqNJZ9Y+0zyaCzLNsXGkk/kUHbvvWDU51yPj2Qyljz6Q0v9d+TDum7/5RrLCqx1/Etvs990p39L/ipyPHn0vX8zPsankkeP/jL5q1ShXHw3+erRd5PT5sfpt44nX33r8jyndX6+nDx29Hjy2MWk67Ji7/0y+WpkKhkrd9pylofDey9kb0+zTzPqhr1+peqLpe2OjSWfcLblqfpprUc+x1NO7VJsLPnED19OvvhDx/GQ6zyeeYglj77gPL491gMAAAAA8yi/WJB3nCE+/LLl3ie/GF+x/LajBMMUTOnUwTXq356KLtfpsZ412v/WVHHp6kO23jsN20MKHjytaPEZLiw/HhIju1V3fKOmToQUdFnugdo90qFRjbWWOMswlacOJj6ekVrXp3uYVTVuVHD8imZdlxWT/q5Rqv3U6AVr9d0/L2SjLE5LrzRKDyallX7z+mzTxElFWrerxeycV7Vtu7rGT+pU3PgcPRyWega9e87FIxq4FFRXUx6bEI8qMh5UR6pXYCCojtaLikzE08ts23RSwROD6vdb7uTrZk/DoMamRxVLHXcHD2s4nsN0p8RVxb64RfekendWrdM9K36n2Ox1SdKFTz/XTTWr0z1D136rWjddv6YL85lWH+nq9S/pG9+6y5x6l+6t+ZI++/Qjozhnr+uLFTVqNLtQBhpqdOsX1zWTKG/acpZH+QTUMjCqsdaIBkbcKkhqtqCGpnvVZalH3sdTbu1SYuKktPkRPbZZ2nnYvc3ymsc7DwG1dFp60jqPOwAAAABYrHziDFXbQun7JKlOG1ql8x8vjHuh4oOxk6e1v2mjNlievKxq3GgGTqd0oLZZByZTU+Ia7mhWdd+UTzoXV68o0rRSNUVnuJDtMB4Rre7L3AQnRnarujasqKSqbc8rlvXx0jrtmuax0LIqUx00/nYGXta7D1Nw7Z+k3/T6DB9QqPXSk0lpTQ6zem5TXKeOX1TXQ9Zu+XXakG6spnTqoKUhcxXX8N6w1rU/ktex6FZ2DQ8FFTkeVUIyA13PWxpKj2V9PGP8kVpeoEHBJkm6qNmr/tPnbNHsdX2x4jbLY/jS2q/foi8SVxU3g4/VNZbH8KtuV/VNn+vqh/OXVh9e02c3rdAqS6MTqFlhBjavaybxO9369bssS75Lt6cCm2VLW87yKD9bfczKerz4HE85nePiOnVcCjYGPM5/XvP4HdNzlzV7SVp3J0PlAAAAAFjcfOMMVvGIBnzjHZVT5hd41WnXiZDO7zCClpp8XTsV0lTeYzTENTwYUXBzQ5nHjM2uoXNQ/Zf2mEG9KR3plvpP5DB+KOZZEXUwZhWxBgAABx1JREFUENTQiY2KbGpWdW2z6i5vzz6+yL99JH31LvdpNnukV27I/JuI5bEtZRb/ROebVkoju1Vda2xzdUfE1oglRvq0c3XvvP64MHvZGMM3eLd7I+o3HXB1+0qPnu8ZNXevUeRyicLD8agiMgO2gQYFmyI6NVnAPLmafF07x4PawI+DAAAAAJY8szNebbOq90r7cnkHUIWU6AVeHgJBdbQ2a2BkpdZ1z6j/RCjPgKr5ApTVvYrNawQ7oJb2oKoHI6pZHdb5nkHtItazOBRaByfDqh5cqanpUQ2lPteezu0lXln1Sk96DFvw9g3S2+bf6Zd7VdB4WAObBxWbNip3tK9ZdX13GEHoeETPdq/S2HSdVJG+ioC3SHe7qrtTn+wvrvKatlBED4elzYNmexTQhs1rVPfWlHbV1+U1T04mw6reMaP+E88vuHIAAAAAgNIzhqRrkYyhEWub83wJefmULxhrGVKgobNX62r35BbAtA5FYHlje2y+Csuan/qQxlabb7TuJBK74BVVB43e2F3to5nAbX1IY63NOjUZUoOzPv7fd0m/+aj4PD+Y43AE+TLLIluvv8xjy/Zu+w3bQwpuOq1op3TKPBZLGshZfUfBvd2N3onZd6bfdF9fudkj9Zd089ck/Wae0v6fLJNv+rJulfR5lsk3f3VFlimlSZtVmcoj2DOooSw/0nlNc2UOhbPPZ7bZyxd9e117DgOQbpemdOqgFJE1aCxJhzW8PTVkRy7z+Och2meet6bz/TEUAAAAABYZtzhDIKihQ1dUPRjRY1mHGa2c4ocpcHm0MzFxUhHLxidGDut8a1Dqfj0z1p1funhEbZuuqKNS463msB3pFxcprCOFPiaK0itXHczHbX8gfXWPdLHAbSgVz20KqGa1c8Bq4yVDNbdLCtyhddmWO3la+yXt32F28a9t185x83Of/0vuqu5cJV36xDbkQfStSEFDCTQ8ZL4mLzV2puWFXRvq/ac7Bb76Zenff2vr63vh08910823SLpFN9/0O/3WGvxMXFXsiy/rlqr5S6uvfVk3ffEf+swyOT57XV985WYFtEK3fEX67W+sL74yxmu9+WvlTFvO8ii31I8vPidl2zhDPseTX/syeVr7m0Kamh5VzPJvzDreq+88PnmQEYgduHvQY1xzAAAAAFh8ShlnqLTig7GBoDpaI9qaDshM6Ui35YUik2HVHd+ofZ0h7euZycznk854q/sjlXuc0m87NKUDm04quDekXXstY5Bi/pWlDhqPA+8ftIyZOhnW1oPZxluslu7rNYYZcI4D++b/KOHG+vApi4btIam7L/NSspHDlpcM1WmDLa1xHEZa16uhPmQLBsWmB9XfJHUdGs0+jq5V/SPqV1jPpt5WH49o4OAaBRsLaCTr16tLkhTR1tpmVe+IGN+nBu72m+50z2p9QzH9KmoGIBPn9WH6RVMr1LjqFn124YwumLNf+OdY5kVT85W2ap3uWfG5zv0y1Rv7I52bzbx4a+23qqXZ85owK288Opt58VYZ05avPMppSgdq2/3HQp4Mq3pTWOsOZYY78Dye/M5xb7mPg24dcD6XeTzzsMAGqQcAAACAkvGMM8Q13Gd9B86UDuyY33dRWd2QTCaTzi/ffuecHnzg3jwWY47rOm586kqNwWAZZsC4ybWM/9pZlz2dzMcqD85dU1ce4zuUbDvm5FtKjOxWXfcq+ziE6d687mMTpnoo5fXo7DK1EOqglNrPqe6ua9R/wvvRYOm09Eqj/avaT6XGaunaEWnkjx3zp8aQjUl/93XpPp9hCt68QfpP5vLyLYuUyXAmQNkU0pSjx5zt2GvtzRJsNdYx255Pz/UpHajdo/2Sspdlrsu1Lsstn37TnT7S8eFLZo/PL+kbGzaq0VIo8ehJnZj9nfFhxWo99vt3LYC01zXx5ln9+gvj061r/1Cb77FM/vCMjlwwBx24qVqbvrvO8rh/GdOWsTysvNrT7NPsx4bBpS6a7UbEOpvLsSLJ53jyapdOKuh6DBh1VwdCOr/LZ57U8rLlwW07vLYFAAAAAOZR/rGg7HEGZ1wx76HsiuC3HSUKxi5MS2U7liP2HQAAAAAAwPKxVGJBfttR/DAFAAAAAAAAAABfBGMBAAAAAAAAoAIIxgIAAAAAAABABRCMBQAAAAAAAIAKIBgLAAAAAAAAABVAMBYAAAAAAAAAKoBgLAAAAAAAAABUAMFYAAAAAAAAAKgAgrEAAAAAAAAAUAEEYwEAAAAAAACgAgjGAgAAAAAAAEAF3JBMJpPOL99+59x85AUAAAAAAAAAFrUHH7g36zTXYCwAAAAAAAAAoLQYpgAAAAAAAAAAKoBgLAAAAAAAAABUAMFYAAAAAAAAAKgAgrEAAAAAAAAAUAEEYwEAAAAAAACgAgjGAgAAAAAAAEAFEIwFAAAAAAAAgAr4/wG/EUHTSzT/0AAAAABJRU5ErkJggg==;rotation=15;" parent="1" vertex="1">
          <mxGeometry x="562.98" y="186.17" width="313.78" height="40.73" as="geometry" />
        </mxCell>
        <mxCell id="IMXVNbkLPl_RjVBT48Yj-2" value="" style="shape=image;verticalLabelPosition=bottom;labelBackgroundColor=default;verticalAlign=top;aspect=fixed;imageAspect=0;image=data:image/png,iVBORw0KGgoAAAANSUhEUgAABWMAAACvCAYAAACYRswYAAAgAElEQVR4nO3d728c153n+48XfjrYB3vN5qxleSNpZgmEYmIub2IRogVFC2sxTROmEnizHlkIQ9AdcpJANm8EekJ6NENmJBhmTCQTMm2C4EBRPDNGTBo0KxgZV/G1qSs5Nk3bFIOrmRGVMUVNulvYB4P8AX0fVHVXVXd1VfWv4g+9X4AAsevXOVXnnKr61qlT92Wz2awAAAAAAAAAAHX1H7Y6AQAAAAAAAABwLyAYCwAAAAAAAAARIBgLAAAAAAAAABEoGYxdHu9SY7Pj3/hqDTeb1ly/ud7e+bS5rZquf3fKzJ9hPwEAAAAAAAA71P3FP61qonlY53vGlFpryf+6PJ7UslrUVoONZubHNXBgTKmp3PoXlKrBegEAAAAAAABguyoIxqY11z+s66PTSnXHXFPaBhM12+jGrRuK74sFzwgAAAAAAAAAu4R7mIL0soyluPq7gwKlq5pwDmHQnNSya9oZza0Y6i2abg5P0DkrGSN9amw+o7m0x+v3K0l73f2GlgNfz7eHPcgtk/H63dpeTm679pAMZjoz82fyy/TOpyuev3j7jv20krTzVmooCOd+aE7qStE0534HAAAAAAAAsJ25g7F3NmV07NFe30XMYQyuj04rtbag1NqCVkfX1ZkPgErSDQ1MS+fWFpRam9Zkh6HO8VVJMZ2YWtBijxQfnVZq7SWdKIz7riTVeEpatNadOitNjdzwSU9ac/19Mh6307P4uP37wIGx/O+pC/s1cKwggDk7rCtHreV6DHU2d+kFDVrzx2WMvFn5/OllbeTTZe6HKWewdimpqdyylxOKzw5rYqXEfri8R4bvfgAAAAAAAACwnZX8gFdJK9d0viOhc47esw3dJzW09K6u5OOMTZo8G1eDJCmmE31x6eZtR7C2tOV3DMVHn7THpo3FdW60ySc9b2pA7vS0dcfVYPXyXRy0x71V65Oa7DB0ZcWxfM+YTrdayx2NS3L0DG49pCGtayNd4fyxuE7n0xXT4cebZNxyrMy5H2Nx9fdI1z9Lh9sPrQml1hI1GcMXAAAAAAAAQP25g7EP7lF8aVMbPgtkPluXDjxkBVpzYtrbcUMbd6pNTlobN6WDD4cfT9Y7PSrRyzemvQfsgGeRB/coHtgzuLz57SENutQSumdr+fsBAAAAAAAAwPbmDsbG2hQv7DlaoOHh/SV6uTZp74O1SVRhsHTjVukgZsn0+ASWowpyLo93aWqfczgHnx6+Lt5BY7/9AAAAAAAAAGB7KximwBxS4Pypwg9RScvj1lirrYc0tJTUC64PW41rQEd0uOoYp/Uqv2vcVUNTsz6LeKRned5QxgosdxZ8GKxzNq7DrdWmM4zC3q1pXXk7fDB1776A/cAHvAAAAAAAAIAd5f6iX1oTSq0d0kRznxpH7J/jo9OakSS16PTamHt6R0KrU/HioQIq0ND9khZvdamz2cive3G0ScatUkt4pKdnTCnFdGJqWurvU2NzPhdajGycVTOw3XiqS+clSU0a6gnbM9bcD6s6o5bmLvOHwP0AAAAAAAAAYDu7L5vNZrc6EUFyr/vPdDOGKgAAAAAAAICd6T8Ez7LFVpLqnG1SvJ1ALAAAAAAAAICdq3iYgq22klTjKcPxQ5MmL7+kE8RiAQAAAAAAAOxgO2KYAgAAAAAAAADY6bb/MAUAAAAAAAAAsAsQjAUAAAAAAACACBCMBQAAAAAAAIAIEIwFAAAAAAAAgAgQjAUAAAAAAACACBCMBQAAAAAAAIAIEIwFAAAAAAAAgAgQjAUAAAAAAACACBCMBQAAAAAAAIAIEIwFAAAAAAAAgAgQjAUAAAAAAACACNzv/OO99z/dqnQAAAAAAAAAwI712KNfCJzn/sIf/lvLf61LYqL00eo/7Yp83Is4dgAAAAAAAPeO3RIL+mj1n0LNxzAFAAAAAAAAABABgrEAAAAAAAAAEAGCsQAAAAAAAAAQAYKxAAAAAAAAABABgrEAAAAAAAAAEAGCsQAAAAAAAAAQAYKxAAAAAAAAABABgrEAAAAAAAAAEAGCsQAAAAAAAAAQAYKxAAAAAAAAABABgrEAAAAAAAAAEIH7q1s8o4XT39ZzV3N//7FeWRxTly5poHNGlzyWOD7yN/pL/UiPjn5Ov/igV48Urmv/i1r/TnN1ySrTxz9+StP/5W80+URDpNstZu6D2994XX/2xS1Oyg7x8Y+f0td+5vzleEG5Kt/dt4b16L9+vU7lcE0/+dLf66HFMXVtdXEDAAAAAADYUQpjkZIZj/yu9NeFv1vae/X+Nzb16LO/NeOWjnjMxz9+Sl9b79X7E8f1QJ1TnlNFMHZNP/nSX0mvvq71CeunzCUt/JukLx7X5AfHzd8+mdH+v91TkKnv6pXL39b0W0/YAdBP3tJz6tX7EQdit1TmkgY6N9VXZfDwXnd8xA6k331rWI9+aabqgCwAAAAAAAC2p+df9ejIOPG6uiSV6gj3i2ee0tf+YU1dudhj5pKmf3Zcv/ggukCsVM0wBZk7+o2Oq92Z8Ybj6grVo7NBXX/eK43+SAsZSVrTT569pOe/EW3msfs88MR39Ur7b3U7s9UpAQAAAAAAwHbxyHde1PM/+yv95BNJymjhr2ekkSci78xXeTC24UF9Xpd09ZNKlz+uvmf+Wc/9w5ruvvX3+uEzL27TV/PX9JMvPaX91r+Bt3JRvowWTj+ln3zinD5sBZflmie3rDmvNc8nM9rfOaNLuqSvfekp7f/xWoltFq4T/jK6ne+S7j52+09f0l3J7JH8pRl97FrskgZK7uuC9RQse/etYce0p6xKbafHWQYG3rpTw7wCAAAAAAAgnGY9NfLH+uHfXtJd6w39v9yCIUur+IBXs/5ssVe/ebY4OBVWLiL96Ojn9IttOTyBYyiGD17X+gcv6vP53rymHz77a7V/YE7/xTP/rOf+2gr4WWNY/OOxv7GWfV3tS3+lH+YW/GKv1hd7dVzH9YsPXneNT1p6nQhy962/1w/bO3SoQdInv3Ydu+evzuj1TyQ1PKL/0e5+kHD310u69MzXPcZxNcvAb0bs4/j+yG/1tdP2cb72rx16Pz/NqtTWtMIy0PevM3YZAAAAAAAAQNl++KxH57sQHnjiu3pFM+b4sX++NW/oVxGMldRwXJMfvK71V+XRu7Mc2/S18k9+rR+29+qpfI/dZj01Iv3jr+3EPv+qPTbpI/+zV8evbmpTkjIf6x+vHlefI8L+yHde1PMhNltynfB0afTb+Qr46OUOe3ziL/Y6els3q/0Z6Te3M5Ia1PWN466g6bXL/6znOzweCFhlwPmk5IEnvq7nry7pWkbmur5jV94HvtxRkzIAAAAAAAAAb8/nO9+9rvWKPr71z7r9b3VIWAhVfMDL4Yu9Wv/gCS2c/rYG3rI/phTk4x+bPQ7f14/0qHMA3W3i7u3fSlcv6dEvzbgnPGMG9Hz926Yute/RX9YtdchxfsDLrfgLe8dHrP988ct6/urf61rmuLr0sf5RvfpLj2Ey7t7+rbT/ywWVukEPtVuVtkHmkBPPXnKmSH0SZQAAAAAAAGAbufvWj/Tc/he1/o1fa//fXtJTFQVyq1ObYKwkqUGHjv2xnvvXEIFKSfpkRl/72XH94oMGPaCv6/kv/ZV+0uHxJbQt9MBDn5Oe+bprCAFbiK68Vg/J/EHN3NFvJD1UsxSiNDMQe/sbr2t9wvzl4x8/pen89Ga1P/PPmv51Roe0JB37rmfle+Chz0mX7+iumgum/7Ee+s8yA7F/u0fvf/C6OT1zSQOdVj/m/7wn30uWMgAAAAAAALCFMpf0F6PSK4vNUkODXtG39RdvPRK6U2mtVD5MQeaSfvKWMyBpvup9/L+EycCafvLsJcfr+M36s1eP64fPVjb2bN188cuOr6xVsKwuadqxjz7+hxld8lkEtZTR7atWwFSStKarP3PP8cj/7JUu/0h/Mfo511ACLl/8sp6/OqO/cBzHu2/9SM/JHJfW7Dn7YD7YevfXS/Yxtj5yRxkAAAAAAADYShkt/PWMNPJd63tBDer6816p4NtQUai8Z2zDg9Lot7V/1P6p9OviThktnP4r/fCZF7Xu7AX7xSf0Svu39bUff7lET9T6uuSZF/MjZQOdT2l/fsof65XFMY8PPRXKLWuv9/lXX9TzP/t7e5aG4+p75il97UuXpGde1Pp3ov+C2+5lju/7aOdTek6SdFzPP1MwS8Mj+h+a0XPPfF2TPuv5sw9e1E++5Cgf7b32uLRPmL2691uB3uPPHNdxn2WLygAAAAAAAADK8sNnn3J9IP35V/3ftv/4x9/Wc+rV+864ZcNx9T0zo6/99SUdinC4gvuy2Ww298d773+q/9byXyPadP18tPpP2zMf1ivsfR/YH+iCW7THzh7KYDsNjwEAAAAAAHCv2LZxvDJ9tPpPeuzRLwTOV/kwBSiT2R360jNfJhC7TZjDDfTqKQKxAAAAAAAAiEANP+AFN7PX5XNXHT898+KWDMGAAplLGuic0SUd1y8+iP6reQAAAAAAALg3EYytmwZ1Tbyurq1OBoo1HNfkB8eD5wMAAAAAAABqiGEKAAAAAAAAACACBGMBAAAAAAAAIAIEYwEAAAAAAAAgAgRjAQAAAAAAACACBGMBAAAAAAAAIAIEYwEAAAAAAAAgAgRjAQAAAAAAACACBGMBAAAAAAAAIAL3ZbPZbO6P997/dCvTAgAAAAAAAAA70mOPfiFwnvsrWWi7e+/9T3dFPu5FHDsAAAAAAIB7x26JBYXt5MowBQAAAAAAAAAQAYKxAAAAAAAAABABgrEAAAAAAAAAEAGCsQAAAAAAAAAQAYKxAAAAAAAAABABgrEAAAAAAAAAEAGCsQAAAAAAAAAQAYKxAAAAAAAAABABgrEAAAAAAAAAEAGCsQAAAAAAAAAQAYKxAAAAAAAAABCBKoOxac31d6mx2fzXO5+uwXLuaY39hjLVJbLK9FSx3ErSzkdzUssFS2fmz5TIZ8E+aO5SY/MZzYVNVp0sjwelwSPd46t1TlV9jp3r2Hgcux0rbag3oCwtj5ezH3e6VU1sg7oVRmb+TAT16V5g1v2JFfOv5fEo2qnaoAxEb0ft8xDtO/xV2x7sqPLiYye1i9h6O7287JZ6u+W25TnIvt/rnX9XE8329Z+X+pblCO45VpL1iZ2sJKu6H87Mn/Hd7/USWLfThnp3031+kdXAMl8TW1r3zTzm4jah8+oXp0sb6o0onlVVMHZ5vE8DB8aUWltQam1MB0f6Qu0A3+VW3tRG34I1bUGLB5JqqfMJsi75SBvqPbWuyctmPlZH19XpbBxXkmoZ2a9Fn3wOXbD3Q2rtJZ2I1TLX4WXmz6ix35D27Zfu+DVaaW0sNeXznFpbUGqwpa5pq08ZdB+bomNXkW0S9IvFNbOFZQnYbtoG699O7TbcuG6BMDcMtO9V2/3tQbhrkd2/H+ptm1zz1UCYB/SUFx+7JdizQ89Bmfnx/P3eTPcRnV5b0OnW0vNTlr2sauLUuiYvJ9RW7qJWEHfj4f3aTe3iztESWOZrIhbXzIX9GjgbRSdKp7Tm+od1fXTajOlcTuj6qRBlLCBOl7m6qXg+njWmodnhugW0qwjGrurKbJMmT+YarBY9Pdqk8+8E3aAFLNeacBWYtpMJxWev1fEkVp98ZK6+K6PnZP6E1NB9UkNL7+qKVTiW3zEUH30y36jVJJ9pQ711eBrW0P2SUmelqRFDA9PSuTW/xni/9kZ2Eq7TsftsXeo5lM9jQ/sRxZc2tVFO0up0LLZCcI/okHbRPtn1VpK16R3NMd86aUO9NQqYLo9H8FR9V0hrrr82N93s83sb512UhXM2JHEOKrZx64bi+7ZRdDhqNWgbMvMXdd4R0yhLa0KptUO6csrQ+VPXdLjcYP1Kcnc9/N+p1+Zh0t16yBXrikR6WcZSXP3dVqGKxdXfc0PGVf9EBMXpGroTjnLaosM90vXP6pOxyoOxK9d0vuOIDjsqVEP7ESugWNgl2npFYHw1YDkPdzZldOzR3ooTWk0+il9XMF9fT2rZd7m0rrx9Q0NHnU/WWnQ4XzjMYGC83bFwrE3xDkNXIqlUudd0nd26Ay7872zK6IlryC8omb6t63VIbUl1KoPm/y/m94dZYQ+FfBpobefYpvqn4mqQrKfJwzqvGxo4Zg9JYfYuM6zXZ6z97+oyHzT0hTN/7i76pU+8xU8lC4fLKDy+bYOD0tlqhgzx2Ce+aS4c7sJxYWm9frOcT7PHfnOeLHKv6zinB+Qj7BAVud6By+Pe+724N4l73xcvb27LuX2v4+hKX+GJ0VU+nMfZ2vZ80rWcM+2u/dKa0DmNVzE8Sg2PeS7tK/YrI+ZyznV5zJ8O1765e3kWb6u4DBSsd8W/t0jJfVxySB73PvIvrz71PhbXzNFr5b2yU8gqT1P7pvMPSZfHu9QyckOaHXas26t8+R1Tv/xXUwdD1KGCNtS/DiV1pWirfm1tTCemDulKNa80eexzrSTVeCwpQ4Y6C/bvxLxVVvsNZYLad2tfudJc0DYuF/V69q+z7u0XK1n+/Y6DRw8sz3pa0J4VvlZWsn3xOTau7RSdb2pXXnJvHLn3h33s6nLeLeNapKj3e1nlxKtdLH0MPK+FCpRuEwrbGffy/ufh0mXYVW4Lr0GCzite+9nr1eH8a7+5a3J3Xgrbbd92sS7nbPO3zlnJGOlzX2/1G5obt9NZ/LZEeeXBvB/xabs8rgOd2/fiu7/KqrfllWcXj7bbq6exfa8Z5vrFb9ucgwr3k7v8uoepCi7Ltb8mLORZTr16IRf8Fno4vRq0DYUxjaD7n+JV3Nb1jriGOta1EToN1n6d3qNVV0/lgGvkMs/JE1fdefUuUz7XfQXXHbmyVfL41OnavPQ2nWW+YN8VtS/V3lM4Y13R8IrRtB2Ny3h7WZmioRPM/PXO/yYgTlcgbWhq1hHwrbWsw7vXPsmG9tFPs7FvLWbTzt9Si9lvfv6n2Q8L/++cN2g5l1T2jW89kf3mXCp8umqdDysNr3yUzWazn2Zf+fz3sm+kgpZzLmP78OVcXhzrsRd2LGP+P/Z5x7/CbXlJLWa/GWa+/Prtff7hy37bSGXf+JY5b3rue6WPR2ox+81y01xg25RBZ15e/jRUctJz38vGPl983E3Fx9yc3/3bhy870vDRT13HqOjv1GL2jXy5dG7Xq3x5T0vPfc+9Lz76aTb2+RJ1LrdPQu4PO4/e+8SuD9lsNpvKfvhRKr+dVxy/u9qAgvTl1p9PU2ox+01n3q35nWn+8GXn3/77Iz33vZL5LcrbRz91HU93/kpsy7H8hy8/4d73Bcc7N/83ffdNQXnJ58UsI668FNSD9EefetTX4rYiSM2PeS7tubTm66a7jS6av2TdcbfP7mNcsK1c/gum23kL2D8l93Hxue3DObt9ctdl/7SGqfdm2SrVJngp3A9uxfXCo3z5HtPS+a+mDgbVocI6GliHitq8Mtpav7bUk/8+L75Ossqea/4y2/eq8uu1fY994FX+g46DxzWhZz0tKG+utj/7afaNuVTxuktcn3lup3B/WfvH3eZXXl7s9tAnTTU+74a9FineD+Xks7Bd9D8GXtsv3gfOevypa71F57WCa9vS52HvMuy+Rshm03OL9nVkyXNsocL9XLzfC4+/ax8UlOfw7WJtz9nudFqseuGc3//cFFQeis9Rvvn12L5nnnyXr195LlJUfgvLjbNshLt+CbVtzkHZbLb4utO1v0KW5ZpdE4a+5yg+rs58BJZvz31Sftvgleb89nzufwp9+LIjdhLiXOZ7zepzjVyrul1cpv3LoHPahx9lfc5ZZeTTk08dDThPBt+T1eaewu+aPaxyYkGe2ysR8/GrX9msd1tRaTyrnHxU+QEvH7G4+nsMTc0b5jgjZ529o8JIa67fHNdzpl6R6FBiOtEX1/lpQ3Pjw7o+OhjZWDiuMWOnSu0/xxPSY0kZS0m1hHlKJWnoQsI9TELJXq8xnZgy523ofqn08YjFNbNWMN7vVr7uVGkZXEmq8ax0LpeXo9f8nzpaT8Vabp1UqtxxWQpe+2gbdAwB0XpIQ8o9RUxrbtpwHTPF4jrRKqunb0JP57fboqdHFeLJlPW0s8+xX1oTWuwpMbt1fFf3XQx+ohdynxi3cmmMqa3VfsXgdL6MxXT48SbHfJI6EjpnTW9oP6K4HENOxNoU77ihjTtyze98qlp6SJDi/dHQfVJDfsOH9IzZeWt9UpOF2w7iWL7taFyS48mb6/jb88849s2JPuvpn4qHPlHrk5qU83UR59AcFkedb2ht8agfMZ2YWlDq8h5NBfW0qOcxV5Ndf2NtinfIkdcS8zvHtmp9UpOh3zxwbMvax7p522zHiupaTCfOJhT3W53XPl55UwOyy7EktXVb23QN1ePzakwZ9b5tcEGptZPaOObRi6CA2dPhovZe9jvveCkoX37HtGT+q6uDQXXIrCPOc3hAHYrFdW60yd5WOW1ta0KptQX13+pTUI+Uyve53O23S3D7Xov8lt6+xaP8Bx2HcNzlbfliUnKts0UnumPFr7DlrukChzOyOM435jWFXR+r3X9tJxPSyJuas8Y09Gwz63De9eTzCmr5+SxoF8Mcg8BXYB3nwtYWMy3WehedvabKautNrjJs9YBxrrOhO642hTnH+jGP/cBFu8dd4RtyQxccr++6XrUsp12s/Tnbk+t4Fyi7PEhtg2MashMWnF+/7QcsH0l59tP6pCaV1Gv53pmFb+v5XL+Us23OQeH4liWp5teEeX7l1Lxmso+rs72o4Dopl7awbUMRjyEIy7j/aRu02rbWhP94vI4enyW/leNzjVx13ba4ylSIMmhfo7eoLT+fxzmrQO2vzYO3mbeSVOdNx/VNje4pGh7eb9eP7SDX3s4bemFkv/t6wZdVX9YWlDorvVBNT+YA99d8jY4hBdoGx3Sw2RxU93RQANM5FEHaUO+xpA5eWFCq3gMOh0lPa0KLB7rUeTOh1cGAjFjLlXqV/+DDZkPqrUl7Hyw3oWZhOSGZ++2sdK7ME2m9tA2Oaaj5oq6k49EO5l5VGbSCnn0LBRcPXbqyknA0sg6xuGbWHtJE87AaZ+Na9B1TN4BV9o38D02aNCdoY6lJe88WL5L5bF1aMtTSnHRP6ElL8st06XWWmn+uv08D1kfafI9piH3SNrigxfEuNTbLDJg6yu3yuPlqkZ2XUtt5SAfLHac49pAOatNjQlobS9L5pS6dd/3epMm01FbvMvzgHsU7VN6QLA/usS4i0tq4KRmzfWoccc8ydEfexaA1odQF88LHvPj3vvDJzJ9Ry8gNxUenlfJ7MBbVMVdMew/k2tKwzGXKGvfZQ+azdenAofDta4l97L+eXD2zf4mPlkhL2Hq/klTjKUPqGQv8MEXb4IJW951Ry7EuGaPTVT0MLXVMS+e/yjroW4fMOnLwaKx4maVNbZSa7lBeW7uqieZhnVfwOaGW+9wW1L7XOr8ePMt/0HFQBdcvPnm5sylDhoxmw/17xx5l5PUAqgbbtATuv1hc50bPWB8MLVUva3veLV/IfPq1iwHHIFAsrpnLUu+xLg3I7KhwulX5YczOuWfW3gOS8Vlaaq2gHnmuU6roHFugof2I4iPXtDzYoraVazrfc1Ipn+X27ssFEcprF2t5zq5EqPLguY9zAvIbmAK/5dNSnctzcJtiBtpa3lnV6dYWLb9TcM/hMX/++qWsbXMOqreyrwldAsp590kNNXu1F5XXj9Btw1ZpTSh1eY96j/Wp8W33PYKt1DVyDc5VpZYpWQZbdGJqWuq3zgu5a+xS56xCtbw2D7tNyfp4lbS4Zu/fet1TbJkDD9kPUM4m8nHFoPOH571lLK6ZC5tqnDb0dB1ibJUHYz0unDNX35Vx4KRmcn/PX9T1nrg08qaWu60TQdByaUO9xzbVvxa8w2oiRD6UNjR1M64hJfXaStws3L7LeV0Mmk+19p6UpJj25p4g5Sanl2Us7Vf/Nmwbq1PHD3rVqwxWxPpaodXTwAhx8VPEUfbNdKxqovmiNdGjzFgaHt4v9ZysoEH0Wqd5MtM+V8JcN4N+Nw9uwfvE/GqpdYHQL61OxbUxnnsqam4oM39GLbfKzJofa2zjw0UTYtrb0aTJs9vrS7C+7mzK0B6ds9qcob4ye7e0JpRaS1hl74zkCMi6LtrWwu6QbXrMc+X6aA1WdfO2+6bnzqYMSf2l5vfaxw/vl96+7XHzZNa1jb4FpabMX5bHuzTlsdpQ9d55wbSWCJ3Fhu6XlOrOPYmX4hXcnC37HNOGkvmvZx30CdJ07NFexSSP6Ru3buT/H66tdd4ALygVMnW12OfFgtv36xXnN+SYYB7l3/84VMLn2D64R/GORB0eUntvs7zysqrXRvZrqMfQ1PyTBce7fufdSviVE0n+7WLAMQjVgyYW18xaXLkx3yYuLOi0TwC/vId1DiXXWeE51rWKNsU7krqykpDeMTR01L9N3rh1w6qr4drFep2zKxJ0nizcx9Z1mVn/A/Ib+PaR//LLAfU2MP01aFPswLx0ZTauw4N+czuuX0Jtm3NQpMq9JswLqtctOtwz7NFelF8/KmsbnMwel3XvlCLZbb3VS9bdccPvGjnkObnw2jPgeAWfx+1OcebYz46AbOE5yzkGcz2uzf22mZfW3NniwGRN7ynygdD68zqmy+8Yiu97Mj/P8sWkDvaYb7mbwdSgOF20Kh+mwHoFvNMxyPVrI47BcFeSann7iM4NJnRudN2eL2A581WzJ6MJxIbJh1Y1cexdxc8mdPpsQtdPWa+rByxnvn427vhYz0XHayjWayWn7Fffly8my/hI1Da1YhR8OGFY5+uZp7qUQevVkGn3hzU6Z+M6HOYCPDdUw+U9mip3iIbCj9WtXHM89bTS5SgzShuaW5H5Ku7scAXd583GyJ3XN11PGyVpedw68ZX7Bcz8Zrz2SVpz4/Z2Gx7en8uU+bjR2QwAACAASURBVGQzfyNlvo5TlSXH62DWSci7jYnp8OPSwNnaDK2xd1+T67Xb5fHhgqfYFXB8WE5a1cQpI/86TdtRd5sSJDOftNcVe0gHnRNXkvlXFyu6GN/qY64bjtdBpcz8uAYU9CpasIb2I4oXlqdpo+T8Jfdx6yENLSX1gvODb/OGMrmeJPk3JFZ1xdmz1Cmo3qcN9U7v0eraQsVPrs1XkczXHMtrXwKOacn817YOFmo7GpfhOC/n24PH29Qgq86OvOlqY6ec+z+wrU1rrt96jazCgEbl+7yQ+fpe6fbdGjqiqvz6K1X+g46DOa/jVfO0oRdG/NuE4nWuam4+bQbA5C5rtVJdeUlrrn9YupDQ6cExHXSlvV7n3UoEl5PAdrHaY7CSdOzDmPZ2ONbb4byWU9H1WtnnYY91ZuYNLav8c6zHyq1hz85o6mbx+cjrutN8HT1Eu1iXc3ZlAstD6yENydCUs/2/6HwjrNrzgP/yQfW27uVZyt+HTPVf1PWi61Gf65fAbXMOilK514RuweW87Whc599JmgH71vDLuVTbNjg77kTJGmYj1beplnx77H+NHHhOfnBP+cfLtwyuasJxrsi/zVDqnGWlqS7X5n7bdFge7/MeFqlG9xRmIDTCHk3WMAT5NjFtaMoxBFBm/ow6NabTgwktHrDn84/Tue9Xc/fb8dw1ao1VNUxB2+C0Jvv7zFdO5egSnTbUe8rQ0AXrtYvuQXM+62lByeUsxojHa0B+3a2rVDo95sXy+Z4xq1eC9UpZc9J8cuyXj1yXZqu7eOEruWpNaHX0jFqau8y/Pbp6nz/lfgUhcB/E4prx6kIVmU0N5PIrRdJ9vR5lsKH7Ja3qjKOrvvl6ZVkXNUXHwhx7peVYlwasslCk9UlNqs/ebk/cMYaWM11djnTFJbXo9OWEeo91qTE/d+nXzp1yr43b2xzTYo/h6onXNlijXuqufRLTXiUd+zief13iRF9cjfmy36ShniaPlZWhI6G973Sp8ZT1d89YyddzGrpf0uKtLvdrGhWW44buQU2+bR/PoQtjGpq9GLBUgJ4j5he2rYvZ+Oi0ZvJjNhW0KVJxu+NM38Ny1dehC45XYFsTtRkiZquOuZo0ue+aGpuHi7ZVlVy77kjr5AVzvG0vpfdxi06vjWmi2XGu6xlTytlOWOkeKjlcQ0C9r+H5oLANaOg+qaHmYTXOljovxQKOaan8S6phHSySe23ecUycPQuK2tiOhBZHm2Tke2kHtbUxnZh6qfp0yqPdjcXV39Olzubcq2HBF7u581yp9j3X3nXmXnktO7/+Spb/mP9xkFp0+oKj/BSly4PHsR26sCBJOjE1po1m93VlLa4pqykvey/2aUAJrbbm8rtfjY63E+pz3jW3FXgt4pFP33IS2C7GqjsGD+7Rdcc+tM97MfsV0ebczO6eneWfhz3W2ZHQarfKPMcW72dzTPBDGloydH10sGiZocfNcenMvey+7gy8NqnLOdvUdjIhHetT44hV98Osw7c85OqFXR4Kj0u112J+ywfW21qX56K22+q0czQuY3Zdk2cLG1O/65egbXMOilSZ14SFguv1IQ2dsobaK2c5p6rbBvewGpFzpd//GjlU3bZe5TfLU5jj5VcGY9p7s+BcMdVi9vT3PGepftfmJc+TDitJa+gw8/o9x2w/anFPkdbGzSbFT0ZZOQvbREeaV5JqGZEmL1tt7uCYDjb3qVfTmun2i9MV3q/W6k0Bb/dls9ls7o/33v9Ujz36hbpsKEq7JR/3Io4damolqcbpPSUDktiNzOE99kZ1sU4Zw45hv+JXKgiWG15iaz+ciu0usJzQLpbgdX4Krpc7XlB5yA/TVZtxa2uuHuXZc50RX79E7h44B+3Ktm+3l0vURI3K/m6JBYXNR+XDFAAAcE+r76srQC1l5sc1sOQz5M5KUp0FX3gHigSWE9rFUszhu07eYwGNoPJgDlOyfYdqq0d5dg8zda/Y/eeg3dr2mW9vDByrZpgW7GppQ72n1jV59t5q02qhqmEKAAC4d+Q+jGGr56srQDVyH+2wFXycJ/cxhrxt9Ponto/AckK7GCi3D3Ovse5qQeWh+Gvo2+ur3PUtz8vjXeqcLfEa8S6z+89B91Db15pQam2rE4FtK//xMJSLYQqwrXDsAAAAAAAA7h27JRbEMAUAAAAAAAAAsI0QjAUAAAAAAACACBCMBQAAAAAAAIAIEIwFAAAAAAAAgAgQjAUAAAAAAACACBCMBQAAAAAAAIAIEIwFAAAAAAAAgAgQjAUAAAAAAACACNyXzWazuT/ee//TrUwLAAAAAAAAAOxIjz36hcB57q9koe3uvfc/3RX5uBdx7AAAAAAAAO4duyUWFLaTK8MUAAAAAAAAAEAECMYCAAAAAAAAQAQIxgIAAAAAAABABAjGAgAAAAAAAEAECMYCAAAAAAAAQAQIxgIAAAAAAABABAjGAgAAAAAAAEAECMYCAAAAAAAAQAQIxgIAAAAAAABABAjGAgAAAAAAAEAECMYCAAAAAAAAQASqDMamNdffpcZm81/vfLoGy7mnNfYbylSXyCrTU8VyK0k7H81JLRcsnZk/UyKfBfuguUuNzWc0FzZZYbjSVof1R6Y+x851bDyOXU1d/ar06n3mv797rbxlb/zAXvbV+6RXf+Ax07Xi3+++VrCcx7Z/WUF6ttyqJhzlemKlNsuVrqtlbDdtqLesNN07gvdvFculDfVGch7Z/ZbHu6poF8Oc2x3zjK/WKtn3loJze7ntTdAxrq4MYKehzqNurGui8q/fy1jeMQ/XXtvAFp+fqj6/hUm/s1wWtXle9/eF2wozzxZYSbrSUNF1e1HswW733fvevX+9poXet17nFd/4TMi4wkoyOHYSZp6KRBx/Kzj220+F9/5+5aDg/FLP65OqgrHL430aODCm1NqCUmtjOjjSF2oH+C638qY2+hasaQtaPJBUS50v0OqSj7Sh3lPrmrxs5mN1dF2dBQW7ZWS/Fn3yOXTB3g+ptZd0Ila7PGc+W5d6xuq2/qjUpwy6j03RsaulGz+Q1lqlZ7Pmv//4p9Ivr4Vb9pf3Se/JXvbZrPSYpBuOea5+VXq1vcQKxtzL/q+n7Ul3X5P+fUzSG9LdinK2BdKa6x/W9dFp87heTuj6qTAnwYDlgupq2lBv87DkqK+nW4u3snwxKaNGOd1VQrSFlS63PN6lxmPs91pYHu9S56zzF6OMdjGtuf4+DSw5flpyHy/zYrtgHpRnJanGU+7Sfj5UG2gKOsbVlQHsNNR51E3aUG/BudkIef0ebnnr5pzz//axxeenqs9vIdOfufquXeaW3tWVUPkz1BkY7AozT72sauLUuiYvJ9QmVX7dLkkdCa2uOeIbgy35SfHcfZjHvVThtMUDSbV4BDrdsZNpTd4cdgfaAuIz4eIKac1Nr2uoRzKuljrAYeapTOTxt9aEuZ+25QPTCu/9A8pB5uqm4pcX8vtqaHa4bg/0qgjGrurKbJMmT+YqUYueHm3S+XeCDlTAcq0JV+VrO5lQfPZaHRuf+uQjc/VdGT0n8wHOhu6TGnI0ysvvGIqPPmk2aqpRPsvsARbftwOjry51OnafrUs9h/LHpqH9iOJLm9qoQw50a1hq7rX//j9/Lm3+Kni5q1+V/v3n0rPfd//e9H2pyTHPZ1+Vun9efrr+5Q3p4V7pYUkfhgwOb7X0soyluPq7rXIdi6u/50bwSTBguaC6unwxKY1OewZg7W0YmroZ11BHpZnbvSptCwOPy3iXOjWm1IV4fRJ+L0kbmpqVpCbrwmVMQ5K0lNRrYS5OVt60Ai5x8+L9ckJxSZq9WHDBFNdQT43Tfs9Ia27avAXM3bQs9kjSDQ1cDHEBHXSMqy0D2Fmo86ij/MNpq1PI6qh54Xp+Otw9TOjle+JmucUW2+LzU9Xnt7DpX9VrIzdkt2ul70HyQcP8Neq6NkoFFn3miUJm/qLOO2IadYlhlKltcEGrowooPzGdmFrQYo+hKasXqH98JmRcIb0sQ0f09Mkj0sib3vkOM09Ftib+1tB+JPJjHEqF9/5BcbqG7oSjk2KLDvdI1z+rT+WrPBi7ck3nO47osCOeZx8o84mkHUG2uj6PrwYs5+HOpoyOPdpbcUKryYf15N7xJMDslp/Usu9yaV15+4aGjtpPe8wDmSscZoWItzsWjrUp3mHoSkQ3NRu3bgTPtN3VqQya/7dvGMwKawdna+eatHlC+qNG+6cHviL9wbDZu/WX97l7yV79qjXcQEr6bE565OnCFbq1v+Hu7RpaSvpMZrr+6KvhgsPbgNdxajsal/H2sjI+5SFoOf+6uqors46TgKe05s4mdbDvyfq1YzuW//4t2f6GaEPbBt1P3FGFO5vmjW++3TQvTCTz4sR+hSzX+8B+Zah3Pm0+4JLsh1yxNsU7JOmGNu6Yk9oGF5RaS+hwhNnaXdLaWJIku160HbVu4G7eVsbxOlbRq3/9hjIBxzioDGCXoc6jbtLauGn+L3ef1NB+xAzWL21qw/m6bK6DiWu4gaDlJalFp9cWlBo8FGG+UNoWn5+qPr8FpD+XzZVrOi9JHXv0tDXdvJcIoeC+tOJ5aq4wplHpdXvthQ0Q2vd0AfGZkDGqzNV3pcfb1OATuwkzT0W2Kv4WcZwqLN97+LShXlfvaXP/9M7/JiBOVyBtaCrwXr9ydfqAV4tOX07o+imr8q28qQEltFr2jbH5JCr+eJsa6pDKMNoGzS7uE1bg5bUR2d306+z8qaCxtqpjjPRVPG7P9ldFGYzFNXP5iIxj5r5puXVya4I6f/I76d/brWEHrklrkrq/L+m30u9PSP+pTtu9+ytJX5UekDs4vKPVqk0qkL6t6x17JJ+xkzLz4xo4MObfcxaetrL9hS0fWDnwkOe5uG1wWpMdkmT2PsjMXzRvSHrGNNMdyz/82/lvY2xj6du6Lknar71eu7k14e49lu8JFNfiVFwKOMZBZQC7C3Ue9WMHtvY+6DU9phNT7p6JuZ6w8dFpnW4NWh7bzhafn6qdHph+y/I7Vu/Zx9vU0HrIKsPeQxXk7/FPGWYP76l40bbDzFN/aW0sha9rkV63xx7SwTC9hR/cU8M3XNO68rasYHRMhx/36pUaZp56qGf8Laa9B3bYw/dYXDMX9mvgrHlfbvbwHtNM9/8RYmHHQ8Gz0rm1+t173l+n9VrdhLs0Nb9HB0fMcUbKa0Cs8aYOjClVp0h0ODGd6IurcdrQ3gNJXR+d1umYpDv13/LQBe+xJ92Kx+UympOSzIuWmRL7zuw1lluFod5jXZoItb0dpNIyuJJU4/Qera4taCb3d/M1LdaxInprlB4Zkz5+Tbr1p1Lz78wAac0MS68O2382/05qb5Q+/FPp4d/ZaXj4hHTrmtS0w3sYlCgPVT/kWEpq6vFppdbMurY83qWW8YfMAH7a0Asj+7W41iJpB53Ato0S7S+2mZhOnE3IOJaUMdJnjZcW1yI9k7eVhu5BTb7dp4GlpFqOmb8NXTDPa4z7ivJQ51FPLTp9Ia7zpwydP9Vl/tSR0LnumLiW2p12/vlpVVesoQ7yQbgeSbNmb7sTfrGM2WE13kxo1S/YGmaeuvEPQrsFXLcvJdVixSkkd6zDGOlT40huSnwL7rtDWHlTAzqi1dzr7e1HFB+5puXBFjutYeaplzrG3/bua5JxKy1pB92ItT6pSfXptXnpeln34+YQFyek/JsZB+sUJ6t9z1hHl+a2wTEdHEnq+uhg8MehnF2h04Z6m/vMgYS36sLOmZ7WhBYPJDVwM3chEHI5Dwcf9lu+kqe8ZmHJDVocdwyMXSoQW7yKuM6FGm9kh6iqDJpPg4b6HCe71oQWe6Lsmu/o9dr0ffOjXv/+czNQKkn6nPQHc9L/rnY7BR/wam+UOXSCpLU/lF69z/y3NidtvryDPuRVwPGku6zy4NsDzFlX3a8u2OPsrGriWFIHL2zDi4ltz7F/y2l/6SlTX87X8QrF4up3jP3oHE8sx7yIQ3359RIxb5LyOhJ6uvDC0u8Yh5mO3YU6j7qxh6zw1Pqk1fva5LouD7M8tqEtPj9VfX7zSX9uiALd0ID1ZmXug2BeQxXYH5qye4G/MJ8ue57tI+R1e8EHvEp/pCvEvVP6tq6HCRSHGPLSNz7jWHb5HcMKKFu9Jo8lZcgekzbsPDW3W+JvtZK/hzcfHF8fCXc/7lkOYnHNXIiHHtO8XJUHYz26fGeuvivDEcDIzF/U9Z64e+DioOXShnqPbaq/xBfJay5EPvIf35HjwwW+y3l15TbHWDEbqpj2dhRcRKSXZSyV8+Sp9nbc62T1KoOR8Qiq3v2V9PtWuwfs3dekfx+T9KeOoQIcvVVr7cavpD/4uTtI+2xW2jMn/Uuq9turoYaH9xddSC2/Y7jKtVd58F8uoK7GHtLBUgmyLszs4UbMHuznT7nHU7q3hWgLvdrfbdqG7lb2eHzW63aOj13kxw3L/2YyRsbz4zTlx1bLjU3l+LjP4d30NsZWcozJaY555fjgSP5VM/s3Sa4bu6BjHKoMYNegzqN+7PE4c51A7A9yHXL3LnO89Xc+9+pt2OWxfWzx+anq81uI9OeGKPBUYqiCncMZhK70ur32zA8oFz8EdHN2sgqIzwTGB6yPYF1ecASNzQ+s2QH3MPNUYYvjb9stVhTm3n/5YlIHe5zB1KA4XbQqD8bG4urvMdSZDyqYXxDMD4a7klTL20d0bjChc6Pr9nwBy4WrWDUUlA+tauLYu4qfTej0Wcc4HAHLtZ1MSI4L08z8RcfAyebTP/vCwrqQiOwiIq25eUcwKG3ohRHtvBuqupRBa2wX59OPlaQ6Z+txA2ENQ/DeD+yfPvxTac9XrD+uSfNvSP/9+9J//7l7vvb/S9psl/7uNfcqb/yguvFdbw1LD3+l+Pd9Y9Jn2/xDXq1PalKOp8ZpQ1POQeZLlQff5YLqaosOu8qSY3prwn0iXjPH2Bu6sAueONZM0P4t0f5ueRt6j3HciAwcyz3ll+NjEmYvcENm+S76ynBu7DQZ6syNfyZx41xT5rlLyo0Hnxu+yG4Dl8et33rG8l9nNnIX60HHOLAMYFehzqOO7GD9sKsHYf76PW2o95Qh8+v27vGJQy2PbWaLz09Vn9+C0p8bosDZm9W+7reDuDa7o8aw1aO2+MFmmHnqrzD4Wul1ey2Z43l2Br4xt6qJ5j7Xdzt84zOBcYXij2BJMs93uYB7mHmqsWXxN/PjZ/5veG+BgHv/zPwZdWpMpwfN3tq5+fzjdGnNjTt7wa5q4lQdv2GVdXj32ifZ8qSyb3zriWzs8+a/Vz7K/byY/abz79x8L3/qv1w2m/3wZft35z/nPEFqlo+idGez6bnvZWOf/2n2w4B8ZLPZbPajn9p5+NZiNl0w2VyXNd2xjcL1VrIPyslv7PPfy76RqtW6q7MdymA2W3Bs6r1//t8T2WxS5j/jqvXj77LZ15x/5+Ybcy9ryF42qWz2tZ8Xrz/z8+LlSv52IpvNeCXyqrn+/6/MvEXu0+wrXsctsDyUWM5Suq6aXO2Wx3TnNmtXj3cP7/0b1P4GH5dsNmu2wx7tL8pVcN7I71PH7/nf7Pr0zblcZXLWsdLHK1+XStYj+Cl17rJ/t3/L72uvY+l53RI0HbsLdR515LxHcl2fOcpNrkxY13Cu+Uou72Svi2uvrbe156fqz2/B6bevT4uX+Wn2wxL39+77jjDzRCs9972i9rmi63af6/EPX3aeO4qnBcdEvPZbiX3mG5/xjwn5pvHl/yfEPLU4z21F/O3T7Cse5bseyo8FlbiH/+inBWXAnC9/fHzKQeH+KHVMa5GP+7LZbDYXmH3v/U/12KNfqEfMN1K7JR/3Io4dAAAAAABbbVUTzRe19/JLwWOQYlfKzJ9Ry62TkbzZuVtiQWHzUfsPeAEAAAAAAGAHa9HpC/s1cKweQw5g21tJqmVkvxYZYq8u7t/qBAAAAAAAAGCbaU0otbbVicCW4NjXFT1jAQAAAAAAACACBGMBAAAAAAAAIAIEYwEAAAAAAAAgAgRjAQAAAAAAACACBGMBAAAAAAAAIAIEYwEAAAAAAAAgAgRjAQAAAAAAACACBGMBAAAAAAAAIAIEYwEAAAAAAAAgAvdls9ls7o/33v90K9MCAAAAAAAAADvSY49+IXCe+ytZaLt77/1Pd0U+7kUcOwAAAAAAgHvHbokFhe3kyjAFAAAAAAAAABABgrEAAAAAAAAAEAGCsQAAAAAAAAAQAYKxAAAAAAAAABABgrEAAAAAAAAAEAGCsQAAAAAAAAAQAYKxAAAAAAAAABABgrEAAAAAAAAAEAGCsQAAAAAAAAAQAYKxAAAAAAAAABABgrEAAAAAAAAAEIEqg7FpzfV3qbHZ/Nc7n67Bcu5pjf2GMtUlssr0hLGqieaklktMzcyfqWCdCKceZdA8Zvky6HNsXX55n/Sq498vrxXPc/Wr0tWU/3Kv3ifdcM6Qkv6uxPrKzJdWkgH5WtVEs738xIrPNsZXK0+HJWzdWB7vCjwe+XlCtBlB66t2emB6XMehxH7Oz3NGc4W7KGj5aqenDfU2+xy/oOmS3GWpeB+565h3WsLMU3q/Of5ZZdV93JzrKjjvFCxXKt/hjp9X/sPVj+Xx4PLsO49vGtx13b8+AwAAAMB24hO7KLxv24b3OlUFY5fH+zRwYEyptQWl1sZ0cKTP/yY5zHIrb2qjb8GatqDFA0m11HnHVZoPKRcsGNZ5z6lm4WgZueE5FdWrTxlMqmVkvxatMrg6uq5O34DINTOAqqvSs1n7n35VPM/anPcqmn/nXrbJMe3GjPQfx6TNX3kvGzZfaUO9p9Y1eblEvtKGepuHpQt2/Tvd6rGRlTc1sFRFOiSVUzeWx7vUOev8xXClOxewc89T+fqqnR6YnpWkGk8Zrp/On3IEXHMnjoJ5Qi9f7fS0od5jSTnnMArLkd/0fDqvOdpFQ1dCtqnnTwUEW8PM05HQ6ppdjlODLflJ8dFp+/eCMj7kKPuptWlN3hz2CGLG821Dam1BqcsJXT9VcIIPqGuh2q20oambcQ3pXV0p9bzCb56ANGTmr2nvZXdeeWgIAAAAYPtLa65/WNdz93aXE7ruuKfNXN1UPH+vM6ah2eHQMb6oVBGMXdWV2SZNnszd5Lbo6dEmnX8nKHAasFxrwnVz3HYyofjstXA9EytSaT7MoEvL20e0ejmhuMd6J6zA1mJPjZMMS33KYOazdannkNqsqQ3tRxRf2tSG57pS0t+1m8HUPznknvQn37f+c016tV16LCvtKTOLknRrWNr3fWnPcHGv2nLydfVdGT0ndSJm5av7pIaW7CDO8sWkNDrtHYDNS2tuel1DPU0+8wQdlzLqRtrQ1KwkNVlBpTENSdJSUq+5GtOmgDSFXF+10wPTk9bctBnGzAUFzX1wQwMX3eU23hP3aFeClq92ulkODEnqGbOCeGY+zk+bgbyg6e502vuhZL3ssYOSQ9ZP1z9Llz9PzcV0YmpBiz2GpvyClLG4ZtbGNDR70XHy96tr4dqtzNV3pcef1NOPq6hshJknqL43dCfy06SYTvTFZby9HMGbKAAAAABQhfSyjKW4+rutG5pYXP09N2RcNW923Pc6LTrcE8X9Y3kqD8auXNP5jiM6HLN/amg/YgVOzV5vduTZ8Vqz73Ie7mzK6NijvRUntJp8WK+AOno8mb3ezJ5SDd0vKTUVV4Pnilt0ulTPQtRGncqg+f/CwIodnHW5+yvp92NSe6NPQg8V93YN7Zq0OWYuu29M+synd6xvvtK68vYNDR1tcSzQosP5BmtVV2YdjVkJmflxDRw4qaf3+cwUWMfLqBt3Ns3AX359ZkMq2Y1pQ/dLSq295J+msOurdnpgetLaWJKkJsXbzR3UdtQKud68bQbCYnHNrC1o5qRX5D5o+RpMv2n+mSsrDe1HzKDw0qY2AqfnkrksY0mS9uvwSWt66Idqdtqqm6c22o6GCVI661JAXQt1DkzryttSvD3mc370myeovhfLfLYuHXioxPkMAAAAALYHrxhNyfu2tKGpELGOqNXpA14tOn05oeunrNc7V97UgBJaHWwJWrCA2bsq/njblt0gtg2ar2+aQb1VvTYiTV5OeAfmsI1UUQZjcc1cPiLjmDm+SMutk67XnF3+92+lP/hcLRPuduNX0p6vmP9v+or0+zeku3XYTvq2rnfskZxjdBYOzZA29MLIfi2WXY8rl/ls3fxPjYJEQeurdnqg9G1dlyTt195KzgVBy1c73RGs3ftgJdNNmavvWr1nD6kt1qZ4h1RyqILZYavMDeu84lpce8nxFLOMeerlwT0+PeNte/c1ybhVo6et6WUZsgK2sTbFOzz2XZh5QlvVayOFwVsAAAAA2Ikc3+g4K51b234xvDoFY2V1EzY0NW9o4tS6Js+W6kFaSlpz/ea4ejNbGsE2X988P21obnxY10cHowsCoDqVlsGVpFVhrTFGjl4L/xGvSq39oeMDXj+wfkxJHw9L+3LDHxyS9sxJ/+I3VEEVlpKa0mCJ8ZrTmjub1MEL268Rw3Zj9sqUcr1nYzr8eMBQBXmGOr0+WFbuPEtJtZQYzN0Y6Sv/43wRW76YlPIPIc39V7jvwswTjjlsyPXAIUoAAAAAYCcwh5xLrS0odVZ6Iegj0Fvg/pqv0TGkQNvgmA7mbvKCApjOoQisD8QcvLCg1FbdHDrT05rQ4oEudd5MaHWQSOy2V1UZNHtjD/Ut2IHb1oQWe7p0ZSWhtsLy+J8+J/3+t9Wnufl3xUMd3P2V9HtJ790nvef4fXNGav++QrP2R6mefQcfzu0Yd9f9tpMJxY9d0/Jgi5T74FA19bGa4UZu3lZGLbXrIR+0vmqnB1rXRlpqq7g5CVq+2uk3tHFHUiXT80MUmB/acn3ccNYsT66Afs9Yvue5+XG0Gxo4a+jwVDzUPJ7HoCOh1RLT4qPT5T3gf0dp5QAABMNJREFUs4bKORcw28atG4rv81+vXdc85OvHqq7MSob61DjinOGi5k7megSHmSdEGlaSarQ+8hXYPgIAAADAdub1BmssrpkLm2qcNvR0yWFGo1d5z1iPVzczV9+V4ch8Zv6irvfEpZE37d5HQculDfUe21R/VOOthsiH/cXqwo/0YEvVqwyW44GvSH8wLN2oMA9+/uUNac9Vc7zZ/L/fld6eb75i2nugcNBq80NCex+UFHtIB0smxAz82K+Kd6ll5Ib1t0fPwhruX3s8UuvDQ44PaFUyZmjQ+qqdHij/yr49vmj+g1phhmMJWr7a6Y4xcHO9LO0Pdh1SW+B0xxAFnqp5lX4r5B7OBJy0XeMQBdS1oPqxck3nOxJazfXMz/VUd473GjhPQBokMxA7vUerUQ75AAAAAABVanh4v/3NFcvyO0Zg55jtpPJgrPUKeOe4/YV015hzK0m1vH1E5wYTOje6bs8XsJz5Rfcno3sVOigfWtXEsXcVP5vQ6bOOMUix9epSBq3XfZ1fhl9JqnM2rsOeDwcapUfGzN6rVwuGD/jlD7wWCCklfTbnGKLAsb2HT0i3rhUvErA/2k4mpJFx+8Nk8xcdHxJq0WHXslaQzQrAnS4I+qyONllfuPcYtiCwTpXBETwcONalxmPJgg9o1Xh91U4PTkD+lX3zdfk+DRR8UKu65aud7viglxV875w1/8yXI9/p9hAF8dHpgkChOV/Rq/SOIH9uXUWB6TDz1NyqJprNHuG+DwZXkmo85h7Cw7euBZ0D3/EeJ905IH2Yefzre8ggMwAAAABsN61PalJJvTBv3eykDU3N5u5p05obd37/ZlUTp7b2W1ReqhqmoG1wWpP9fWpsNv8eumD1Zk0b6j1laOiC9ap396A537j5qmnJ5SzGSOGrl8Xz1FLp9KQ11z+s8z1jSsUkKa5zo2fU0pzU4jYcAPheVI8y2ND9klZlHmdTkyYvv1T6eDd93/y41qt/KK05fm/+XeUZuzEj/X5MavKY9kdfleZflu6+IT3gnuRbt3Ld8491aUAqepW7bXBBi+Nd+WWdr4aXK6iOhxfTialpqT8XNCxOd23XV+30YPnyNZLr3myWr7C9E4OWr3a6WhNKXZAaT9n9W13Hz2/6ypslg8ttR+PSrCHNmq/SHy6RvzDDCJQ91EBI7mEVmjR5ecFq+50MdTY7+v5aPVRdxz+wrpVut6ZmmxS/7JG31kMaWhrWa/+3dD1onpW4Trf6p6E4v7k801MWAAAAwHYW04mpMW0052KHzvuYmPYq6Yjn1O/+sRr3ZbPZbO6P997/VI89+oWtTE9N7JZ83Is4dgAAAAAAAPeO3RILCpuPyocpAAAAAAAAAACERjAWAAAAAAAAACJAMBYAAAAAAAAAIkAwFgAAAAAAAAAiQDAWAAAAAAAAACJAMBYAAAAAAAAAIkAwFgAAAAAAAAAiQDAWAAAAAAAAACJAMBYAAAAAAAAAIkAwFgAAAAAAAAAiQDAWAAAAAAAAACJwXzabzeb+eO/9T7cyLQAAAAAAAACwIz326BcC53EFYwEAAAAAAAAA9cEwBQAAAAAAAAAQAYKxAAAAAAAAABABgrEAAAAAAAAAEAGCsQAAAAAAAAAQgf8fQGa//zM7ZcgAAAAASUVORK5CYII=;rotation=15;" parent="1" vertex="1">
          <mxGeometry x="1041.8700000000001" y="187.66" width="309.28" height="39.24" as="geometry" />
        </mxCell>
        <mxCell id="N9zt7zXmnTlj__ENOMg3-1" value="MCU" style="shape=umlLifeline;perimeter=lifelinePerimeter;whiteSpace=wrap;html=1;container=1;collapsible=0;recursiveResize=0;outlineConnect=0;strokeColor=default;" parent="1" vertex="1">
          <mxGeometry x="283" y="410" width="101" height="477" as="geometry" />
        </mxCell>
        <mxCell id="N9zt7zXmnTlj__ENOMg3-2" value="" style="shape=umlLifeline;participant=umlActor;perimeter=lifelinePerimeter;whiteSpace=wrap;html=1;container=1;collapsible=0;recursiveResize=0;verticalAlign=top;spacingTop=36;outlineConnect=0;strokeColor=default;" parent="1" vertex="1">
          <mxGeometry x="66" y="410" width="20" height="481" as="geometry" />
        </mxCell>
        <mxCell id="N9zt7zXmnTlj__ENOMg3-3" value="" style="endArrow=classic;html=1;rounded=0;" parent="1" edge="1">
          <mxGeometry width="50" height="50" relative="1" as="geometry">
            <mxPoint x="77" y="501" as="sourcePoint" />
            <mxPoint x="331" y="550" as="targetPoint" />
          </mxGeometry>
        </mxCell>
        <mxCell id="N9zt7zXmnTlj__ENOMg3-4" value="" style="endArrow=classic;html=1;rounded=0;" parent="1" edge="1">
          <mxGeometry width="50" height="50" relative="1" as="geometry">
            <mxPoint x="331" y="589" as="sourcePoint" />
            <mxPoint x="80" y="659" as="targetPoint" />
          </mxGeometry>
        </mxCell>
        <mxCell id="N9zt7zXmnTlj__ENOMg3-7" value="" style="shape=image;verticalLabelPosition=bottom;labelBackgroundColor=default;verticalAlign=top;aspect=fixed;imageAspect=0;image=data:image/png,iVBORw0KGgoAAAANSUhEUgAAAdUAAABtCAYAAAD3V/tbAAAXTklEQVR4nO3c/0sV+f4H8Od+uP9C50S3XG5GN8i84hVviRYRbMIx2YKNZZG42ZblLmGK0X7I2E8ud2WxlCjL3PQSsiwt6eI6YIFEKdo1PZi64C7ZsmrhnP0j5vPDfHvPnDln5uj7nGPe5wMO2Zl5z7zf73nP+zXv98yc9zRN00BERERr9j/ZzgAREdFGwaBKREQkCYMqERGRJAyqREREkjCoEhERScKgSkREJAmDKhERkSQMqkRERJKkGFRV9J2rxOY84XNOQSw9ecuqWP9FbL42k+1syKcqOJXnPIbtURkbnkF7Xicmg64e7cTmvIvoU2Xsm4hofQgeVKOd2Jx3GsoHXViZGzA+XejAU4xuwI5x8fU8Lh3M914Y7UzDxYR+wbLWADd5rRKn+pMckDfLUMpqMGMew/sRtJyQENyi42gp24qcoPkqrMHK3Dc4Fl7jfomI1pFgQVVVcOrEAjqGB3DvqNgLhnHs9kbsGGcw2rMLOX/2Xhr7fQHYsQ0hqftUsTiSeJ+Bt/EK2PN+4gMy+URx5r3wQ3SUzWPxzVr261cn/vkiItoIAgXVyd5OKCerfIPn5LVE08IzaM+7iD5VmD42lsf6LxppxNFSquubaZzTmtbIyBxZilOfrqlde7uV2Jx3GS3IRU5cefX85DfNAz2XHXlIXHb3JsTpVyN9tNPY5zxqDwl5i3Y6p9qF/ZnT0/p+L6LvZwWn8k6jdgRoOZEoD3pwc47AncHcWQ+u6dwk+Uk4sle98uUalXscH/3YxR9/73q0txXrv7hhb0kQ0TtA8/VSa9t9RGubSrbOivbw7BEt3PrS+uZFq/D/lUGtenejVn22UXu4Ym6zUWtrbdSq+1YkrS/mcUV7aKXVNLWvUQu33tHazg5qqrB9c/mL1iNa2FymaZo2dcdRlvj6sNP6lj1gXep5fOn8/+472gtrN4NatZDHF61HtLB7W1N3nOXwzbszr2pfoyP9i9YjVn0nz0/8dh3i8uVcX99vo729qTta+Owdrc1x/IWyuo6fuH13GYiIMingPVWfacnoj6gdiWCwwR6pFB2MAK+W9BHDm2UoACJfilPF85jd3mBNJ+ds34XIdmNhiutP9nYCzV2oKzRWVSehjNgjzcXX80APUHo7ok9PhrdhjzkSVRXc7olg0FwGfYrUyoubuoRZcRTrV/aAFl/PC/ucwXdNQMdwDYqMb2JjT6FY06v6iDMilhkBpqXVJcyao2FjhDd6cAArDfmAquCLplyhHmYw2mNO2frkx10nLnH5UpcwW3YApeLxwQF8LRwDjCwgxzr+YeSUmW1QRd+Xndhz324b4pR26Og3WBG3Q0SUQVJeqYn9vgCc3Gd1uNZ3RkenLxemj9UlzCKCc9b9WRWjj+ete26pra/f/4yUCD36m2Uo1kMzxpTnfTsgiA/VxMaeQnHk3ef+35tlx/p+ZXfKR91wDWbjpmdVLL4SyhAdR4sQdAB30FWxOCLWh71OwoerzLKaDykN1yAiXiy9WYYCBRXWlGovcoYH9KDtlx9Xnbi58+V1gXDptB0I44+/eJGkYtGcSjbyent7l35hQESUZQGCahg5ZfNQxhI/Hurs8AEz6Onf6X87Ovu4Tli8r5fi+nGjJBV9XeLDOHoAKk0woovLuzHyFNcXuUexycvuIRzBvbkudKATX5j3fF0j6/iRnYLbPUKg93zSNvnDVVZePygyRusRnDtpH1c9kH0lPNltjwT98pN0ZO+RL0edqZNQXPUdd3EgXiQZF1iDVj7dD88REWVPoKB67MsaoOm061WNGbQbo62c7bugPJ60Rl6x/muotUZS8U+1xnXCjunAFNcPb8MeLGDReoDnGmpHhIdxPAKQ2Kk78z6D9hMKkPDVkPhRbPKyJxJGzg7hv46RNRB6P1eYPtanOxXYgcdzJOwzBeuX91DJAUR6ej1frUmeH5+RvcdFj2N9V9m9gnDs9wXhYqAIkTIFtz1eG/J9nYiIKM2CTf+GI7g39xX2NJ12PCELY8oudPQbDO7oRL6xLP/xAczMGdOtrvtnXp1w3P25VNZHPj5phnWf8AtUoaPMznp8AHJOF4eOVuHSiJn3cZTejySrCJR+sMvxdG3Ssjs4fzij4lUNvjYDb+E+Kw/tUeivucDc5jXgdA3EXHlO8xrBpiIvUWCJv1gJlRxAZGQZiwAQjuBroR4dPwqRND/6BULLiQTv2Mbly7m+I2ACnkFYvDUgXuRZbXEj/kgHEb2T3tM0Tct2JoiIiDYC/vYvERGRJAyqREREkjCoEhERScKgSkREJAmDKhERkSQMqkRERJIwqBIREUnCoEpERCQJgyoREZEkDKpERESSMKgSERFJwqBKREQkCYMqERGRJAyqREREkvzJb4Vnz19mIh9ERETvlP17/xb3nW9QBYC/5/9VemYybWrmlw1RDhlYF0SULRul/5ma+cXze07/EhERScKgSkREJAmDKhERkSQMqkRERJIwqBIREUnCoEpERCQJgyoREZEkDKpERESSMKgSERFJwqBKREQkCYMqERGRJGkIqjEM1B1HbrH5uYyBGIDYEGqLxe/tT+1PMfzx02XkFncj6rWtG3Pys+kjekPPV/bpdXBrOrv7dxyzuiH8IWGbaStTbAi1cW2JiN5J093xcePGnPf3xufWNLIWUwL9oH5wc7hVfBW4+wAL7cZXsSEMvAVQUI6OiXL9u+lu5P57C563l2OTlfY82oY/x7c/VaDjSMhYbxAXUI3n5/PkZnM9iw2htuItPp2oRmG28yKov/sAnxXof0dvHMfeOriOHxFRmpRUe/Q3eViYqAagB9C9v32MBTFWFGQnpsgdqcaW8TPKsa9A+C5UjsqChCnEFVH5v9VA8w19ZIs53DozhPp/suNebwrPX0H92FssZTsjREQJZSemyA2qoa3YjSGMr3ZaL1SOT6t+xYXv5/DHT9/jetUVa3S0vszhlmv6WmdOa4rLjelvi3M6VV/XWGe6G7kV3XiEIXxU7J6iSLbNDIst42fzb9cUjFUX093x08TT3R7TMd7bcZbdPQXt3obzeNz6j6yCEtE7LQsxRfI91Tx8NliNn894dXzBFJ6/gvreq9jbvB0/rMtpX2GKe+IBFiauYLd1JaS7fmYC+yb05T9U/YoL/zKDSwwDdZ9j6NBNI+0D7Ht2FdfNhAXVWBisxmGU44eJB46pjMTbzLzo9914VFWMQgDRZ9DzOvEAC3fL8ah5UD/uBcWoHxvFuFAv0WdDONxUET+tPd2N3DOv0TZo1ulNtL2+agfoWBRLVp3dRFvJEL61LmTcx+Mmtg1341G6K4GIMmesG3td90yDynRMkf+gUqgcHRMPsHAXHqOtVLzG8np4TshtegLXS6px3LraycPxJmDoP3Zm6+/a90MLP67GYXOqNBbF0Fg5PjXn92Ec8AC7TbjNDLl+xm7QH+GKFfALzwv3fguKUW8dN71eLnxvHv85jPfuRPk/QnHb1oPteVRai0Ko/Gc5Hg1H9QuHUDk+s+oshH2HduLRb+aI2H089CmfwzILT0TZVVKN5+bF+8SDVY42MxNTJD+oJCioxsJEBQbqPkftTzftG8U+ojeu4uemm3iOG9j7/Rwq19lo9Y+l18DYEPYWdzsXVMUA+JTx7Vs8KtmC/0tb7tJHfFDJITaE2gpxZLgTbcZfm/5RisPNE4iez0Ph9ASuV32MhbgqimH5NbB7v2vBli3WhcMm6A9HfdQrLK/S//lj6TWwvZj33YnIU6ZjSvqCKgBzVHHhtwABBwCmu/FRbzl+mAhhEz5GffFV3Nq/2quS9Ni0bTtQ5XrKzBLgMkgIFHoS/f7kNmk5zCDrSeUH6ACgT8V+by8PFaK8pBvj09XAsyHU76/22EgIW7cDQ0sxoMDVRkq2YBv0gPrtX25iYUJfrj/pp6+yadt2YHgZfyDPrtO3b/EIwKcSi0pE76AsxBTJT/8O4Zbj3c4Yxod/xeG/BBmlGk9mWdOcefjsbjmun1ln7xsWFKO+9+rq3rEsKEY9xPuBxv1JebnLLGPkbV0QTE/Y94cBmNO41/99Gd++FqdonQr3l+OR4750DAP/6gYOFWKTOZLdFrKWjQ//aifesgWHx7rxYFpI++8hGaUjondadmKK3JFqaCvQ/Dlym+2vDjcFmfqNYaDuKq5XXcGC2PEWVKCt5HN8dKM4wcgwvR55lkV/GKu24jhyrSU70Tb4lXBPMBEzrb3d+rtXUN8rju7K8WnVcXxUPARUXcHC+WDT5llRUIE2fG5PhVeVx98fLihG/dgQfm46n3iKtqAaC3e7kVtxHBeMr8R2U/nPcuSeOW4E7J2or9pppw2Vo2MQwvHYiba7+j1nItogxrqdt9w831sVZS+mvKdpmpZshWfPX+Lv+X9Ny84zaWrml/VZjiz82ENm60KfEt4W6KKDiDa6ddsXp2hq5hfs3/u3uO/5279ZpU9zmq+nbETRG1dxvepjBlQi+q+Q5geVyEl/T/XCmPBV1ZWsTG2n3XQ3cs8MGdM0G7B8REQeGFQzKoTK9geozHY2MqGg2vpdTiKi/xac/iUiIpKEQZWIiEgSBlUiIiJJGFSJiIgkYVAlIiKShEGViIhIEgZVIiIiSRhUiYiIJAn0279ERETk5PXbv4F+Uckr4bvm2fOXG6IcMrAuiChbNkr/k2jAyelfIiIiSRhUiYiIJGFQJSIikoRBlYiISBIGVSIiIkkYVImIiCRhUCUiIpKEQZWIiEgSBlUiIiJJGFSJiIgkYVAlIiKSJA1BVUXfuUpsztM/p/pVCemcyzafUxCTn/EU8rOGdNFOuxx5nZh0pY71X/QvZ7QTm/Muoi9oltZsBu15dpnao3LSTV4Tjum1Gfl5UBWcEtI46jTZMscxMj/x9e3If9JjtrY2IZYlabmDrBM0T6tKl+p5mp52ZZq85rXMJ22QY2GR1C9ZbdF7f2I7C1RHrvYbvF69tpGgn/FbLlmgfjHFdM7zV2I5NB9Px6f9VnF40XpEC7e+NP73UmvbfURrm1pjuqk7jm041w1mXZRjZVCr3t2oPVzR/6v2NWrhs4OaaiaeuqOFd9/RXnhuy7SiPTzbqLW1NmrVfSsplcmUWl2saA/PHrH35SrDatO5y/ai9UiS8qwyDyuDWrVQn4GXTd1xHhfzu93OPHrl+UXrES3sytua2oSwjbbWO0nbfZB1AuVptelSOk/T067s745o4bgy+aQNeCzEbYV3uz4p9kvO7Xi1R72OA2/faKfOT5B6NbNj151nWr/lAaTaFwfrF1NN91JrE7aR/Fh7S1QOySPVGYz27EJHVb7x/3x80rwLLU/8RyFJ0xXWoK7QXruoqgaRnnGfq8i1SE85YmNPoZyswrGwvjR0tAqXRp5i1LhCmnyiINL8IYqM1J7lVCeh4AA+qToANP2YxjoQ9jcSwbmjRqbDEZw7OQ9lzOeyLmk6dz3pZU1YntXmQabCGqwMJ8mjoahhADPNQG2v2VbW1ibsbURQ2rAPl3p6E1xRB1lHXDfL52la2hX0Ud+hp4gMd6GjLLW0wY6FIfojakcAIILBuQGsDNcgAgC+de8U679mbCfR8l60AIicjBjbT9bvqejrUgAAkeYurMwNYPAkAMwL7TEYa3+rXC5ToH4x5XT5qGuw+59QyQFERpaxKCG/coNqdBwtZQdQGra/CpUcMAqiT7vYUxHG1Mm1GZ90Ht4sQynbihypmQ9aDmPaQJiu1KcYOjGZNJ2K0cfzuHTQPpBAPkpdgSZSIiQOFyFSpmBUmL6JjT0FPihCyGNZOugdzT6rYQJA0cEIlMeTiKkKTjmmTfRjfKpfTZ7Oa0fhbdiDBSx6dEirzYN0Aevc0XbX1CYM0XG0nNyHIq9lqawjrpvl8zRt7Socwb25b6zAGHifQY+Fua3fF/Q/zO2FixApA4B5LL4RpoU9bjdYdasq+KJpHjgZwSWv+jPyBAB7Dn5obD9Z+1OxOAIAdj9SdNAIfa+WjHp1Ttvb06PG1HM4gntzA7hXtdV7F37LpUveLybsiwP2p6bJ3k5ACMBrkcEHlfJRN1yD2RPGwYv+iFrUYKYh3y+hi341FvmgCKE05DKIooYudLy6bJwcM/iuCegYrpFyQJJTMfoYRkMJo/SDIKOLNApHcO9+Lmq/1DuOWH8vWk5+hXtHPXo0B72zEq+ezSvyzOVhVTtDzg5g9nefgJ3kAmE1Jp8oVmef6MIkyDrBrIPzNKPHdHUWX+vBLrLdK09hHLv9lR4oRzrxXVTvtBXoI0h9ND+D9kOdUBDBYMM+752ok1CM0XBpoX6+A0h8zqtLmAUA5CLHM1sR3LuvB1ml6UdMYgbfNc0D2JWh/ku+NfXFwr3n0YMD0tpXZp/+DUdw7qSC2/0K2k8soOPLSIonnIq+c6dRuyPbJ1gYx05H0NKloO/aZcw2N3heGUsX/RG1sEcKSUcJmVL4ITrQie/6FXzRlIvBgJ2veTKYjfoLHEhwtb7WPCioEB7acI5gky1bJ1QFt3siKDWnVQv3xU9JBlknFevhPF1lu1o/8lFnBLCWE5Wo6AFQVoOvj4ah189ltPgEs9jYUyiANRoOlRwIMAXso7DGmBJWUJF3WZ9azlT/lRZr6IsLa7AyN4CVuQGUPpH3AOyfJGzDnzAFVNTwFfbkXcZscxfq/AovTh2pCk4d6sSe+wNYKUyWKI3E/BTWYHBHJSpe1WCmwacgRrpE8/V73tdPNG+7kPNn/a/JJwowAuTndTpX6f8w8xcZO7YZHW0Yx76ssY6N7xWimO72AI6Z36sKTiHXMbUoJw8RDM4l6riSLfOiYvEVsOegTybVJcyaZXmTYJ1AbcLsWOeh5CnOFXpncMwINEHWCWQ9nKdrbldr2ac381h4UV6rABIsL/wQHWWKdc/00mnj4sS6HzuP2kOVqLW3hoq8BXQMf4NjYXvqFz2XsbnHsVeMRmtQlLB+9VmSogTZ0u8t6iNnQLjH/E6x+8WU+mIxnaCooQsd507ju2jE8VzAasgdqf55a9zN3tjYUyhCo43192L2ZMT5wIdfOlXBqUPLODc3sOYCyyoHVAW3X0VwCfr0jn86r6lDfd5fP8hh5JTNY1HshNVJKCPmVI7xkMjwgHV1tTI3gJX7a5nq8xd6P1e/HyN8N/lEcUx7TfZ2Ys9J/WoxlkI6kdf9rrXmQTpjKvQTnzbouD+zpjZh3Oe77zrmw+IDF0HWcVkH52mm2lXwffodCyfrXqV179x+cMmaMbC+07Wc8HtFR2BN/XrznAIW7uvq94GFB5eEaXhzKlqnoML3dbZs8usX4d0XB0mXLqt9bDgRv0fuzceW1b7GuFcqEqVL/rpFMHJfqXmptZmPkrtezUjbKzVer3m48xKQzFdqxOPoPE4pvDLh+zrFKvMg8ZUata/R81UZZ7s0Xo9wpV11m0iYR30/bVMB1/GQ/fM03e3Kq/wyX6lxverifuXFevWkUXu4Yr82410/5rbs46i3t/i2ZL8y4912rXQJXntxbNeRR3f1JVkWZHkScl+pSdwX+/WnYtvQ6yVBf5BiOaQHVff7W87OQ2zkxnpW5SRIp5nv/sV/grxXJ70ccfl2H5DE5dA0zfkemccJ6zgpXHWTqMNK9b3d1OtC7ECEk2jqjuuk0tez85kgneY++YOcmKvIw1qCaoD3D73apXebXF2bSHZczQ7/cYB1grxnmZ3zVH67cpcvft8+aX3Oz8Tbir/Y8A6yyfJktkc7ffw5n2yZLuG5JZTNzIO9rutcWE9B1V0md1tM2BcnSqdp8e/bphZQk5XjPU3TtGQj2WfPX2L/3r+lebycfhulHDKwLogoWzZK/5OoHPztXyIiIkkYVImIiCRhUCUiIpKEQZWIiEgSBlUiIiJJGFSJiIgkYVAlIiKShEGViIhIEgZVIiIiSRhUiYiIJGFQJSIikiTQb/8SERGRk9dv//oGVSIiIgqG079ERESSMKgSERFJwqBKREQkyf8DdNBWvaO5uKYAAAAASUVORK5CYII=;rotation=11.8;" parent="1" vertex="1">
          <mxGeometry x="87" y="465" width="232.37" height="54" as="geometry" />
        </mxCell>
        <mxCell id="N9zt7zXmnTlj__ENOMg3-8" value="" style="shape=image;verticalLabelPosition=bottom;labelBackgroundColor=default;verticalAlign=top;aspect=fixed;imageAspect=0;image=data:image/png,iVBORw0KGgoAAAANSUhEUgAAAcUAAABvCAYAAACdMdu4AAASvUlEQVR4nO3d/0sc194H8Hce+i90N7SJhRjuFarb4l3yVNGGIKTCGImFp5Qg4WqaZ6MtxUYSLLi96VWIhNiEcmuy1yfxIlJKL9VgHLABKXZF02QjyWrBluglasrO5o+Y54dzZubM7uwXdXVN8n5BiM6ZOXNmRs9nzuecTfaYpmmCiIiI8F/FbgAREdFuwaBIREQkMSgSERFJDIpEREQSgyIREZHEoEhERCRlDYrJsfPYW96o/IkgtlMt22mGjlOua23E1fkC1dumI5nn7uKeP7/3OTl2HqfGjGI3g4hoU7IGxdWVJWg9g0gsjiOxOI6JFh0NG+jgnytP16HXhhCX15oY1tB38jxGt9i/J2enoR/cD59nqYHRNnfw9TVdQmIxhODWTlskBmbuLKHiDf/GDpuPYO+L+nNFRM+VLEExjpkhuDq4YHMIWnQdqzvQsJ0W+0kH1OBVeRwDtUtYfbq1eldXlqAdyBQkDKxGy1Dy+tbOsXts7nqST5bd956IqEgyB0VjDQvQUFOpbHu6Dr12H0rkt7F+Jd2ovOm7tvfHZX06TpVHEFPTlFZZjvqAOK6Wn8eoIUZWaalcV+pTHd3FcVVJh2ZO6xlYfQx0HQm4tykdvDuV7E5vZk4zG1h9XAat2iMozkewt7wbfVhCe511L6zrVPZp05FUrk9cg3IfUkZY2dqZeq9PjRnKPU8dFbvvXer98zyPsYaF2sOo8TvncOr1ehbiOgLhJWCo2943OXaeI0ciKg4zkwfXTf+ZCdOwNzwyr7x5zLzyQHx3//Ix03/5kSxLmD+cEWXG6LmU46xdJszWM+fMVrtMrU8c79SXUn9iwmx987p55fI584eEs3/raCKtXY6U7bKO+54X+8i88qZVd/r5U6/p/mXr3HI/9XofXE9rt/c5Zb3KNafuL86r3LMH103/mevmlTNWW93XmK2dqe5fPma2njnnfWxiwmx13dOE+cMZ5/6kXvP9y6LNzvWIdjnnzvYs0u99xp8hIqJt9kqmYJl8sgxEdQTKI3KLhonFcTHXNR9Bw+MQ4tfkyMqIQY+WQbsA4EmG+manoUdLMbGoyTSZHyW1EKnY+Vtoj2qYuOaM1IJHNGBwDUkE4Hu6Dh06Ko6M432/PPagldr1Hv3F+rux0DOIG5XK+WsP46LXzsYaFrCEvrpGtMtNXcPjSFQCMHR8HlbbLdPKw37A0HFtSFPKRBpWO3BcfCNH1p7nhEdq9ek69JYq3FDKgRAuXnPqR3QZJVOXnPtQWwa8nqOdaUQZejrRIe+P741S596NRICeQbtMPN9StPnhec3BzpA4bmUJGuZwqlxHxfC4fe+zPgtjDQsotUeXgJxXbcpw04iItlGG9KlYMGEtson3lAFK2lQEzAgCVjqsbh1ti6Kj9jVdwsRBUaYuIBGLdo57LiBJPlkGWqpcZeo8kyjvdTppxDEzZKU2A+iYCmHhpJpKFOlQPXzaTtcFVpqRUIOLeq7ZaWeRzVQIGpR5MRmQG+zU3whKpsbRUSmPc7VbnNeah00+WYZ2NJhxkU1qalUEVL9SDnSddtos7kOzDIiwg1WJP3s7008tUuNtTZkCZkrKV02by8Cd/hzF9eCx7g6ouZ5FxvqIiHZexqC4GnU6Rl9TM7qi05iRg7LUVampqyWDndbqTXVuzb1oxxod1lR6LUaRQVluW11Zcs/3ydFFiXWIX8ONxUEMIILP5VzVarQMA1PjThs71flCt9WVJSd4+TW0tSxBnxUXawVk51ov2UEprd3zt9Buz0PmWImpBjSve2TEoEfdc7pp90EJVtnamSZlbhgwMDqoi3uQem9lmesFJcv1tF3rRUW4X5mfzP4s3C8CRETF5R0U0zpGP0pqnUARPKJBD9/K/lm61/dBs+tL6eANHadO6ugaFsG05EAZ9Dsxe2FFcqwf7VFrJKOOCqW0Tl228aD1dQA1LUtoH3Ev5PGWHrDV9viqD0MbGvH8aEbJgTLoK1ZBHFdP6oC90CTHSkyPwOTaP608/T6oI9Fs7UwV+0l3jWBj/afRjhAuNvkB/35UYBmrsh7xLJxFSL43SoGhOfvZx/rli4/d3gA6hkvRfsEatWd7Fun33loARERUDN5BMa1D9qPmqBIAKkPiM4upKz7nI86KxLoIKmTQS0vt1U1DU1J7asp1b3kjAncOI26NPtMCtNqpq6tRG9HwWHbsAIKdvega6s6wmlWVHrx81Yedj574NVzsgVghmvKhfl9Ts3KOOdQMa0q94kWivS7DZx0rq9AVVdPM7v3TUq8eIzjXSDRLO9OuNyWd2YBeJbUcwAmlns/RjIFatd0hxHuW7WfZAJH6dLW3MiSep1xdnPlZiJ+rvpPZng8R0c7ZY5rb/58MJ8fOi3mkLClM2ilxXC0fURbrEBGRZUf+7dO0uTAqnpTPEhIRkWMHgqLHnCAVTfZ/do6I6OW2I+lTIiKi5wH/6ygiIiKJQZGIiEhiUCQiIpIYFImIiCQGRSIiIolBkYiISGJQJCIikhgUiYiIJAZFIiIiiUGRiIhIYlAkIiKSXvHa+PPdRzvdDiIiooJ79523NrS/Z1AEgL8E/rzlxhARERXLg/hvGz6G6VMiIiKJQZGIiEhiUCQiIpIYFImIiCQGRSIiIolBkYiISGJQJCIikhgUiYiIJAZFIiIiiUGRiIhIYlAkIiKSChIU57/+AKWH1D83Mb/FOp/d7kbp14uFaJ6HRXxzqBvjyW2qnoiInksFGym+F/4Hlu99j+V73+NueAX/U4DASEREtJO2JX366rFPcaV6BesciRER0XNkm+YUk1ibtb5exDdqarVjEs8AIDmJ9tTRZHIS7RnTmin1pBz77Ha3K4X7zUN3e8Y7nLL22+sFvFYiInpRbEtQfHb7O3xVXYMqH4CH94B/fi9Tq1/g7OxNfP8QgK8S9dWTmFOC17NfZvBj84do9KXWuIhvDv0dv6amaK0AiyTm/lODu3bZn/DVv5yy8Y5PMFnnHPvRf27iq+24cCIieq4VLCj+2POJPRJ7Z6oGd6/W41UAeLsVH79t7VWOqmbg17UkAB8a/1rvCl5zU7/j7Lvl6ZU/vIevqlvx5TEnWr567EOcnZ3BXBKirk/l+QC8+t81eG/2D6wBQHIek7P1+Eg5tvLTL3C2UBdOREQvjFcKVdF74X9g4FjaEA/WSO2zWXVf+cXbh3B29jvMJevRiHlMohVfvp1ew7O1FeDAITvoCT7sr/4da38A8AF4eBOl/zuplNfjIwD44w/8WP0avtzKxRER0Uthmz+nKALi2l+/t1OX/25Wy8tR1fw7Jn9J4tkvM0BdZUrgE17dfwBYWZcjStWfsP81iID4r9fs9OnyRCves3Z57TVn1Gg3ax2/FugKiYjoxbHtQXFtVgYuAMAi5kbce1R+2ApMfY2/9RxwpThd3j6Es7M38bfbzgqcZ7e/xmcQ85ZiJLnPDqjPfpnBj9aOvn14E5P4P+XY+e9uOuVERERSwdKn3srxQRh4p+EDfAYAqMfZ5pRdfJWox0181vwhBrLU8/G9L/DNoU9Q2iM3Vbc685bHPsTZQ39HqQy47zXXOyNFj2PP/vMLnB35riBXSEREL449pmmaqRt/vvsIfwn8eYea4KRYP/aYTyQiItqMB/Hf8O47b23omG0eKeYm0qCtuMuASERERVa8oJicRHvDTfyIevz7Xr3nAhsiIqKdVLyg6KvHwL36op2eiIgoFf/rKCIiIolBkYiISGJQJCIikhgUiYiIJAZFIiIiiUGRiIhIYlAkIiKSGBSJiIikjB/efxD/bSfbQUREVHQZg+JG/xFVIiKi3eTnu482fAzTp0RERBKDIhERkcSgSEREJDEoEhERSQyKREREEoMiERGRxKBIREQkMSgSERFJDIpEREQSgyIREZHEoEhERCQVLCjG+huxt9z6E0FsU7UYGG0TdVydz34Or/I085HNtSmf4wwdp/Jop1cduco9Tmbfl73ljTg1ZuR5IfkdF+tvxN42HckM16i2dcN1eNmlzyXjfv3xfFu4NSn3O//nrLDv0XmMeh2eq5zoJVeQoBjrb0TDkLpFR0O+HaQiOdaP9mim0jhmlHP0/ZSjozJ0nDq5jIGpcSQWxxHvWc6vTXkeFxuJoKJFy9gOrWcQiUVRx0SLjoaUjjVXuetc/afRfrBX7t+LivDpvF4K8jrO0HHtsYYuTGPGs5PUMCHbmZgKAeH+9M40Zx3ufXfvc4njankjGtBr75NYHMcE5jb5krcBho5TdRHoyiY9z+dsH1/eiL0n9c2VExGAQgRFQ8e1IQAokx1WL7oAIBrBt/n+Qst6Pg8vZSxOjo2gD4DWokEDgKHsHVVydhp6SzPe94vvfU3N6Irm7rTzOy6OmSENNZ1V6BoayfnGHTyiAY/XMnb82cvjmBkqw0BzQH4fwImestwvBXkel5ydBo4ex4mjQPtIjjr9QWi1S1h96t68kTp273MxMNrWjYWeQSQ6A+79OkMIZq9qy2IjMiC29MqgXwYA6Bvc2Mul/fuxyXKil93Wg+LTdfHLXHsYNX4ACKCmRRQtPDGUVJSVqhJv4+70kIHRCxHo0NDV4nUSAzN3RMCsOHIcWi0A6JjJGHTF/l1H1M4tgJqWJeizBpJj592pvvmITCdlP842P4e+lioEvco82jI6qKPrtAbfZsrn59Bn31vBV30Y2tAcYvJeOqMJmS7tj+c4Tr1PgFbt9yjzassttCOEE5Xu9udfxy5+LkYMelRDW5M/yzHbxcDqY/GVdY2+6sMieEXXsaqkVa3fmeTYeffvlV/DjcVx3Gje532KXOVEBKAAQTH5ZFl8cXC/Z6ce7BzEgAxi18YMe8SHll7ckB1QrP802qNA13AINV4nMWLQowCgoabSj5qj8i0652jJm6/pEiYORvD5mAG7cxy+ZI9Ccon9pNudV/CIBv1OLO1tXg+flp2WSGF2VG6sPD8BdEyFsHBSdowyaMVTRjoZGTHokIHTH4RW6/WioaPBmuc6uYyBCynBO6868lPU5/J0HXrtPpRsrulbZGA1CgBlKHndo9iv4cawGN/p4VuIIY5vw0sQ2ZntH8USvUx2YPWpH+9fCEGD6JAC4SUAGiZkx50cO4+GITHXkykwJGenZWqpCkEob9G5RjZZBJtDQPgWRsf6NxaUDB3XhjTUWPtXVnmm/9S5q/iBkbRFKLnK8+bX0Nai49qYjqteQSuL2EgEOBqU+4uXjfQXDWVOcbEZq3XuRSz51ZG/Yj+XXasyhIkWQLykdIuphJ7OvF8YiCg/hQuKWebMRMftfKv1HJdvt9Ybr/MGby3Y6TtppYqc1CmGusVbvr0gYeOjkoo3/HabLvYsoz1cagfofI4TAVoZPZV3ow9LWefSfE2dGMiyCCVXuSdlVBPs7EVFOIKFfDpJ+zixcMkZOTWKF5asc3EBdAyri1g2U4e3oj+X1/dBi65jdWPNLrD0+VpVsDmkzAcWK9VL9GLbclB05j5k56IsvNGq5S+tvU3QvVYwZmKnTr15j0r8KDko5jQdYuGJk56K49twKbpaRFo3v+Pk3NbwuGt1YmIqlHMubTXLNWQt9+isk7PT0JV0dXJsBAstGhC+5bQh13Hzc+irDSG+6L6WiRxzcXa6fFN17OLnssXU79Y48/DWz7Oz8KbKTo/a2wAA2VcsE9HmbH2k6A/KhS9LaK9TRnH2Io84rsptXcPjMgVkvcEH0JHWoYpqu4bHcaPJ76ROUztfOceSKYUq0nBO8E2OjSgLT8RKQwyH0NHZiwplv6zHycUYNakpvRwdqvvcGyyX6VGnAxSja3vRyXwEgTuHcbEzhIs9y85+OY6L/aRDs9Oeyn3LMBdXqDp273Px4/3TmpKhcMT6s3yeUd7ffL4WC4e86woesX6eu10ZE+teW9MMqA0hPiVHjJsYkRNRDqaH6bmHXpuzSJg/nDlm+t+Uf85MmEbqdnvbI/OK3K91NJFW0/3LouzKg1z7Zq/HNE3TfHDdo03yHMr3Yr9z5g+JPI67/MjzVMboOXtf6xqcP9fN+x7XmKk8nfv+intjmmZiwmxVv7f2s9uY7Tjlel3Efb3ywKlfbat9r/Otw8sufS5q2z2vOYV63ny+Fu3P8qzV61Pvn7Ld2maMnvO+BvuZZXg2ucqJXiAbj2Wmucc0TTM1UP589xHefeetYsRoIiKigthMLOO/fUpERCQxKBJtxoULwIkT4usTJ4A9e9K/HxwsXvuIaFMYFIk248IF8feePeJvaxYi9Xsieq5wTpGIiF5InFMkIiLaAgZFIiIiiUGRiIhIYlAkIiKSGBSJiIgkBkUiIiKJQZGIiEh6JVPBz3cf7WQ7iIiIis7zw/tEREQvI6ZPiYiIJAZFIiIiiUGRiIhIYlAkIiKSGBSJiIgkBkUiIiKJQZGIiEj6f4h/jgRCVHXjAAAAAElFTkSuQmCC;rotation=-15;" parent="1" vertex="1">
          <mxGeometry x="85" y="573" width="204" height="49.99" as="geometry" />
        </mxCell>
        <mxCell id="N9zt7zXmnTlj__ENOMg3-9" value="" style="endArrow=classic;html=1;rounded=0;" parent="1" edge="1">
          <mxGeometry width="50" height="50" relative="1" as="geometry">
            <mxPoint x="332" y="657" as="sourcePoint" />
            <mxPoint x="81" y="727.0000000000001" as="targetPoint" />
          </mxGeometry>
        </mxCell>
        <mxCell id="N9zt7zXmnTlj__ENOMg3-10" value="" style="shape=image;verticalLabelPosition=bottom;labelBackgroundColor=default;verticalAlign=top;aspect=fixed;imageAspect=0;image=data:image/png,iVBORw0KGgoAAAANSUhEUgAAAcUAAABvCAYAAACdMdu4AAASvUlEQVR4nO3d/0sc194H8Hce+i90N7SJhRjuFarb4l3yVNGGIKTCGImFp5Qg4WqaZ6MtxUYSLLi96VWIhNiEcmuy1yfxIlJKL9VgHLABKXZF02QjyWrBluglasrO5o+Y54dzZubM7uwXdXVN8n5BiM6ZOXNmRs9nzuecTfaYpmmCiIiI8F/FbgAREdFuwaBIREQkMSgSERFJDIpEREQSgyIREZHEoEhERCRlDYrJsfPYW96o/IkgtlMt22mGjlOua23E1fkC1dumI5nn7uKeP7/3OTl2HqfGjGI3g4hoU7IGxdWVJWg9g0gsjiOxOI6JFh0NG+jgnytP16HXhhCX15oY1tB38jxGt9i/J2enoR/cD59nqYHRNnfw9TVdQmIxhODWTlskBmbuLKHiDf/GDpuPYO+L+nNFRM+VLEExjpkhuDq4YHMIWnQdqzvQsJ0W+0kH1OBVeRwDtUtYfbq1eldXlqAdyBQkDKxGy1Dy+tbOsXts7nqST5bd956IqEgyB0VjDQvQUFOpbHu6Dr12H0rkt7F+Jd2ovOm7tvfHZX06TpVHEFPTlFZZjvqAOK6Wn8eoIUZWaalcV+pTHd3FcVVJh2ZO6xlYfQx0HQm4tykdvDuV7E5vZk4zG1h9XAat2iMozkewt7wbfVhCe511L6zrVPZp05FUrk9cg3IfUkZY2dqZeq9PjRnKPU8dFbvvXer98zyPsYaF2sOo8TvncOr1ehbiOgLhJWCo2943OXaeI0ciKg4zkwfXTf+ZCdOwNzwyr7x5zLzyQHx3//Ix03/5kSxLmD+cEWXG6LmU46xdJszWM+fMVrtMrU8c79SXUn9iwmx987p55fI584eEs3/raCKtXY6U7bKO+54X+8i88qZVd/r5U6/p/mXr3HI/9XofXE9rt/c5Zb3KNafuL86r3LMH103/mevmlTNWW93XmK2dqe5fPma2njnnfWxiwmx13dOE+cMZ5/6kXvP9y6LNzvWIdjnnzvYs0u99xp8hIqJt9kqmYJl8sgxEdQTKI3KLhonFcTHXNR9Bw+MQ4tfkyMqIQY+WQbsA4EmG+manoUdLMbGoyTSZHyW1EKnY+Vtoj2qYuOaM1IJHNGBwDUkE4Hu6Dh06Ko6M432/PPagldr1Hv3F+rux0DOIG5XK+WsP46LXzsYaFrCEvrpGtMtNXcPjSFQCMHR8HlbbLdPKw37A0HFtSFPKRBpWO3BcfCNH1p7nhEdq9ek69JYq3FDKgRAuXnPqR3QZJVOXnPtQWwa8nqOdaUQZejrRIe+P741S596NRICeQbtMPN9StPnhec3BzpA4bmUJGuZwqlxHxfC4fe+zPgtjDQsotUeXgJxXbcpw04iItlGG9KlYMGEtson3lAFK2lQEzAgCVjqsbh1ti6Kj9jVdwsRBUaYuIBGLdo57LiBJPlkGWqpcZeo8kyjvdTppxDEzZKU2A+iYCmHhpJpKFOlQPXzaTtcFVpqRUIOLeq7ZaWeRzVQIGpR5MRmQG+zU3whKpsbRUSmPc7VbnNeah00+WYZ2NJhxkU1qalUEVL9SDnSddtos7kOzDIiwg1WJP3s7008tUuNtTZkCZkrKV02by8Cd/hzF9eCx7g6ouZ5FxvqIiHZexqC4GnU6Rl9TM7qi05iRg7LUVampqyWDndbqTXVuzb1oxxod1lR6LUaRQVluW11Zcs/3ydFFiXWIX8ONxUEMIILP5VzVarQMA1PjThs71flCt9WVJSd4+TW0tSxBnxUXawVk51ov2UEprd3zt9Buz0PmWImpBjSve2TEoEfdc7pp90EJVtnamSZlbhgwMDqoi3uQem9lmesFJcv1tF3rRUW4X5mfzP4s3C8CRETF5R0U0zpGP0pqnUARPKJBD9/K/lm61/dBs+tL6eANHadO6ugaFsG05EAZ9Dsxe2FFcqwf7VFrJKOOCqW0Tl228aD1dQA1LUtoH3Ev5PGWHrDV9viqD0MbGvH8aEbJgTLoK1ZBHFdP6oC90CTHSkyPwOTaP608/T6oI9Fs7UwV+0l3jWBj/afRjhAuNvkB/35UYBmrsh7xLJxFSL43SoGhOfvZx/rli4/d3gA6hkvRfsEatWd7Fun33loARERUDN5BMa1D9qPmqBIAKkPiM4upKz7nI86KxLoIKmTQS0vt1U1DU1J7asp1b3kjAncOI26NPtMCtNqpq6tRG9HwWHbsAIKdvega6s6wmlWVHrx81Yedj574NVzsgVghmvKhfl9Ts3KOOdQMa0q94kWivS7DZx0rq9AVVdPM7v3TUq8eIzjXSDRLO9OuNyWd2YBeJbUcwAmlns/RjIFatd0hxHuW7WfZAJH6dLW3MiSep1xdnPlZiJ+rvpPZng8R0c7ZY5rb/58MJ8fOi3mkLClM2ilxXC0fURbrEBGRZUf+7dO0uTAqnpTPEhIRkWMHgqLHnCAVTfZ/do6I6OW2I+lTIiKi5wH/6ygiIiKJQZGIiEhiUCQiIpIYFImIiCQGRSIiIolBkYiISGJQJCIikhgUiYiIJAZFIiIiiUGRiIhIYlAkIiKSXvHa+PPdRzvdDiIiooJ79523NrS/Z1AEgL8E/rzlxhARERXLg/hvGz6G6VMiIiKJQZGIiEhiUCQiIpIYFImIiCQGRSIiIolBkYiISGJQJCIikhgUiYiIJAZFIiIiiUGRiIhIYlAkIiKSChIU57/+AKWH1D83Mb/FOp/d7kbp14uFaJ6HRXxzqBvjyW2qnoiInksFGym+F/4Hlu99j+V73+NueAX/U4DASEREtJO2JX366rFPcaV6BesciRER0XNkm+YUk1ibtb5exDdqarVjEs8AIDmJ9tTRZHIS7RnTmin1pBz77Ha3K4X7zUN3e8Y7nLL22+sFvFYiInpRbEtQfHb7O3xVXYMqH4CH94B/fi9Tq1/g7OxNfP8QgK8S9dWTmFOC17NfZvBj84do9KXWuIhvDv0dv6amaK0AiyTm/lODu3bZn/DVv5yy8Y5PMFnnHPvRf27iq+24cCIieq4VLCj+2POJPRJ7Z6oGd6/W41UAeLsVH79t7VWOqmbg17UkAB8a/1rvCl5zU7/j7Lvl6ZU/vIevqlvx5TEnWr567EOcnZ3BXBKirk/l+QC8+t81eG/2D6wBQHIek7P1+Eg5tvLTL3C2UBdOREQvjFcKVdF74X9g4FjaEA/WSO2zWXVf+cXbh3B29jvMJevRiHlMohVfvp1ew7O1FeDAITvoCT7sr/4da38A8AF4eBOl/zuplNfjIwD44w/8WP0avtzKxRER0Uthmz+nKALi2l+/t1OX/25Wy8tR1fw7Jn9J4tkvM0BdZUrgE17dfwBYWZcjStWfsP81iID4r9fs9OnyRCves3Z57TVn1Gg3ax2/FugKiYjoxbHtQXFtVgYuAMAi5kbce1R+2ApMfY2/9RxwpThd3j6Es7M38bfbzgqcZ7e/xmcQ85ZiJLnPDqjPfpnBj9aOvn14E5P4P+XY+e9uOuVERERSwdKn3srxQRh4p+EDfAYAqMfZ5pRdfJWox0181vwhBrLU8/G9L/DNoU9Q2iM3Vbc685bHPsTZQ39HqQy47zXXOyNFj2PP/vMLnB35riBXSEREL449pmmaqRt/vvsIfwn8eYea4KRYP/aYTyQiItqMB/Hf8O47b23omG0eKeYm0qCtuMuASERERVa8oJicRHvDTfyIevz7Xr3nAhsiIqKdVLyg6KvHwL36op2eiIgoFf/rKCIiIolBkYiISGJQJCIikhgUiYiIJAZFIiIiiUGRiIhIYlAkIiKSGBSJiIikjB/efxD/bSfbQUREVHQZg+JG/xFVIiKi3eTnu482fAzTp0RERBKDIhERkcSgSEREJDEoEhERSQyKREREEoMiERGRxKBIREQkMSgSERFJDIpEREQSgyIREZHEoEhERCQVLCjG+huxt9z6E0FsU7UYGG0TdVydz34Or/I085HNtSmf4wwdp/Jop1cduco9Tmbfl73ljTg1ZuR5IfkdF+tvxN42HckM16i2dcN1eNmlzyXjfv3xfFu4NSn3O//nrLDv0XmMeh2eq5zoJVeQoBjrb0TDkLpFR0O+HaQiOdaP9mim0jhmlHP0/ZSjozJ0nDq5jIGpcSQWxxHvWc6vTXkeFxuJoKJFy9gOrWcQiUVRx0SLjoaUjjVXuetc/afRfrBX7t+LivDpvF4K8jrO0HHtsYYuTGPGs5PUMCHbmZgKAeH+9M40Zx3ufXfvc4njankjGtBr75NYHMcE5jb5krcBho5TdRHoyiY9z+dsH1/eiL0n9c2VExGAQgRFQ8e1IQAokx1WL7oAIBrBt/n+Qst6Pg8vZSxOjo2gD4DWokEDgKHsHVVydhp6SzPe94vvfU3N6Irm7rTzOy6OmSENNZ1V6BoayfnGHTyiAY/XMnb82cvjmBkqw0BzQH4fwImestwvBXkel5ydBo4ex4mjQPtIjjr9QWi1S1h96t68kTp273MxMNrWjYWeQSQ6A+79OkMIZq9qy2IjMiC29MqgXwYA6Bvc2Mul/fuxyXKil93Wg+LTdfHLXHsYNX4ACKCmRRQtPDGUVJSVqhJv4+70kIHRCxHo0NDV4nUSAzN3RMCsOHIcWi0A6JjJGHTF/l1H1M4tgJqWJeizBpJj592pvvmITCdlP842P4e+lioEvco82jI6qKPrtAbfZsrn59Bn31vBV30Y2tAcYvJeOqMJmS7tj+c4Tr1PgFbt9yjzassttCOEE5Xu9udfxy5+LkYMelRDW5M/yzHbxcDqY/GVdY2+6sMieEXXsaqkVa3fmeTYeffvlV/DjcVx3Gje532KXOVEBKAAQTH5ZFl8cXC/Z6ce7BzEgAxi18YMe8SHll7ckB1QrP802qNA13AINV4nMWLQowCgoabSj5qj8i0652jJm6/pEiYORvD5mAG7cxy+ZI9Ccon9pNudV/CIBv1OLO1tXg+flp2WSGF2VG6sPD8BdEyFsHBSdowyaMVTRjoZGTHokIHTH4RW6/WioaPBmuc6uYyBCynBO6868lPU5/J0HXrtPpRsrulbZGA1CgBlKHndo9iv4cawGN/p4VuIIY5vw0sQ2ZntH8USvUx2YPWpH+9fCEGD6JAC4SUAGiZkx50cO4+GITHXkykwJGenZWqpCkEob9G5RjZZBJtDQPgWRsf6NxaUDB3XhjTUWPtXVnmm/9S5q/iBkbRFKLnK8+bX0Nai49qYjqteQSuL2EgEOBqU+4uXjfQXDWVOcbEZq3XuRSz51ZG/Yj+XXasyhIkWQLykdIuphJ7OvF8YiCg/hQuKWebMRMftfKv1HJdvt9Ybr/MGby3Y6TtppYqc1CmGusVbvr0gYeOjkoo3/HabLvYsoz1cagfofI4TAVoZPZV3ow9LWefSfE2dGMiyCCVXuSdlVBPs7EVFOIKFfDpJ+zixcMkZOTWKF5asc3EBdAyri1g2U4e3oj+X1/dBi65jdWPNLrD0+VpVsDmkzAcWK9VL9GLbclB05j5k56IsvNGq5S+tvU3QvVYwZmKnTr15j0r8KDko5jQdYuGJk56K49twKbpaRFo3v+Pk3NbwuGt1YmIqlHMubTXLNWQt9+isk7PT0JV0dXJsBAstGhC+5bQh13Hzc+irDSG+6L6WiRxzcXa6fFN17OLnssXU79Y48/DWz7Oz8KbKTo/a2wAA2VcsE9HmbH2k6A/KhS9LaK9TRnH2Io84rsptXcPjMgVkvcEH0JHWoYpqu4bHcaPJ76ROUztfOceSKYUq0nBO8E2OjSgLT8RKQwyH0NHZiwplv6zHycUYNakpvRwdqvvcGyyX6VGnAxSja3vRyXwEgTuHcbEzhIs9y85+OY6L/aRDs9Oeyn3LMBdXqDp273Px4/3TmpKhcMT6s3yeUd7ffL4WC4e86woesX6eu10ZE+teW9MMqA0hPiVHjJsYkRNRDqaH6bmHXpuzSJg/nDlm+t+Uf85MmEbqdnvbI/OK3K91NJFW0/3LouzKg1z7Zq/HNE3TfHDdo03yHMr3Yr9z5g+JPI67/MjzVMboOXtf6xqcP9fN+x7XmKk8nfv+intjmmZiwmxVv7f2s9uY7Tjlel3Efb3ywKlfbat9r/Otw8sufS5q2z2vOYV63ny+Fu3P8qzV61Pvn7Ld2maMnvO+BvuZZXg2ucqJXiAbj2Wmucc0TTM1UP589xHefeetYsRoIiKigthMLOO/fUpERCQxKBJtxoULwIkT4usTJ4A9e9K/HxwsXvuIaFMYFIk248IF8feePeJvaxYi9Xsieq5wTpGIiF5InFMkIiLaAgZFIiIiiUGRiIhIYlAkIiKSGBSJiIgkBkUiIiKJQZGIiEh6JVPBz3cf7WQ7iIiIis7zw/tEREQvI6ZPiYiIJAZFIiIiiUGRiIhIYlAkIiKSGBSJiIgkBkUiIiKJQZGIiEj6f4h/jgRCVHXjAAAAAElFTkSuQmCC;rotation=-15;" parent="1" vertex="1">
          <mxGeometry x="86" y="641" width="204" height="49.99" as="geometry" />
        </mxCell>
        <mxCell id="N9zt7zXmnTlj__ENOMg3-11" value="" style="endArrow=classic;html=1;rounded=0;" parent="1" edge="1">
          <mxGeometry width="50" height="50" relative="1" as="geometry">
            <mxPoint x="79" y="776" as="sourcePoint" />
            <mxPoint x="333" y="825" as="targetPoint" />
          </mxGeometry>
        </mxCell>
        <mxCell id="EhPJQPzQI5pnWVo__qLp-1" value="" style="shape=image;verticalLabelPosition=bottom;labelBackgroundColor=default;verticalAlign=top;aspect=fixed;imageAspect=0;image=data:image/png,iVBORw0KGgoAAAANSUhEUgAAAZMAAAB0CAYAAABAKt/vAAATzUlEQVR4nO3d/0sV2f8H8Od+eP8Le2/spstbo7egueJbXBXbWILtwlX5FCTxQZbNtiw3wi8Y7ZLtu4zdZcmUKMtqbVlkCSNbzAu3BXlTiramFzMDN9IltfDe/oj5/DAzd2buzL1z7z1zr1M9HyDknTkz55yZOa85X7y9J0mSBCIiIgH/s9EZICKiNx+DCRERCWMwISIiYQwmREQkjMGEiIiEMZgQEZGwFIJJGMNH6rCpSPdzJIBI5vK2YSJ3jmNT9/xGZ8MxkTvHjdetqB8zThw4HMCBFO4BOR8OnZuIXCW5YBLqx6aigwh8fg3rCyPKzzX04T4mwhnO4QZYWV7Eic+KrTeG+jMQROVA3Rty9KBRK8uL8Hdp1250fwA1DpQhMnkfgS058FhuNZfJs/snrC80oUzwvETkPvbBJBzAgS+W0Dc2gp93e3UbvNhz+Sfs8cZN+Yaax8SNAuR+aL018mIJiNuApiuMlfH45xQzj4kbwLaPtAtV1tAE//gaVgSPvLK8CH9evBsgk2UiIrexDSYzg/0I7G+wDRoz3fGGv+bRW3Qcw2HdMJmyXRt+OY7hcLr7q2mMQ3AH7ig7qD2JcAAH1O0xQ1jGYaCT+BH5yDWVV85PcecicOOkIQ/xyx57CF0e1PShfuWci2jeqcubYV/jG/5Mt1w+7byx9aE/5yqewI/qUt1nL9cQ2L4ZuZblNw5DxR8iC2PleQH8VRY3hmWZ1Ouq2yfmusjXzHzdrfOi5XOm23xNiSjLpIQeSz2FtVLPbKJ91qXbh2sl77nH0U8endP9vj4qNRZ2SI2HO6Tb6+oxO6Secx1S4/C6Q/vr87gu3Y6mlaTwcIfkPXdF6jk8KoV1x1e3PzpXK3nVbZIkSbNXDGUx14eW1rbsSdalnEddmtkrkld/Hos8Nx7uiB4rPNxhLIPe7JWYbcZ8xKZ9dK7WWM/x6mZ9VGosvCI9sjqnVZli9pfP2yE1qsefvSJ5D1+RegzXPYV8xr1mRJQNScyZ2AxVhH5H87gfo+3aHEPZZ37g+ar8VvlyDQEA/v/oh8QW8SSvPTpslptXoA2XpLj/zGA/0HUNLeqbd3gGgXGtZ7GyvAjcAKov++WhKW8Otqk9j3AAl2/4MapuAzDz30D8oZvwKp7oey12ZU+ScbgojOFrAfi72rXye8vg376IlZeAOmyFz9ujZfZ8lB/32JEXS8B4P4qjb/RTqF4YkdOGA/imM19Xft2QmF3dxPRuEpdJ2X9/ZXS+ZGV5EcAO/KA7PsaXkBu97l7kblfuvUT5BFDWPoL19jhzXESUFcJLgyMvlgBdIxH9TJlXkLfrhsmUYZcju7XGc+KPxWjDkNr+8vyGYajF0MiFsfIcOPGrbtI3NIUfle2RyfuGBk7dXz+/YBDTINqV3agYLWNNePJF7PBN7HCRPNdgHD7SzT+Y6iMRua7Uyff5rgJAHwBeriGAAGqigWYQuWNyoLGrm8iLJfg/L4s7+R47BGYM0sp1OagFEvN1170UJMgnEbmDTTDxInf7IgKT8ZdsmSdhlQYszxv9t2FlVEyDbJyoTXH/2J6C8lavNeZhrIwb5wv0jb0p70pPozpOIxXba0lcdgteP35euIY+9OMbdU4npidlLhPkAAhdw2roESg9GcuG3RiYPLsbcGJcW4EnN+BndSv0tN6gdd0Yr1PcoBtbptggHZ5BIKaeTSvodOVMlE8icgfbYLLnP01A50FtQhsAMI9e5e06N68AgT9mom/akTvdaB5X35zNK3pMw0jhVTzZvgPVXqS+vzcH27CEFbVxvNON5nFojZKuF6LSN5LGvM+j94uA8c3dwNxrSVz2eLzI3aL7NTY4eHOwDQFMRCfc5Xz5u/4XZWp96ALHTPdBNKMJP1id0xSYjC8Hnqod8N8YtJy8z80rQGBZ3aDWTfzrZGAR8Az7m7abV9Dpez7x85nZJdVElDz7YS6vHz8vnMW2zoOGFU9Qhig8u3/C6BZtTL74jx2YV/+WwBAoAKsG2fC3Cqnuj2L8XxfkFUNFdfgGDejbrmXdPORkHBaT39TVvE+h+ld/oopA9ecF+FE3TJWw7AbGP/isea5r/Esro3mQG0XdcJha17+qy7Ll+gjorkUNzmJdP++gZ2q05TJEg4TXjx909adfNebZ3YATN05q8yyGupGDUvPOOKvITGUy7m8aIrPoYRp6PgnySUTu8J4k8T/HenPMo7doELljHOYhInfhd3O9SUw9NyIid2AweYMk/voSIqKNw2EuIiISxp4JEREJYzAhIiJhDCZERCSMwYSIiIQxmBARkTAGEyIiEsZgQkREwhhMiIhIGIMJEREJYzAhIiJhDCZERCTsH4k2Pnj4OFv5ICKiDfRpxcdC6RMGEwD4d/G/hE7gBrPzf70V5RDBOiBy3tvyXM3O/yV8DA5zERGRMAYTIiISxmBCRETCGEyIiEgYgwkREQljMCEiImEMJkREJIzBhIiIhDGYEBGRMAYTIiISxmBCRETCbL+bKzURjLQcReuk+vtW9IyeRR2CaK4ZwD2LFLs6L+I0LqCiKw+3phtRGnusvFNYOlbkbDZthC7U4/o/L6Kv1pPV85rJdbD65RC+LsnyqecGkH8oaPio7apgPuYGkP/LB3jY68P7Yrmz5J7rRmQtdKEeeweNn7VdHULlA/PnMh9uTZdjqvwMnnbG3NtzA8g/tCy3sS645R0MJgu4VH4GuDqEpV7lo0gQI68AlPjQN+2TP7NsUI6hZ+wort+t0SprbhStaMTDLAeSDRUJornmFb4yBNUNVNWoXadIEM019bgkGlCI3nG7YoMCAJQMYekYEO8FsvSqD/mHRhGqVduGCEZ+CaLt6pArAgng5DBXZA1P4UOlvqHx+FCXVMPjQd23jUDXBYxEAGABlw4F0fZlZt5gKQ0eH053bsXT1chG54To3VPSiFsNQey9sAAAeH33AlrRiHoXvdg5F0w8m1GIIKbm0k3vw1cNz9B6cwGv797E+YZTLn0DXsCl8nrkKz/Nd9XGNYKRlnpcmtNvP6kERxj2UdPK+yr7zA0gv2YA9xDE3vJ65Cs3jfmcscfMntW/nyn/MpYjv3wAId3nlwz3gPyZVk/mbfnxyjY3oNtmPsbruye17S1BrDlYViK3Kd3XiF2DNzESWcBQF9Dzrbteth2cgC/C16ONeHpI37ikpvTYKbQNnpHnT1w5vKUbypsewtL0KRRGe1Oy84emUTktb7/V8Ayt3wfxGoDafQ3uvKikHULlgzM4ryYsacTSaCN2wYdb00OGeaL4x8yiSBDXB7fC94kHiISwGi3HRfRUBXH9bgSAB5U7t+L8A10gjIQQnPThK9M8hm5OTCnb0tU8tNZo907oAeS6mB7C0lUf7nWNRre9vnsSFWPVeKhu//IVWi3HnInc5V7XUYsXsSR4fDjdCbTWnMHTzmOuGd5SObuay+ND3/QQlq7C4u06FctYc+Noytw0zlfpu5ZFqO8Egn9qmW27qs13lO5rxK7JV1gFLBvV0mOn0JbEaeMeM9MmB1Ch3vQ1E/CpE30eH76OlkMOIPf+luvg/dp9aBu8GQ2wr/+cwL2GcvMckFIfhpeGkhr0VGm929JjurmjknK0Re+LCKbGnhmHQUsacavB0dITZcSuTu2FcinN+VH1eXMTh1dzKUoasTRdg5GWo2i+m/zqmtAFecXCQ1xAxc0F1Lmsd/J6dRmYDKKifMC4oUF+K0/o1Svcq/oApzOWuwzQT8DHMK1KiTbkRahseIbrf0ZQVwtMjQE931pcR8v68GBzHhBcjQAlHmXSX78KcCt6AAARrE5uRc63QqUjerNEgviuKw+3pvdhqvwmRva5YxWXKjPBBID6xtr6dxINLQDMDWDvoA+3pj14H/vQVn4Glz5118qh93PygIZ9cZYqJ/GmoPQooo1zZA1PAeQ4lsPsUJfgLk3L1/X13ZOo+FvbXvqpD/d+CeH1J0AQ1Thtdfk/+CDaw4oNVoU5Ht3KtiH0AZCHGG8qe3iQU/UMq6+gu7UiWFsG8E+nSknkJhGMfD8AdF5EKTzI6QQqvg+iMkPL7NPh4GquIC4ZJkjloYhd/0wmdCqrt6LDOUX4+qoP5w+lN/eSMSXlaBs8EzPBnEJaqHMLstBN67+9cTe50S7M8UR/nxp7ZtylpAY9mMB33w+gMN6KPE8pfFXa6hQA0ReKyhJEey7RQDs3rc0vKT2Y87/o5o7mRnV/30T0dlFXb51WRnnerz2GHgzgO8uFLRvDuZ6JZzPQdRT5XdpHluupTSIYaTmD8w2nsKTvhZTUoKfqKPZeKM/6Hy0CyiSZqSzyIoPmmnrkR7dsTfKPhtS02nHbrp5C2+BNbRePD1811GNveRBoOIWlYy7qw0Z5UPelD/mH6pXGfSvaGraa9qncCbR2+fBVr/kI0eP0XgRajiK/XP3Mp/3hakkNenBUG1Js8Bnml0qPDeHWhXrd9lO41RDEdQdKSJRJ1m1Lgmd9bgAVXUDPqP7FTH4OWw9dwMgn7hjuek+SJCnexgcPH+Pfxf/KZn4yYnb+L3eWI4t/pJjtOpCHvuINCRK9HVzbtqRodv4vfFrxsdAx+N1cG0YeA7Vc6fSmiwTxXRfQs4+BhOhdkcEJeDKK/d4yKENZb1ODq5XRTV/zQESZx2CSNR7U9Q6hbqOzkVHvQhmJyAqHuYiISBiDCRERCWMwISIiYQwmREQkjMGEiIiEMZgQEZEwBhMiIhLGYEJERMJsv5uLiIjefqLfzWX7F/CiJ3CDBw8fvxXlEME6IHLe2/JcOdFx4DAXEREJYzAhIiJhDCZERCSMwYSIiIQxmBARkTAGEyIiEsZgQkREwhhMiIhIGIMJEREJYzAhIiJhDCZERCTM4WASxvCROmwqkn8O3Ak7kM64bdORACLOZjrF/AikC/Vr5Sjqx0xM6sid43HLadgWJ73TEuUn7XThAA5Ey3AcwzZVm14e7K7fPHp1ddkbSuWcidO6If+pHSvNdDb3MsWTiethvB+y00ZakBK4PzWXaLPJo3O1kvfcY+W3x1JPYa3UMyuYbvaK4RjGfZPjinKsj0qNhR3S7XX51/Bwh+Q9PCqF1cSzVyRv4RXpkeWx5N8bh9dTKodeqnVgl5+00sXUgfy7tq9TeUh8/dal24d1dRmbp4TntEnrhvyndKw082B3L79DXNG2GNrImPsjSSm3DxYcDCaPpZ6Ymzo83JHEw5NiOrsGyIIbymE+hnF/U7CIKeejc8nddPGkc9Mnyk866azqMVGQTC8PNtfP4hj68yQ8p01aN+Q/pWOlmQe7e/ld4oa2JVZyxzRyIpg4N8wVmsKP23eg2qt95KnaAf+NKcwo3TCtO6502brnbdJZeLmGwPbNyHUs46mUA5jpVvKtkIcx+jGTMF0YE38s4sRnxboTFaN6/yICk2EA85i4UQB/lS6xtwz+7QFMhAAgjJXnmSmutcT5iVsHtuUwy80rQGDZqqufZh5srl9k8j4C+ytRpjtT2Wd+BP6YQcTmnInTuiH/MTLyTNrdyxRXVtrIefzWCfQ1FJu2ZFqWJuCL0TLWhCdfKGOrod/RjCbMt6da4DCGrwXg/7wMngzkMhll7dfQ9/ykctGVCzfWZHi4M+XHL5Kfa8ikdOtAfgAGdXmfx2+di1nNg1tsfP6deibJGWLXY6ZbbRumUL3wE/Z47dM4zfY/x3KM148j++tw+c5mbOtcQt9YU4oBIYzhIwfRvOUs1ndvQE1FebHnoB+brgWQu6UfT7quocUL4GWGz3l5BHvUX0P92LTzODC2MTdN3DqwTebHz7+uYdPOOjQDAPzo6yoAlh3MQ0avg5NckH/hZ5IcJXA9ytpHsN4OqJPxl7uu4ecst5OZDya6Iamy9rPYVnQyucZHP5QVDuDAzn5s+3UE66WZy2rS+SltwuiWOtQ8b8J8u01BlHQrcTZv+8gLIF43owC5H1p8XNqE0f11uDwZxp6s3jC6/KRSBzHp1heaoltmuuvgz0ulDGnmwW5odEtOggdXOeeLdNLGORaQxfzHP1Y6z2Tie5lS5kQbGSX3cA7s/B0zu7PbU3dumOvDzfCPrxlutMjkfQR0N3nkziCe7PcDnb9rY3126cIBHNi5hiMLI2jJRiBJohwIB3D5uR8n0I/fQsmk8yJ3C/DkhXE538QNtWHxInf7Ilb0b6XhGQTG85Gb4IbK3MObRH6s6iDlcljMK4jmweb6eT7KB56vGuYXZv4bUAJa4nMmTuuG/MfIyDNpdy9TXJlqI93CyRl+u+Vr6vLB2NUGidKJLomVJKeX7+lWVlisuMrM0uDH0m19HcTsmwxnlwbHr4NUlsPaLpVNMw9vxtLgDOU/RiaeSS4N1rijjdS3BfL9sRGruRwNJtGCFMo/xpvP/EDEPqSmdJJSiYXmn1SWyTpWDosLFR7u0DUY8cshSZLSuCjbLR4++VjKdtPSS335UwskkpTezWKdH7s6SKEcSdzw6eXB5joY8mFuiOPn3z6tG/Jv5PwzKUmS7b38rnBDG2m4x5J8rsTLYfaeJElSvF7Lg4eP8WnFx9nsKGXE21IOEawDIue9Lc+VE+Xgd3MREZEwBhMiIhLGYEJERMIYTIiISBiDCRERCWMwISIiYQwmREQkjMGEiIiEMZgQEZEwBhMiIhLGYEJERMJsv5uLiIjefqLfzZUwmBARESWDw1xERCSMwYSIiIQxmBARkTAGEyIiEsZgQkREwhhMiIhIGIMJEREJYzAhIiJhDCZERCSMwYSIiIQxmBARkTAGEyIiEvb/IpK8kHqiU10AAAAASUVORK5CYII=;rotation=10;" vertex="1" parent="1">
          <mxGeometry x="122.03999999999999" y="746" width="177.8" height="51.18" as="geometry" />
        </mxCell>
      </root>
    </mxGraphModel>
  </diagram>
</mxfile>
